<svg xmlns="http://www.w3.org/2000/svg" viewBox="0 0 63 63"><defs><style>.a,.b{fill:#fff;}.a{opacity:0.85;}</style></defs><title>Asset 13</title><path class="a" d="M31.5,0A31.5,31.5,0,1,0,63,31.5,31.53,31.53,0,0,0,31.5,0Zm0,60A28.5,28.5,0,1,1,60,31.5,28.54,28.54,0,0,1,31.5,60Z"/><path class="b" d="M42.28,23l4.32-4.32a1.5,1.5,0,1,0-2.12-2.12l-28,28a1.49,1.49,0,0,0,0,2.12,1.45,1.45,0,0,0,1.06.44,1.48,1.48,0,0,0,1.06-.44l4.93-4.93a18.63,18.63,0,0,0,8,1.83c7.57,0,14.32-4.69,18.72-12A27.12,27.12,0,0,0,42.28,23ZM31.53,40.68A8.92,8.92,0,0,1,26.32,39l2.16-2.17a6,6,0,0,0,8.21-8.21l2.18-2.18a9,9,0,0,1-7.34,14.24Z"/><path class="b" d="M18.55,38.52l4.33-4.33a8.8,8.8,0,0,1-.37-2.53,9,9,0,0,1,9-9,8.8,8.8,0,0,1,2.53.37l2.64-2.64a18.34,18.34,0,0,0-5.18-.76c-7.58,0-14.32,4.69-18.72,12A28.37,28.37,0,0,0,18.55,38.52Z"/></svg>