<?xml version="1.0" encoding="UTF-8"?>
<svg xmlns="http://www.w3.org/2000/svg" width="85" height="85" fill="none">
  <path d="M32.6568 65.0928L33.4434 65.3609L32.6744 67.5621L35.0732 65.9006L35.814 66.1546L34.6358 69.5694L33.8562 69.326L34.6217 67.1071L32.2264 68.7651L31.4785 68.5075L32.6568 65.0928Z" fill="#2E2E2E"></path>
  <path d="M40.0296 66.9834C40.2386 67.104 40.4078 67.283 40.5164 67.4984C40.6184 67.7187 40.6551 67.9635 40.6222 68.204C40.5999 68.4482 40.5054 68.6804 40.3506 68.8707C40.1957 69.055 39.9893 69.1888 39.7579 69.2552C39.483 69.3338 39.1946 69.3543 38.9113 69.3152L38.2058 69.227L38.0858 70.2147L37.2568 70.1159L37.6872 66.5283L39.2394 66.7153C39.5186 66.7486 39.7877 66.8399 40.0296 66.9834ZM39.5322 68.5497C39.605 68.5011 39.6655 68.4364 39.7089 68.3605C39.7524 68.2845 39.7776 68.1996 39.7826 68.1122C39.7986 68.026 39.7945 67.9372 39.7706 67.8528C39.7468 67.7684 39.7038 67.6906 39.6451 67.6254C39.492 67.4903 39.2985 67.4097 39.0947 67.3961L38.4174 67.315L38.2693 68.5602L38.9466 68.6414C39.1465 68.6808 39.3539 68.6483 39.5322 68.5497Z" fill="#2E2E2E"></path>
  <path d="M45.5891 66.5464L45.9736 70.1411L45.1481 70.2293L44.8342 67.3119L43.215 67.4883L43.5254 70.4021L42.6999 70.4903L42.3154 66.8992L45.5891 66.5464Z" fill="#2E2E2E"></path>
  <path d="M49.2398 69.132C48.913 69.0861 48.6053 68.9506 48.3509 68.7404C48.0917 68.5256 47.8964 68.2437 47.7865 67.9255C47.6709 67.6096 47.6428 67.2683 47.7053 66.9378C47.7721 66.6136 47.9258 66.3136 48.1498 66.07C48.3917 65.815 48.6901 65.6205 49.021 65.5023C49.352 65.384 49.7061 65.3452 50.0547 65.3891C50.382 65.4373 50.6902 65.5725 50.9472 65.7807C51.2071 65.9949 51.4025 66.277 51.5117 66.5956C51.6295 66.9111 51.6564 67.2533 51.5893 67.5833C51.5238 67.9073 51.3713 68.2073 51.1483 68.4511C50.9096 68.71 50.6101 68.9052 50.277 69.0191C49.9465 69.1443 49.5895 69.1832 49.2398 69.132ZM50.5345 68.0172C50.6607 67.868 50.7447 67.6877 50.7779 67.4951C50.809 67.2885 50.7872 67.0773 50.7144 66.8813C50.644 66.6817 50.5224 66.504 50.3616 66.3663C50.2143 66.2359 50.0335 66.1491 49.8395 66.1158C49.6405 66.0804 49.4356 66.0999 49.2469 66.1723C49.0557 66.237 48.8853 66.3514 48.753 66.5039C48.6242 66.6514 48.5398 66.8324 48.5096 67.026C48.4758 67.2323 48.4964 67.4439 48.5696 67.6398C48.6413 67.8388 48.7627 68.0161 48.9224 68.1548C49.0693 68.2837 49.2486 68.3703 49.4409 68.4053C49.64 68.439 49.8444 68.4195 50.0336 68.3488C50.2266 68.2839 50.3993 68.1696 50.5345 68.0172Z" fill="#2E2E2E"></path>
  <path d="M41.6347 24.6021C30.7237 24.6021 21.8799 33.2448 21.8799 43.9053C21.8799 54.5658 30.7237 63.2086 41.6347 63.2086C52.5458 63.2086 61.3896 54.5658 61.3896 43.9053C61.3896 33.2448 52.5458 24.6021 41.6347 24.6021ZM41.6347 59.2542C32.9602 59.2542 25.9261 52.3822 25.9261 43.9053C25.9261 35.4283 32.9602 28.5566 41.6347 28.5566C50.3092 28.5566 57.3399 35.4283 57.3399 43.9053C57.3399 52.3822 50.3092 59.2542 41.6347 59.2542Z" fill="#2E2E2E"></path>
  <path d="M61.3724 50.7881C61.1302 51.2266 60.9841 51.7117 60.944 52.2111C60.9038 52.7105 60.9705 53.2127 61.1396 53.6843C61.5135 54.7779 62.1979 55.6139 63.1362 55.9173C63.504 55.4964 63.7385 54.9759 63.81 54.4216C63.9148 53.8519 63.8698 53.2648 63.6795 52.7177C63.4977 52.2221 63.1889 51.7831 62.784 51.4444C62.3791 51.1057 61.8923 50.8794 61.3724 50.7881Z" fill="#2E2E2E"></path>
  <path d="M68.5443 53.4232C68.4166 54.0567 68.142 54.6513 67.7425 55.1593C67.343 55.6672 66.8298 56.0742 66.2443 56.3476C65.7599 56.5905 65.2142 56.684 64.6765 56.6162C64.1389 56.5483 63.6335 56.3222 63.2246 55.9666C63.4358 55.4548 63.725 54.9788 64.0818 54.5556C64.4888 54.1163 64.9747 53.7573 65.5141 53.4973C66.5794 52.9117 67.7471 52.8729 68.5443 53.4232Z" fill="#2E2E2E"></path>
  <path d="M59.834 54.1074C59.5123 54.4578 59.2926 54.8897 59.1991 55.3562C59.0438 55.8595 59.0052 56.3915 59.0862 56.9119C59.2661 58.0549 59.8305 59.0285 60.6877 59.473C61.1007 59.1027 61.4137 58.6344 61.5979 58.1113C61.8185 57.569 61.8714 56.973 61.7496 56.4004C61.662 55.8828 61.4385 55.3977 61.1019 54.9948C60.7654 54.5919 60.3278 54.2857 59.834 54.1074Z" fill="#2E2E2E"></path>
  <path d="M66.4383 57.9597C66.1948 58.5468 65.8348 59.0784 65.38 59.5224C64.8824 59.9466 64.2968 60.2551 63.6655 60.4255C63.1507 60.5845 62.5999 60.5851 62.0847 60.4272C61.5696 60.2693 61.1137 59.9602 60.7764 59.5401C61.0415 59.0558 61.4014 58.6299 61.8347 58.2877C62.3177 57.9374 62.852 57.6637 63.4186 57.4764C64.5898 57.1095 65.7504 57.2788 66.4383 57.9597Z" fill="#2E2E2E"></path>
  <path d="M57.7424 57.1309C56.9946 57.6671 56.5924 58.6548 56.5113 59.759C56.4301 60.8631 56.8852 61.9743 57.6436 62.5564C58.1297 62.259 58.5304 61.8408 58.8067 61.3425C59.0831 60.8442 59.2256 60.2829 59.2205 59.7131C59.2274 59.1899 59.0939 58.6744 58.8339 58.2202C58.574 57.7661 58.1971 57.3899 57.7424 57.1309Z" fill="#2E2E2E"></path>
  <path d="M63.581 62.0731C63.2384 62.6199 62.773 63.0792 62.2219 63.4148C61.6708 63.7504 61.0491 63.9529 60.4061 64.0063C59.8712 64.0728 59.3286 63.9777 58.8482 63.7331C58.3679 63.4886 57.9717 63.1057 57.7109 62.634C58.4671 61.7517 59.53 61.1894 60.6848 61.0607C61.9088 60.9125 63.0236 61.2864 63.581 62.0731Z" fill="#2E2E2E"></path>
  <path d="M55.125 59.7656C54.7013 59.9783 54.3375 60.2936 54.0668 60.6828C53.784 61.1262 53.5777 61.6139 53.4565 62.1256C53.3218 62.6273 53.3076 63.1536 53.4149 63.6618C53.5221 64.17 53.7479 64.6456 54.0738 65.0501C54.6095 64.8578 55.0825 64.5229 55.4419 64.0815C55.8012 63.6401 56.0332 63.109 56.1128 62.5454C56.2123 62.0361 56.1731 61.5093 55.9994 61.0203C55.8256 60.5313 55.5236 60.098 55.125 59.7656Z" fill="#2E2E2E"></path>
  <path d="M60.0001 65.6109C59.5666 66.0733 59.0367 66.4347 58.4479 66.6692C57.8556 66.9356 57.2013 67.0332 56.5571 66.9515C55.2624 66.7998 54.4405 66.0448 54.1406 65.1277C54.56 64.7629 55.0571 64.4986 55.594 64.3551C56.1496 64.1551 56.7403 64.071 57.3296 64.1082C58.5749 64.2105 59.5662 64.7396 60.0001 65.6109Z" fill="#2E2E2E"></path>
  <path d="M62.2651 47.1577C62.1126 47.6021 62.0456 48.0713 62.0675 48.5406C62.119 49.0732 62.2825 49.5889 62.5473 50.0539C62.7609 50.5253 63.0844 50.9385 63.4908 51.2589C63.8972 51.5794 64.3744 51.7976 64.8826 51.8954C65.1608 51.3987 65.3045 50.8381 65.2995 50.2689C65.2946 49.6997 65.1412 49.1416 64.8544 48.6499C64.5929 48.1948 64.2156 47.817 63.7608 47.555C63.306 47.2929 62.79 47.1558 62.2651 47.1577Z" fill="#2E2E2E"></path>
  <path d="M69.7965 48.5124C69.795 49.1554 69.6247 49.7867 69.3026 50.3432C69.0016 50.918 68.5718 51.4155 68.0468 51.7966C66.9355 52.5022 65.7996 52.4634 64.9883 51.9448C65.2205 50.8036 65.8678 49.7892 66.805 49.098C67.8034 48.3466 68.8793 48.0926 69.7965 48.5124Z" fill="#2E2E2E"></path>
  <path d="M62.6103 43.4889C62.4879 43.9525 62.4965 44.441 62.635 44.9C62.7925 45.4053 63.0308 45.8818 63.3405 46.3111C63.6377 46.7387 64.0322 47.0897 64.4916 47.335C64.951 47.5803 65.4621 47.713 65.9828 47.7221C66.1581 47.1965 66.2088 46.6374 66.1309 46.0888C66.0128 45.5144 65.7533 44.9785 65.376 44.5296C65.0514 44.1233 64.623 43.8121 64.1363 43.6289C63.6495 43.4458 63.1223 43.3974 62.6103 43.4889Z" fill="#2E2E2E"></path>
  <path d="M70.2476 43.5067C70.3499 44.7237 70.0501 46.1489 69.0553 47.0344C68.0605 47.9198 66.9845 48.0927 66.0921 47.7187C66.0855 47.1592 66.2061 46.6056 66.4448 46.0995C66.6532 45.5421 66.9697 45.0314 67.3761 44.5968C68.2192 43.7007 69.3199 43.2668 70.2476 43.5067Z" fill="#2E2E2E"></path>
  <path d="M62.226 39.9474C62.2018 40.4224 62.3092 40.8948 62.5364 41.3126C62.7443 41.7958 63.0549 42.228 63.4466 42.5791C64.2932 43.341 65.3974 43.7185 66.3251 43.5104C66.3901 42.9591 66.3273 42.4002 66.1417 41.8771C65.9682 41.3168 65.6256 40.8239 65.161 40.466C64.7619 40.1267 64.2797 39.8998 63.7638 39.8087C63.248 39.7175 62.7172 39.7654 62.226 39.9474Z" fill="#2E2E2E"></path>
  <path d="M69.7505 38.6353C69.9395 39.2454 70.002 39.8876 69.9339 40.5226C69.8306 41.1702 69.5782 41.7849 69.1966 42.3182C68.9069 42.7704 68.488 43.1252 67.9942 43.3365C67.5005 43.5479 66.9546 43.606 66.4274 43.5035C66.3041 42.9589 66.3041 42.3936 66.4274 41.849C66.5825 41.2701 66.8201 40.7164 67.133 40.2052C67.7926 39.1821 68.791 38.5648 69.7505 38.6353Z" fill="#2E2E2E"></path>
  <path d="M61.2666 36.455C61.3626 36.9461 61.562 37.4111 61.8515 37.8192C62.141 38.2273 62.514 38.5692 62.9458 38.8221C63.9265 39.4218 64.9918 39.6193 65.9055 39.2454C65.9193 38.6875 65.7657 38.1383 65.4645 37.6685C65.1765 37.1678 64.7678 36.747 64.2757 36.4444C63.8166 36.184 63.2975 36.048 62.7697 36.0498C62.242 36.0517 61.7238 36.1914 61.2666 36.455Z" fill="#2E2E2E"></path>
  <path d="M68.4526 33.8516C68.7601 34.4209 68.9301 35.0544 68.9491 35.7012C68.9681 36.348 68.8355 36.9903 68.5619 37.5768C68.3478 38.0751 67.9903 38.4986 67.5349 38.7932C67.0795 39.0878 66.5467 39.2403 66.0044 39.2312C65.8393 38.7025 65.7549 38.1519 65.7539 37.5979C65.7782 36.9944 65.9196 36.4013 66.1702 35.8517C66.6217 34.7264 67.486 33.9468 68.4526 33.8516Z" fill="#2E2E2E"></path>
  <path d="M59.7568 33.153C59.9223 33.5929 60.1715 33.9967 60.4906 34.3418C60.872 34.7137 61.3259 35.0031 61.824 35.192C62.2905 35.4155 62.8038 35.5235 63.3208 35.507C63.8378 35.4904 64.3432 35.3497 64.7943 35.0967C64.6909 34.5375 64.4426 34.0153 64.0743 33.582C63.706 33.1487 63.2306 32.8195 62.6954 32.6274C62.2031 32.4456 61.6712 32.3985 61.1547 32.4909C60.6381 32.5833 60.1556 32.8119 59.7568 33.153Z" fill="#2E2E2E"></path>
  <path d="M66.3751 29.3325C66.7858 29.827 67.0595 30.4206 67.1688 31.054C67.3137 31.688 67.3028 32.3477 67.1371 32.9766C66.7455 34.2395 65.8459 34.9344 64.8935 35.0614C64.3415 34.0358 64.187 32.8426 64.4596 31.7102C64.763 30.4931 65.4226 29.6077 66.3751 29.3325Z" fill="#2E2E2E"></path>
  <path d="M57.7109 30.2149C57.9268 30.6376 58.243 31.0009 58.6317 31.2732C59.0779 31.5569 59.5677 31.7654 60.0815 31.8906C60.5842 32.0251 61.1116 32.0386 61.6205 31.9301C62.1294 31.8216 62.6054 31.5941 63.0095 31.2662C62.8173 30.7274 62.4819 30.2513 62.0393 29.8889C61.5968 29.5266 61.0638 29.2917 60.4978 29.2095C59.9858 29.1115 59.4568 29.1531 58.9665 29.33C58.4761 29.5069 58.0424 29.8126 57.7109 30.2149Z" fill="#2E2E2E"></path>
  <path d="M63.5738 25.3008C64.0373 25.7388 64.3986 26.2736 64.6321 26.8671C64.8996 27.464 64.9984 28.1228 64.9178 28.772C64.7662 30.0737 64.0077 30.9133 63.087 31.2061C62.722 30.7828 62.4579 30.2823 62.3144 29.7421C62.11 29.1778 62.0248 28.5772 62.064 27.9783C62.1663 26.7365 62.6954 25.7241 63.5738 25.3008Z" fill="#2E2E2E"></path>
  <path d="M55.1182 27.608C55.6508 28.3593 56.6351 28.7615 57.7357 28.8426C58.8363 28.9238 59.9475 28.4687 60.5261 27.7067C60.2315 27.2226 59.8169 26.8228 59.3225 26.5459C58.8281 26.2691 58.2706 26.1245 57.7039 26.1263C57.1796 26.1181 56.6626 26.2513 56.2076 26.5121C55.7525 26.7728 55.3762 27.1514 55.1182 27.608Z" fill="#2E2E2E"></path>
  <path d="M60.0427 21.7554C60.5881 22.0992 61.0462 22.5649 61.381 23.1158C61.7159 23.6667 61.9183 24.2878 61.9724 24.9303C62.0605 26.2284 61.4644 27.1844 60.6036 27.6324C59.7242 26.8715 59.1637 25.8072 59.0338 24.6516C58.8857 23.4345 59.2596 22.3127 60.0427 21.7554Z" fill="#2E2E2E"></path>
  <path d="M52.0771 25.4841C52.4237 25.8081 52.8538 26.0292 53.319 26.1226C53.8223 26.2776 54.3542 26.3162 54.8746 26.2355C56.014 26.0556 56.9912 25.4912 57.4286 24.6304C57.0576 24.2176 56.5896 23.9036 56.0669 23.7167C55.5271 23.496 54.9334 23.4431 54.3631 23.5651C53.8461 23.6534 53.3619 23.8777 52.9601 24.2149C52.5584 24.5521 52.2537 24.9902 52.0771 25.4841Z" fill="#2E2E2E"></path>
  <path d="M55.9153 18.8804C56.5024 19.1238 57.034 19.4838 57.478 19.9387C57.9009 20.4388 58.207 21.0269 58.374 21.6602C58.5344 22.1754 58.5364 22.7269 58.3798 23.2432C58.2232 23.7596 57.9152 24.217 57.4957 24.5564C57.0092 24.2823 56.5842 23.9113 56.2469 23.4663C55.8965 22.982 55.6228 22.4466 55.4355 21.8789C55.0686 20.7183 55.238 19.5542 55.9153 18.8804Z" fill="#2E2E2E"></path>
  <path d="M48.708 23.9281C49.1451 24.1709 49.629 24.3172 50.1274 24.3574C50.6257 24.3975 51.1269 24.3306 51.5972 24.1609C52.6872 23.8082 53.5197 23.1027 53.8231 22.1608C53.4036 21.7924 52.8843 21.5567 52.3309 21.4835C51.7634 21.3779 51.178 21.4242 50.6341 21.6175C50.1387 21.8001 49.7001 22.1097 49.362 22.5152C49.024 22.9207 48.7984 23.408 48.708 23.9281Z" fill="#2E2E2E"></path>
  <path d="M51.3356 16.7354C51.9681 16.8648 52.5613 17.141 53.0675 17.5417C53.5736 17.9424 53.9785 18.4565 54.2495 19.0424C54.4904 19.5259 54.5831 20.0698 54.516 20.6058C54.4488 21.1418 54.2248 21.646 53.872 22.0551C53.3587 21.8468 52.8823 21.5574 52.461 21.1978C52.0215 20.7897 51.6625 20.3027 51.4027 19.7621C50.8241 18.7073 50.7889 17.5397 51.3356 16.7354Z" fill="#2E2E2E"></path>
  <path d="M45.2159 22.9547C45.6821 23.1258 46.181 23.1893 46.6752 23.1404C47.1694 23.0915 47.6461 22.9316 48.0698 22.6725C48.5358 22.4605 48.9441 22.1396 49.2603 21.7369C49.5764 21.3342 49.7912 20.8614 49.8866 20.3584C49.3973 20.0829 48.8444 19.9405 48.283 19.9454C47.7216 19.9504 47.1712 20.1025 46.687 20.3866C46.236 20.6457 45.8621 21.0201 45.6036 21.4714C45.3451 21.9227 45.2113 22.4346 45.2159 22.9547Z" fill="#2E2E2E"></path>
  <path d="M46.5351 15.4971C47.1701 15.4968 47.7936 15.6661 48.3413 15.9874C48.9078 16.2858 49.3978 16.7107 49.7735 17.2292C50.479 18.3333 50.4296 19.4586 49.9217 20.2629C48.7889 20.0354 47.7823 19.3924 47.0995 18.4603C46.387 17.469 46.1365 16.4107 46.5351 15.4971Z" fill="#2E2E2E"></path>
  <path d="M41.4974 22.5948C41.9519 22.7134 42.4303 22.7048 42.8803 22.5701C43.377 22.4101 43.845 22.172 44.2666 21.8646C44.6887 21.5659 45.0345 21.172 45.276 20.7148C45.5175 20.2576 45.6479 19.7499 45.6565 19.2329C45.1366 19.0649 44.5852 19.0179 44.0444 19.0954C43.4778 19.2137 42.9494 19.4707 42.5063 19.8432C42.1069 20.1693 41.8025 20.5967 41.625 21.0808C41.4475 21.5649 41.4034 22.0878 41.4974 22.5948Z" fill="#2E2E2E"></path>
  <path d="M41.5152 15.0175C42.7146 14.9152 44.1186 15.2151 44.997 16.2028C45.8753 17.1905 46.0553 18.2559 45.6743 19.1413C45.1218 19.1463 44.5753 19.0257 44.0762 18.7886C43.526 18.5818 43.0223 18.2676 42.5946 17.8643C41.7021 17.0318 41.2753 15.9418 41.5152 15.0175Z" fill="#2E2E2E"></path>
  <path d="M27.549 18.7074C17.2024 24.7291 14.7013 33.9398 14.7013 33.9398C13.5916 36.969 13.0163 40.1679 13.001 43.3939C13.001 50.4492 15.3433 56.9754 19.5624 61.9917C19.5624 61.9917 24.8539 67.8017 25.5947 67.1632C27.5215 65.5829 29.1694 63.6905 30.4699 61.5648C30.1983 61.399 29.8667 61.1697 29.6056 60.9934L26.6671 62.7572L25.9933 62.6725L22.3881 59.039C22.3563 58.785 22.3351 58.6122 22.3069 58.3617L24.1025 55.3526C23.1799 53.9566 22.4256 52.4563 21.8554 50.8831C21.739 50.5727 21.6367 50.2516 21.5308 49.9342C21.4568 49.6943 21.3862 49.4332 21.3192 49.1898C21.1781 48.703 21.0793 48.195 20.9664 47.6941C20.9488 47.6059 20.9347 47.5142 20.917 47.4225L17.6328 46.6005L17.2342 46.0432V40.8258L17.654 40.286L21.0405 39.4464C21.0405 39.3829 21.0723 39.3265 21.0828 39.263C21.2098 38.6457 21.3721 38.0812 21.5485 37.4815C22.1578 35.4593 23.0829 33.5461 24.2895 31.8126L22.5256 28.9164C22.5574 28.6659 22.5786 28.4931 22.6103 28.2391L26.4061 24.4892L27.0834 24.4081L29.7785 25.999L30.2724 26.3165L30.3218 26.2883C30.6745 26.0555 31.0696 25.8226 31.4471 25.6075L32.1526 25.23C32.6183 24.9901 33.0804 24.7785 33.5637 24.5703L33.8988 24.4327C35.213 23.9398 36.5732 23.5794 37.9591 23.3568L38.3754 19.8292L38.9116 19.4094L41.5573 19.24V14.9998C36.6425 14.9775 31.8093 16.2567 27.549 18.7074Z" fill="#2E2E2E"></path>
  <path d="M25.8695 36.6738C25.8709 36.7655 25.845 36.8555 25.7951 36.9325C25.7452 37.0094 25.6735 37.0697 25.5892 37.1058C25.5049 37.1418 25.4117 37.152 25.3216 37.135C25.2315 37.1179 25.1485 37.0745 25.0832 37.0102C25.0179 36.9458 24.9731 36.8635 24.9547 36.7737C24.9363 36.6838 24.945 36.5906 24.9798 36.5057C25.0146 36.4209 25.0738 36.3483 25.1499 36.2972C25.2261 36.2461 25.3157 36.2188 25.4074 36.2188C25.4676 36.2183 25.5273 36.2297 25.5831 36.2523C25.639 36.2749 25.6898 36.3083 25.7327 36.3506C25.7756 36.3928 25.8098 36.4431 25.8333 36.4986C25.8567 36.5541 25.869 36.6136 25.8695 36.6738Z" fill="white"></path>
  <path d="M58.4086 36.6563C58.41 36.7479 58.3841 36.838 58.3341 36.9149C58.2842 36.9918 58.2125 37.0521 58.1282 37.0882C58.0439 37.1243 57.9508 37.1344 57.8607 37.1174C57.7706 37.1004 57.6876 37.0569 57.6223 36.9926C57.5569 36.9282 57.5122 36.8459 57.4938 36.7561C57.4754 36.6663 57.4841 36.573 57.5189 36.4881C57.5536 36.4033 57.6128 36.3307 57.689 36.2796C57.7651 36.2285 57.8547 36.2012 57.9464 36.2012C58.0067 36.2007 58.0664 36.2121 58.1222 36.2347C58.178 36.2574 58.2288 36.2907 58.2718 36.333C58.3147 36.3753 58.3488 36.4256 58.3723 36.481C58.3958 36.5365 58.4081 36.596 58.4086 36.6563Z" fill="white"></path>
  <path d="M28.3993 33.8832L28.1735 34.2148L27.2986 33.6186L27.8172 34.7545L27.595 35.0791L26.2686 34.1901L26.4908 33.8585L27.2845 34.4018L26.8365 33.3435L27.0834 32.9907L28.3993 33.8832Z" fill="white"></path>
  <path d="M29.8354 32.2005L29.5638 32.5074L29.0417 32.0382L28.636 32.4898L29.1581 32.9589L28.8829 33.2658L27.7012 32.2076L27.9763 31.9006L28.4067 32.2852L28.8124 31.8336L28.3785 31.4456L28.6536 31.1387L29.8354 32.2005Z" fill="white"></path>
  <path d="M30.9922 31.1986C30.9085 31.2726 30.8131 31.3322 30.7099 31.375C30.615 31.4139 30.5125 31.4308 30.4101 31.4244C30.3069 31.4186 30.2065 31.3884 30.1173 31.3362C30.0101 31.279 29.9154 31.2011 29.8386 31.1069C29.7605 31.0184 29.6984 30.917 29.6552 30.8071C29.6173 30.7094 29.6016 30.6046 29.6093 30.5002C29.6151 30.397 29.6453 30.2966 29.6975 30.2074C29.7524 30.1067 29.8254 30.017 29.9127 29.9428C29.959 29.9038 30.0072 29.8673 30.0573 29.8334L30.1879 29.7594C30.2197 29.7408 30.2527 29.7243 30.2866 29.71L30.396 29.6782L30.6465 29.971L30.6112 29.9992H30.5159H30.3925C30.3468 30.0101 30.302 30.0243 30.2584 30.0416C30.2116 30.0592 30.1685 30.0856 30.1314 30.1192C30.0904 30.1564 30.0548 30.1991 30.0256 30.2462C29.9956 30.2965 29.9786 30.3535 29.9762 30.412C29.9706 30.4757 29.9803 30.5397 30.0044 30.5989C30.034 30.6764 30.077 30.7481 30.1314 30.8106C30.1863 30.8759 30.2534 30.9298 30.329 30.9693C30.3817 31.0011 30.4413 31.0196 30.5027 31.0233C30.5642 31.027 30.6256 31.0157 30.6817 30.9905C30.7309 30.9681 30.7772 30.9397 30.8193 30.9058C30.8576 30.8729 30.8899 30.8335 30.9146 30.7894C30.9421 30.748 30.9635 30.7029 30.9781 30.6554C30.9919 30.6187 31.0025 30.581 31.0098 30.5425C31.0098 30.5037 31.0098 30.4755 31.0098 30.4473L31.0451 30.419L31.292 30.7083L31.2391 30.8212C31.2391 30.8565 31.2003 30.8917 31.1791 30.927C31.158 30.9623 31.1192 31.0152 31.0909 31.0505C31.0607 31.1016 31.0278 31.1511 30.9922 31.1986Z" fill="white"></path>
  <path d="M32.2554 28.6237L31.8427 28.9024L32.5482 29.9607L32.1954 30.19L31.4899 29.1317L31.0772 29.4104L30.9043 29.1564L32.0684 28.3662L32.2554 28.6237Z" fill="white"></path>
  <path d="M34.8156 28.7011L34.4628 28.881L33.9831 27.9356L33.8737 29.1809L33.521 29.3608L32.8154 27.9497L33.1682 27.7663L33.6021 28.6235L33.715 27.4876L34.1066 27.29L34.8156 28.7011Z" fill="white"></path>
  <path d="M36.2831 26.7609L35.814 26.9303L36.2479 28.1403L35.8633 28.2778L35.4365 27.0679L34.9673 27.2372L34.8721 26.9479L36.1914 26.4717L36.2831 26.7609Z" fill="white"></path>
  <path d="M38.351 25.9355L38.0688 27.3078C38.0572 27.3773 38.0333 27.4442 37.9982 27.5054C37.9703 27.5554 37.9332 27.5996 37.8889 27.6359C37.8514 27.6654 37.8098 27.6891 37.7654 27.7064C37.7236 27.7247 37.6798 27.7377 37.6349 27.7452L37.462 27.784L37.328 27.8052L37.2504 27.4524H37.2751H37.3527H37.4656C37.522 27.4413 37.5766 27.4223 37.6278 27.396C37.6573 27.3805 37.6809 27.3557 37.6949 27.3254L36.7988 26.2883L37.2327 26.1895L37.7866 26.8386L37.9347 26.0273L38.351 25.9355Z" fill="white"></path>
  <path d="M40.4072 25.9812L39.9133 26.0376L40.0509 27.3146L39.6417 27.3464L39.5041 26.0658L39.0103 26.1188L38.9785 25.8118L40.3896 25.6602L40.4072 25.9812Z" fill="white"></path>
  <path d="M43.7372 26.2565C43.7334 26.3287 43.7153 26.3995 43.6842 26.4647C43.6554 26.5262 43.6147 26.5814 43.5643 26.627C43.4994 26.6828 43.4238 26.7248 43.3421 26.7504C43.2473 26.7788 43.1477 26.7884 43.0492 26.7786L42.7952 26.7575L42.753 27.276L42.3438 27.2443L42.4671 25.6533L43.141 25.7062C43.2271 25.7118 43.3124 25.7272 43.395 25.7521C43.4582 25.7733 43.5177 25.8043 43.5714 25.8438C43.6296 25.8896 43.6756 25.9489 43.7054 26.0167C43.7346 26.093 43.7455 26.1752 43.7372 26.2565ZM43.3139 26.2354C43.3171 26.1962 43.3088 26.157 43.29 26.1225C43.2712 26.088 43.2427 26.0598 43.208 26.0414C43.1691 26.0221 43.1275 26.009 43.0846 26.0026H42.9258H42.8553L42.8165 26.4788H42.9328C42.9903 26.4823 43.0481 26.4823 43.1056 26.4788C43.148 26.4727 43.1889 26.4583 43.2257 26.4365C43.2533 26.4166 43.2752 26.3898 43.2892 26.3589C43.3047 26.3195 43.3131 26.2777 43.3139 26.2354Z" fill="white"></path>
  <path d="M45.7734 27.7418L45.3607 27.6536L45.3148 27.3185L44.7504 27.1985L44.5776 27.4913L44.1719 27.4102L45.0644 25.9639L45.5265 26.0591L45.7734 27.7418ZM45.276 27.0116L45.1984 26.4119L44.895 26.934L45.276 27.0116Z" fill="white"></path>
  <path d="M47.6853 27.8579C47.6641 27.9309 47.6254 27.9975 47.5724 28.0519C47.5215 28.1025 47.4583 28.139 47.389 28.1577C47.3064 28.1806 47.2204 28.189 47.1349 28.1824C47.0241 28.1716 46.915 28.1467 46.8104 28.1084C46.7075 28.0748 46.6083 28.0311 46.5141 27.9778C46.4322 27.9315 46.3544 27.8784 46.2812 27.8191L46.3941 27.4663H46.4329L46.5036 27.5404C46.5336 27.5728 46.5654 27.6034 46.5988 27.6321L46.7222 27.7203C46.7649 27.7477 46.8112 27.7691 46.8598 27.7838C46.9087 27.8025 46.9597 27.8155 47.0116 27.8226C47.0526 27.8281 47.094 27.8281 47.1349 27.8226C47.1697 27.8146 47.2023 27.7989 47.2303 27.7768C47.2578 27.7577 47.2787 27.7306 47.2902 27.6992C47.2981 27.6655 47.2981 27.6305 47.2902 27.5969C47.2867 27.568 47.2745 27.5409 47.255 27.5192C47.2302 27.4948 47.2015 27.4746 47.1702 27.4593C47.128 27.4386 47.0844 27.4209 47.0397 27.4064L46.7645 27.3111L46.8527 27.043L47.1208 27.1312C47.1641 27.1469 47.2092 27.1576 47.255 27.163C47.2863 27.1704 47.3189 27.1704 47.3502 27.163C47.3741 27.1551 47.3959 27.1418 47.4137 27.1241C47.4289 27.1025 47.4407 27.0787 47.4489 27.0536C47.4575 27.0295 47.4585 27.0033 47.4515 26.9786C47.4446 26.954 47.43 26.9321 47.4101 26.916C47.3529 26.8692 47.287 26.8344 47.2161 26.8137C47.1667 26.7973 47.1159 26.7855 47.0644 26.7784H46.9268H46.8069H46.7081H46.6728L46.7788 26.4609C46.8708 26.4607 46.9626 26.4665 47.0538 26.4786C47.1629 26.4932 47.2705 26.518 47.3749 26.5527C47.5398 26.5968 47.6897 26.6845 47.8088 26.8067C47.8476 26.8494 47.8738 26.9018 47.885 26.9584C47.8962 27.0149 47.8918 27.0734 47.8722 27.1277C47.8448 27.2096 47.7885 27.2786 47.7136 27.3217C47.635 27.3647 47.5453 27.3831 47.4561 27.3746C47.4925 27.3945 47.5267 27.4181 47.5583 27.4452C47.594 27.4733 47.6239 27.508 47.6465 27.5475C47.6719 27.5883 47.6888 27.6339 47.6959 27.6815C47.7066 27.7403 47.7028 27.8008 47.6853 27.8579Z" fill="white"></path>
  <path d="M49.6356 28.7295C49.6049 28.7948 49.5589 28.8517 49.5015 28.8953C49.4489 28.9364 49.3872 28.9642 49.3216 28.9765C49.246 28.9924 49.1679 28.9924 49.0923 28.9765C48.9993 28.9562 48.9092 28.9242 48.8242 28.8812L48.1963 28.5814L48.9018 27.1421L49.4557 27.4102C49.5422 27.4489 49.6259 27.4937 49.7061 27.5442C49.7582 27.578 49.8037 27.621 49.8402 27.6712C49.8795 27.7197 49.904 27.7785 49.9107 27.8406C49.9139 27.9029 49.9006 27.965 49.8719 28.0205C49.8423 28.0866 49.793 28.1421 49.7308 28.1792C49.6646 28.2141 49.5904 28.2311 49.5156 28.2286C49.5937 28.2834 49.6528 28.3611 49.685 28.4509C49.706 28.5466 49.6883 28.6468 49.6356 28.7295ZM49.2511 28.539C49.2734 28.5033 49.2821 28.4607 49.2758 28.4191C49.2657 28.3802 49.2435 28.3456 49.2123 28.3203C49.1775 28.2925 49.1396 28.2689 49.0994 28.2498L48.9406 28.1757L48.863 28.1369L48.6902 28.4897H48.7184L48.9406 28.5955C48.984 28.6155 49.0306 28.6274 49.0782 28.6308C49.1168 28.6339 49.1553 28.6239 49.1876 28.6025C49.2136 28.5868 49.2354 28.5651 49.2511 28.539ZM49.4416 27.9111C49.4472 27.8844 49.4472 27.8567 49.4416 27.83C49.4408 27.8146 49.437 27.7994 49.4303 27.7855C49.4236 27.7716 49.4143 27.7591 49.4027 27.7488C49.3826 27.7296 49.3601 27.713 49.3357 27.6995L49.1664 27.6183H49.1311L48.9865 27.9217L49.0429 27.9499L49.1946 28.0205C49.2279 28.0356 49.2639 28.044 49.3004 28.0452C49.3172 28.0476 49.3342 28.0467 49.3506 28.0424C49.3669 28.0382 49.3823 28.0307 49.3957 28.0205C49.4216 27.9895 49.4376 27.9514 49.4416 27.9111Z" fill="white"></path>
  <path d="M51.2448 30.303L50.8921 30.0842L51.4706 29.1953L50.3382 29.7244L50.0137 29.5128L50.8779 28.1758L51.2307 28.3945L50.7086 29.1988L51.7458 28.7296L52.0985 28.966L51.2448 30.303Z" fill="white"></path>
  <path d="M53.6571 30.6098L53.2761 30.2887L52.4472 31.273L52.1367 31.0084L52.9622 30.0242L52.5847 29.7032L52.7823 29.4668L53.8406 30.3769L53.6571 30.6098Z" fill="white"></path>
  <path d="M54.2743 33.104L54.0026 32.8112L54.7822 32.1056L53.5546 32.3385L53.29 32.0492L54.4577 30.9697L54.7293 31.2625L54.0238 31.9151L55.1421 31.7141L55.4384 32.0386L54.2743 33.104Z" fill="white"></path>
  <path d="M55.5344 34.8146L55.3016 34.4618L55.7778 34.1267L55.6473 33.9433H54.9418L54.6631 33.5446H55.4744C55.4477 33.4513 55.4477 33.3523 55.4744 33.2589C55.5116 33.1602 55.5797 33.076 55.6685 33.019C55.7281 32.9746 55.799 32.9477 55.8731 32.9414C55.9411 32.9352 56.0096 32.9437 56.0741 32.9661C56.1335 32.9911 56.1883 33.0257 56.2364 33.0684C56.2951 33.1233 56.3472 33.1849 56.3916 33.2519L56.822 33.8586L55.5344 34.8146ZM56.0106 33.9785L56.3634 33.7316L56.247 33.5623C56.2117 33.5129 56.1835 33.4741 56.1623 33.4494C56.1364 33.4239 56.1051 33.4046 56.0706 33.393C56.0417 33.3858 56.0114 33.3858 55.9824 33.393C55.9505 33.3992 55.9204 33.4124 55.8942 33.4318C55.8655 33.4509 55.8414 33.4762 55.8237 33.5058C55.8085 33.5328 55.8001 33.5631 55.799 33.594C55.7988 33.6285 55.8073 33.6625 55.8237 33.6928C55.8449 33.7359 55.8697 33.7772 55.8978 33.8163L56.0106 33.9785Z" fill="white"></path>
  <path d="M23.2314 42.2267L23.2773 41.8104L24.5508 41.9657L24.6425 41.3695L23.369 41.2143L23.4184 40.8086L24.9953 40.9991L24.8259 42.4101L23.2314 42.2267Z" fill="white"></path>
  <path d="M24.2893 44.4982C24.2184 44.4989 24.1479 44.4869 24.0812 44.4629C24.0177 44.4404 23.9599 44.4043 23.9119 44.3571C23.85 44.2969 23.8008 44.225 23.7672 44.1454C23.7322 44.0519 23.7154 43.9525 23.7178 43.8527V43.5987H23.1816V43.1895H24.7726V43.8562C24.7747 43.9427 24.7664 44.0292 24.7479 44.1137C24.7323 44.1798 24.7061 44.2429 24.6703 44.3007C24.6297 44.3631 24.5739 44.414 24.508 44.4488C24.4396 44.4809 24.3649 44.4978 24.2893 44.4982ZM24.2893 44.0749C24.3314 44.0757 24.3725 44.062 24.4057 44.0361C24.4358 44.0149 24.4591 43.9855 24.4728 43.9514C24.4901 43.9125 24.4997 43.8706 24.501 43.828C24.501 43.7856 24.501 43.7327 24.501 43.6622V43.5951H24.0001V43.7151C23.9939 43.7725 23.9939 43.8305 24.0001 43.8879C24.0069 43.9291 24.0238 43.9679 24.0494 44.0008C24.0729 44.0259 24.1019 44.0452 24.1341 44.0573C24.1749 44.0714 24.218 44.0774 24.2611 44.0749H24.2893Z" fill="white"></path>
  <path d="M24.2297 46.784C24.1217 46.8034 24.0109 46.8012 23.9038 46.7776C23.7966 46.7539 23.6952 46.7094 23.6053 46.6464C23.5178 46.5775 23.4456 46.4911 23.3933 46.3927C23.3411 46.2943 23.31 46.1861 23.3019 46.075C23.2824 45.9665 23.2851 45.8552 23.31 45.7479C23.3349 45.6405 23.3813 45.5394 23.4466 45.4506C23.517 45.3653 23.6039 45.295 23.7021 45.2441C23.8003 45.1932 23.9078 45.1626 24.0181 45.1542C24.1266 45.133 24.2383 45.1342 24.3463 45.1579C24.4543 45.1815 24.5563 45.2271 24.646 45.2918C24.7326 45.3605 24.804 45.4465 24.8556 45.5443C24.9072 45.642 24.938 45.7495 24.9458 45.8598C24.9658 45.9685 24.9635 46.0802 24.9393 46.1881C24.915 46.296 24.8693 46.3979 24.8047 46.4877C24.6593 46.6581 24.4528 46.7645 24.2297 46.784ZM23.7605 46.2972C23.8168 46.3304 23.8792 46.352 23.944 46.3607C24.0212 46.3713 24.0996 46.3713 24.1768 46.3607C24.2586 46.3509 24.3384 46.3282 24.4132 46.2937C24.4705 46.2693 24.5222 46.2333 24.5648 46.1878C24.6011 46.146 24.6276 46.0966 24.6425 46.0432C24.6529 45.9944 24.6529 45.9439 24.6425 45.895C24.6352 45.8446 24.6197 45.7958 24.5966 45.7504C24.5691 45.705 24.5317 45.6664 24.4872 45.6375C24.4338 45.603 24.3737 45.5802 24.3109 45.5705C24.2301 45.5599 24.1482 45.5599 24.0674 45.5705C23.9862 45.5809 23.9067 45.6023 23.8311 45.634C23.7751 45.6609 23.7239 45.6966 23.6794 45.7398C23.6453 45.78 23.62 45.8268 23.6053 45.8774C23.5947 45.9286 23.5947 45.9814 23.6053 46.0326C23.6132 46.0833 23.63 46.1323 23.6547 46.1773C23.6803 46.2248 23.7165 46.2658 23.7605 46.2972Z" fill="white"></path>
  <path d="M25.2592 48.9429C25.2267 49.0179 25.1757 49.0835 25.111 49.1334C25.0395 49.1906 24.9565 49.2315 24.8676 49.2533C24.7807 49.2792 24.6894 49.2865 24.5995 49.2745C24.5175 49.2604 24.4394 49.2291 24.3702 49.1828C24.2977 49.1302 24.2345 49.0658 24.1832 48.9923C24.1256 48.9057 24.0793 48.8121 24.0457 48.7136L23.8799 48.7595L23.7705 48.3644L23.9398 48.3185C23.9167 48.218 23.9084 48.1146 23.9151 48.0116C23.9183 47.9216 23.9386 47.833 23.9751 47.7506C24.0111 47.6747 24.0628 47.6074 24.1268 47.553C24.1978 47.4972 24.2794 47.4564 24.3667 47.4331C24.452 47.4056 24.5426 47.3984 24.6313 47.4119C24.7124 47.4232 24.7897 47.4534 24.857 47.5001C24.9293 47.5519 24.9914 47.6165 25.0405 47.6906C25.0968 47.7805 25.1429 47.8763 25.178 47.9763L25.3368 47.934L25.4426 48.3256L25.2874 48.3714C25.3111 48.4743 25.3217 48.5798 25.3191 48.6854C25.3164 48.7744 25.296 48.8619 25.2592 48.9429ZM24.2009 48.2374L24.9311 48.0363C24.8981 47.9513 24.8354 47.8811 24.7547 47.8388C24.6704 47.808 24.578 47.808 24.4937 47.8388C24.4017 47.8569 24.3185 47.9054 24.2573 47.9763C24.2288 48.0149 24.2085 48.0589 24.1976 48.1056C24.1867 48.1523 24.1854 48.2008 24.1938 48.248L24.2009 48.2374ZM24.7688 48.83C24.8576 48.8117 24.9359 48.7599 24.9875 48.6854C25.0356 48.61 25.0532 48.5193 25.0369 48.4314L24.2891 48.6431C24.3048 48.688 24.3295 48.7293 24.3616 48.7645C24.3938 48.7997 24.4327 48.828 24.476 48.8477C24.5695 48.8766 24.6699 48.8741 24.7618 48.8406L24.7688 48.83Z" fill="white"></path>
  <path d="M24.84 51.3348L24.3955 50.2765L25.863 49.6592L26.3075 50.7175L26.0253 50.8374L25.736 50.1495L25.482 50.2589L25.7501 50.8939L25.4679 51.0138L25.1998 50.3753L24.847 50.5305L25.1363 51.2149L24.84 51.3348Z" fill="white"></path>
  <path d="M25.552 52.7777C25.4969 52.6802 25.4588 52.5741 25.4391 52.4638C25.4161 52.3651 25.4161 52.2625 25.4391 52.1639C25.468 52.0633 25.5172 51.9696 25.5838 51.8888C25.6644 51.7966 25.7612 51.7201 25.8695 51.663C25.9704 51.6062 26.0801 51.5669 26.1941 51.5466C26.2963 51.5235 26.4023 51.5235 26.5045 51.5466C26.6038 51.5735 26.6956 51.623 26.7726 51.6912C26.8598 51.7656 26.9327 51.8552 26.9878 51.9558C27.0166 52.0096 27.0425 52.065 27.0654 52.1216C27.085 52.1683 27.1003 52.2167 27.1112 52.2662C27.1243 52.3099 27.1325 52.3548 27.1359 52.4003C27.1359 52.4426 27.1359 52.4814 27.1359 52.5132L26.7832 52.7001L26.762 52.6613C26.762 52.6331 26.762 52.6014 26.762 52.5661C26.7658 52.5238 26.7658 52.4813 26.762 52.4391C26.7654 52.3933 26.7654 52.3473 26.762 52.3015C26.7528 52.2517 26.7349 52.204 26.7091 52.1604C26.6822 52.1117 26.6476 52.0677 26.6068 52.0299C26.5632 51.9933 26.5129 51.9657 26.4586 51.9487C26.396 51.9343 26.3308 51.9343 26.2681 51.9487C26.1017 51.98 25.9503 52.0656 25.8378 52.1921C25.7985 52.2424 25.7697 52.2999 25.7531 52.3615C25.7394 52.4171 25.7394 52.4752 25.7531 52.5308C25.7627 52.5838 25.7806 52.635 25.806 52.6825C25.8315 52.7251 25.8623 52.7642 25.8977 52.7989C25.9335 52.8336 25.9739 52.8633 26.0177 52.8871C26.0515 52.9075 26.0869 52.9252 26.1235 52.94C26.1515 52.9551 26.181 52.9669 26.2117 52.9753L26.2329 53.0141L25.8801 53.2011L25.7813 53.1234C25.749 53.0984 25.7184 53.0713 25.6896 53.0423C25.6548 53.0076 25.6218 52.9711 25.5908 52.933C25.5743 52.8822 25.5613 52.8303 25.552 52.7777Z" fill="white"></path>
  <path d="M26.706 54.5699C26.6427 54.4787 26.5928 54.3789 26.5578 54.2736C26.5288 54.1752 26.5204 54.0719 26.5331 53.9702C26.5493 53.8678 26.5878 53.7702 26.646 53.6844C26.7129 53.5827 26.7992 53.4952 26.9 53.4269C26.9943 53.3565 27.1007 53.3039 27.214 53.2717C27.3143 53.2403 27.4207 53.233 27.5244 53.2505C27.6255 53.2672 27.7219 53.3057 27.8066 53.3634C27.9003 53.4282 27.9825 53.508 28.05 53.5998C28.0853 53.6493 28.1171 53.7011 28.1453 53.755C28.1688 53.8044 28.1899 53.8502 28.2088 53.8926C28.2245 53.9364 28.2374 53.9812 28.2476 54.0266C28.2476 54.0654 28.2652 54.1042 28.2687 54.136L27.9583 54.3617L27.9301 54.3229C27.9301 54.2982 27.9301 54.2665 27.9301 54.2277C27.9335 54.1866 27.9335 54.1453 27.9301 54.1042C27.9258 54.0575 27.9163 54.0113 27.9019 53.9666C27.8875 53.9184 27.8648 53.8731 27.8348 53.8326C27.8024 53.7879 27.7631 53.7486 27.7184 53.7162C27.6702 53.684 27.6163 53.6613 27.5597 53.6492C27.4971 53.6339 27.4318 53.6339 27.3692 53.6492C27.2902 53.6718 27.216 53.7089 27.1505 53.7585C27.0801 53.8071 27.0191 53.868 26.9706 53.9384C26.9381 53.9938 26.9165 54.0549 26.9071 54.1183C26.8948 54.1729 26.8948 54.2296 26.9071 54.2841C26.9226 54.3358 26.9464 54.3847 26.9776 54.4288C27.0064 54.47 27.0423 54.5058 27.0834 54.5346C27.1215 54.5659 27.1644 54.5909 27.2104 54.6087L27.3198 54.651L27.4115 54.6757L27.4397 54.711L27.1293 54.9332L27.0235 54.8697L26.9212 54.7992C26.8788 54.7674 26.8436 54.7322 26.8083 54.7004C26.7721 54.6586 26.738 54.615 26.706 54.5699Z" fill="white"></path>
  <path d="M28.5828 56.7358L28.3112 56.443L29.0873 55.7375L27.8632 55.9738L27.5986 55.6846L28.7663 54.6016L29.0344 54.8979L28.3289 55.5505L29.4507 55.3494L29.747 55.6704L28.5828 56.7358Z" fill="white"></path>
  <path d="M30.9923 57.7729C30.9261 57.8613 30.8431 57.9358 30.7481 57.9921C30.653 58.0484 30.5478 58.0854 30.4384 58.101C30.2146 58.1085 29.9955 58.0348 29.8218 57.8935C29.648 57.7521 29.5312 57.5527 29.493 57.3319C29.483 57.1088 29.5616 56.8907 29.7118 56.7252C29.7781 56.6361 29.8616 56.5612 29.9573 56.5048C30.053 56.4485 30.159 56.4119 30.2691 56.3971C30.379 56.3902 30.4892 56.4057 30.5929 56.4427C30.6966 56.4797 30.7917 56.5374 30.8724 56.6123C30.9615 56.678 31.036 56.7614 31.0913 56.8573C31.1465 56.9533 31.1813 57.0596 31.1934 57.1697C31.2088 57.3894 31.1365 57.6064 30.9923 57.7729ZM30.2868 57.7341C30.3513 57.7224 30.4126 57.6971 30.4667 57.66C30.5299 57.6149 30.5869 57.5615 30.636 57.5013C30.6905 57.4381 30.7346 57.3667 30.7665 57.2896C30.7911 57.2329 30.8031 57.1715 30.8018 57.1097C30.8031 57.057 30.791 57.0048 30.7665 56.958C30.7427 56.9133 30.7104 56.8738 30.6713 56.8416C30.6328 56.8089 30.5885 56.7838 30.5408 56.7675C30.4896 56.7568 30.4367 56.7568 30.3855 56.7675C30.3233 56.7797 30.2644 56.805 30.2127 56.8416C30.1423 56.8856 30.0802 56.9418 30.0292 57.0074C29.9753 57.0697 29.9313 57.1399 29.8987 57.2155C29.8758 57.2728 29.8639 57.3338 29.8634 57.3954C29.8626 57.4481 29.8747 57.5002 29.8987 57.5471C29.9233 57.5923 29.9556 57.6329 29.994 57.6671C30.0351 57.6988 30.0817 57.7228 30.1315 57.7376C30.1826 57.7506 30.2363 57.7494 30.2868 57.7341Z" fill="white"></path>
  <path d="M32.4032 59.6599L32.0505 59.4483L32.4032 58.8451L31.8917 58.5205L31.5178 59.1167L31.165 58.898L32.0117 57.5469L32.3644 57.7656L32.054 58.2595L32.5655 58.584L32.876 58.0901L33.2287 58.3088L32.4032 59.6599Z" fill="white"></path>
  <path d="M34.5578 60.7395L34.1663 60.5596L34.2016 60.2068L33.6689 59.9564L33.4325 60.1998L33.0586 60.0269L34.2651 58.8311L34.6919 59.0321L34.5578 60.7395ZM34.2439 59.914L34.3074 59.3143L33.8876 59.7482L34.2439 59.914Z" fill="white"></path>
  <path d="M36.6574 61.4627L36.2694 61.3357L36.6609 60.1116L36.2306 59.9705L36.1706 60.1257C36.1706 60.1645 36.1389 60.2139 36.1142 60.2739C36.0694 60.3881 36.0187 60.5 35.9625 60.609C35.9213 60.6806 35.8766 60.7501 35.8284 60.8172C35.7928 60.8645 35.7513 60.9072 35.705 60.9442C35.6719 60.9709 35.6365 60.9945 35.5991 61.0147C35.5512 61.0359 35.4998 61.0479 35.4474 61.05C35.3913 61.0532 35.3351 61.046 35.2816 61.0288L35.1793 60.99L35.1123 60.9618L35.2217 60.609H35.2499C35.2769 60.6204 35.3054 60.6275 35.3345 60.6302C35.3544 60.6336 35.3747 60.6336 35.3945 60.6302C35.4704 60.5909 35.5311 60.5276 35.5674 60.4503C35.6367 60.3206 35.6968 60.1862 35.7473 60.0481C35.772 59.9776 35.8002 59.9035 35.8284 59.8188C35.8566 59.7342 35.8919 59.6425 35.9272 59.5366L37.116 59.9211L36.6574 61.4627Z" fill="white"></path>
  <path d="M39.0142 61.4487C39.0015 61.5224 38.9726 61.5923 38.9295 61.6533C38.89 61.7079 38.8396 61.7535 38.7814 61.7874C38.7134 61.8236 38.6392 61.8463 38.5627 61.8544C38.4763 61.8587 38.3897 61.8516 38.3051 61.8332L37.5996 61.6957L37.8995 60.1294L38.3016 60.207L38.1887 60.7891L38.5133 60.8526C38.6037 60.8683 38.6924 60.8931 38.7778 60.9266C38.8413 60.9555 38.8979 60.9976 38.9436 61.0501C38.9888 61.1023 39.0193 61.1656 39.0318 61.2335C39.0384 61.3058 39.0324 61.3786 39.0142 61.4487ZM38.5944 61.3817C38.5977 61.3559 38.5977 61.3299 38.5944 61.3041C38.5904 61.2793 38.5821 61.2554 38.5697 61.2335C38.5511 61.2084 38.527 61.1879 38.4992 61.1736C38.4584 61.1521 38.4142 61.1378 38.3686 61.1312L38.1146 61.0819L38.0476 61.4805L38.3016 61.5299C38.3426 61.535 38.3841 61.535 38.4251 61.5299C38.4559 61.5259 38.4858 61.5163 38.5133 61.5017C38.5346 61.4869 38.5536 61.469 38.5697 61.4487C38.5825 61.4284 38.5909 61.4055 38.5944 61.3817Z" fill="white"></path>
  <path d="M41.1834 62.154L40.7742 62.1293L40.8235 61.4238L40.2168 61.3814L40.1709 62.087L39.7617 62.0587L39.8675 60.4678L40.2768 60.496L40.238 61.0781L40.8412 61.1204L40.88 60.5383L41.2892 60.563L41.1834 62.154Z" fill="white"></path>
  <path d="M43.6387 61.2619C43.6519 61.3719 43.6431 61.4834 43.6129 61.59C43.5826 61.6966 43.5314 61.7961 43.4623 61.8827C43.3039 62.0368 43.0957 62.1293 42.8752 62.1435C42.6547 62.1578 42.4363 62.0928 42.2594 61.9604C42.1796 61.8834 42.1158 61.7914 42.0716 61.6897C42.0274 61.588 42.0037 61.4786 42.0019 61.3677C41.9782 61.1452 42.0428 60.9222 42.1818 60.7468C42.289 60.6164 42.4337 60.5222 42.5963 60.4769C42.759 60.4316 42.9316 60.4375 43.0908 60.4938C43.2499 60.55 43.3879 60.6539 43.4859 60.7914C43.584 60.9288 43.6373 61.0931 43.6387 61.2619ZM43.1237 61.6993C43.16 61.6457 43.1863 61.5859 43.2013 61.5229C43.2107 61.4456 43.2107 61.3674 43.2013 61.2901C43.1962 61.2071 43.1796 61.1251 43.1519 61.0467C43.1286 60.9894 43.0952 60.9368 43.0531 60.8915C43.0185 60.8514 42.9733 60.8221 42.9226 60.8068C42.8753 60.7892 42.8248 60.782 42.7744 60.7856C42.7241 60.7889 42.675 60.8021 42.6298 60.8244C42.5823 60.8469 42.5411 60.8809 42.5099 60.9232C42.4709 60.974 42.4444 61.0332 42.4323 61.0961C42.4192 61.1767 42.4192 61.2589 42.4323 61.3395C42.4356 61.4227 42.4523 61.5049 42.4816 61.5829C42.5024 61.6406 42.5349 61.6934 42.5769 61.7381C42.6136 61.7757 42.6581 61.8046 42.7074 61.8228C42.7558 61.8409 42.8076 61.8481 42.8591 61.8439C42.9105 61.8402 42.9607 61.827 43.0073 61.8051C43.0531 61.7784 43.0927 61.7424 43.1237 61.6993Z" fill="white"></path>
  <path d="M45.4337 60.461L44.7282 60.5951L44.9575 61.858L44.5377 61.918L44.252 60.3517L45.3773 60.1436L45.4337 60.461Z" fill="white"></path>
  <path d="M47.6807 60.3199C47.7183 60.4242 47.7349 60.535 47.7295 60.6458C47.724 60.7566 47.6967 60.8652 47.649 60.9654C47.5314 61.1523 47.3506 61.2908 47.1395 61.3556C46.9284 61.4203 46.7011 61.4071 46.499 61.3182C46.3078 61.204 46.1696 61.0189 46.1144 60.8031C46.0775 60.6975 46.0625 60.5855 46.0704 60.4739C46.0783 60.3623 46.1089 60.2534 46.1603 60.1541C46.2136 60.0574 46.2862 59.9728 46.3736 59.9054C46.461 59.8381 46.5613 59.7894 46.6683 59.7625C46.7721 59.7245 46.8826 59.7081 46.9929 59.7141C47.1033 59.7202 47.2113 59.7486 47.3103 59.7978C47.4033 59.8562 47.4839 59.9324 47.5475 60.022C47.611 60.1115 47.6563 60.2128 47.6807 60.3199ZM47.2786 60.8596C47.3034 60.7992 47.3155 60.7344 47.3138 60.6691C47.312 60.5909 47.2977 60.5135 47.2715 60.4398C47.2495 60.3596 47.215 60.2834 47.1692 60.214C47.134 60.1639 47.0897 60.1208 47.0387 60.087C46.9951 60.056 46.9439 60.0377 46.8905 60.0341C46.8415 60.0254 46.7914 60.0254 46.7424 60.0341C46.6939 60.0497 46.6486 60.0736 46.6083 60.1047C46.5686 60.1396 46.5373 60.183 46.5166 60.2317C46.4907 60.2892 46.4786 60.352 46.4813 60.4151C46.4832 60.4976 46.4963 60.5795 46.5201 60.6585C46.5429 60.7373 46.5774 60.8122 46.6224 60.8807C46.6576 60.9319 46.7018 60.9761 46.7529 61.0113C46.7972 61.039 46.8471 61.0565 46.8989 61.0626C46.9508 61.0687 47.0033 61.0632 47.0528 61.0465C47.1024 61.032 47.1481 61.0067 47.1868 60.9725C47.2268 60.9435 47.2584 60.9046 47.2786 60.8596Z" fill="white"></path>
  <path d="M50.8457 58.8099C50.9028 58.9041 50.9407 59.0088 50.957 59.1178C50.9734 59.2268 50.9679 59.338 50.941 59.4449C50.9076 59.5507 50.8529 59.6486 50.78 59.7324C50.7072 59.8161 50.6179 59.884 50.5177 59.9317C50.4237 59.9895 50.3187 60.0272 50.2094 60.0424C50.1001 60.0576 49.9889 60.0499 49.8827 60.0199C49.7783 59.9844 49.682 59.9283 49.5996 59.855C49.5172 59.7817 49.4503 59.6926 49.4029 59.593C49.2869 59.4016 49.2514 59.172 49.3041 58.9545C49.3833 58.7484 49.5333 58.5773 49.7273 58.4719C49.9213 58.3665 50.1465 58.3338 50.3624 58.3795C50.4676 58.4155 50.5644 58.4721 50.6474 58.546C50.7304 58.6199 50.7978 58.7096 50.8457 58.8099ZM50.56 59.4237C50.574 59.3598 50.574 59.2936 50.56 59.2297C50.5425 59.1531 50.5139 59.0794 50.4753 59.011C50.4382 58.9377 50.3893 58.8709 50.3307 58.8134C50.2881 58.7687 50.2364 58.7338 50.179 58.7111C50.13 58.6906 50.0765 58.6833 50.0238 58.6899C49.9728 58.6946 49.9235 58.7102 49.8792 58.7358C49.8345 58.7596 49.7949 58.7919 49.7627 58.831C49.7294 58.872 49.7064 58.9204 49.6957 58.9722C49.6835 59.0339 49.6835 59.0974 49.6957 59.1591C49.7131 59.2391 49.7416 59.3163 49.7804 59.3884C49.8178 59.4615 49.8666 59.5282 49.925 59.586C49.9688 59.6308 50.0218 59.6657 50.0802 59.6883C50.1279 59.709 50.1804 59.7163 50.2319 59.7094C50.2838 59.7064 50.3344 59.692 50.3801 59.6671C50.4251 59.6408 50.4646 59.6061 50.4965 59.5648C50.5286 59.5235 50.5504 59.4751 50.56 59.4237Z" fill="white"></path>
  <path d="M52.7539 57.8294C52.7969 57.8883 52.827 57.9556 52.8421 58.0269C52.858 58.093 52.858 58.1619 52.8421 58.228C52.8218 58.3033 52.7871 58.374 52.7398 58.4361C52.6836 58.5013 52.6196 58.5593 52.5493 58.609L51.9532 59.0358L51.0254 57.7412L52.0308 57.0356L52.2107 57.2861L51.5369 57.7729L51.7027 58.0022L51.9743 57.8082C52.0467 57.754 52.1247 57.7078 52.2072 57.6706C52.2715 57.6422 52.3415 57.6289 52.4118 57.6318C52.4801 57.6341 52.5462 57.6561 52.6023 57.6953C52.6603 57.7307 52.7117 57.7761 52.7539 57.8294ZM52.4012 58.0869C52.3876 58.0658 52.3709 58.0467 52.3518 58.0304C52.3334 58.013 52.3099 58.0019 52.2848 57.9987C52.2544 57.9936 52.2234 57.9936 52.193 57.9987C52.1485 58.0157 52.1068 58.0395 52.0696 58.0692L51.8579 58.2209L52.0943 58.549L52.3059 58.3973C52.34 58.3744 52.3699 58.3458 52.3941 58.3127C52.4124 58.2867 52.4267 58.2582 52.4365 58.228C52.4417 58.2036 52.4417 58.1783 52.4365 58.1539C52.4339 58.1304 52.4267 58.1076 52.4153 58.0869H52.4012Z" fill="white"></path>
  <path d="M53.939 56.0089C53.9871 56.0616 54.0253 56.1225 54.0518 56.1888C54.0779 56.2513 54.0911 56.3185 54.0907 56.3863C54.0863 56.4732 54.0647 56.5583 54.0272 56.6368C53.9834 56.7256 53.9222 56.8048 53.8472 56.8696L53.6567 57.0425L54.0095 57.4234L53.7097 57.7021L52.6514 56.5274L53.1523 56.0688C53.2145 56.0097 53.2832 55.9576 53.3569 55.9136C53.4162 55.8815 53.4807 55.86 53.5474 55.8501C53.6178 55.8306 53.6922 55.8306 53.7626 55.8501C53.8329 55.8886 53.8933 55.9429 53.939 56.0089ZM53.6321 56.3016C53.6043 56.2706 53.5671 56.2496 53.5262 56.2417C53.4918 56.2308 53.4548 56.2308 53.4204 56.2417C53.3801 56.2578 53.3422 56.2791 53.3075 56.3052C53.2758 56.3299 53.237 56.3687 53.1876 56.4145L53.1347 56.4604L53.4557 56.8132L53.5403 56.732C53.584 56.6946 53.6241 56.6533 53.6603 56.6086C53.687 56.575 53.7041 56.5347 53.7097 56.4921C53.7168 56.4596 53.7168 56.4259 53.7097 56.3934C53.6889 56.3588 53.6627 56.3279 53.6321 56.3016Z" fill="white"></path>
  <path d="M56.2114 55.0954L55.9327 55.4164L55.6187 55.2894L55.2342 55.7374L55.407 56.0302L55.1354 56.3477L54.3135 54.8625L54.6204 54.5098L56.2114 55.0954ZM55.333 55.173L54.7721 54.9507L55.079 55.4728L55.333 55.173Z" fill="white"></path>
  <path d="M56.9555 53.1796C57.0161 53.2194 57.0668 53.2725 57.1037 53.3348C57.1392 53.3984 57.1575 53.4702 57.1566 53.543C57.1559 53.6285 57.1404 53.7132 57.1108 53.7934C57.0716 53.8983 57.0194 53.9978 56.9555 54.0898C56.896 54.179 56.8287 54.2628 56.7545 54.3402C56.688 54.4072 56.616 54.4686 56.5393 54.5237L56.243 54.3226L56.2641 54.2908L56.3558 54.245C56.3948 54.2223 56.4325 54.1976 56.4687 54.1709L56.5851 54.0792C56.6224 54.043 56.6555 54.0027 56.6839 53.9592C56.7132 53.9173 56.738 53.8723 56.758 53.8252C56.7749 53.7873 56.7845 53.7466 56.7862 53.7052C56.7902 53.669 56.7841 53.6324 56.7686 53.5994C56.7541 53.5646 56.7279 53.5359 56.6945 53.5183C56.6673 53.4977 56.636 53.4833 56.6028 53.4759C56.575 53.4692 56.5459 53.4692 56.5181 53.4759C56.4864 53.4919 56.4586 53.5148 56.437 53.543C56.4054 53.5767 56.3771 53.6133 56.3523 53.6523L56.19 53.8993L55.9537 53.7405L56.1089 53.5042C56.1365 53.4661 56.1591 53.4246 56.1759 53.3807C56.1886 53.3517 56.1957 53.3206 56.1971 53.289C56.1943 53.2644 56.1871 53.2405 56.1759 53.2184C56.1592 53.1974 56.1389 53.1795 56.116 53.1655C56.0953 53.1511 56.0706 53.1434 56.0454 53.1434C56.0202 53.1434 55.9956 53.1511 55.9749 53.1655C55.9141 53.2077 55.8626 53.2617 55.8232 53.3243C55.7955 53.3679 55.7719 53.4139 55.7526 53.4618C55.7353 53.5054 55.7212 53.5502 55.7103 53.5959C55.6984 53.6338 55.6901 53.6728 55.6856 53.7123C55.6856 53.744 55.6856 53.7758 55.6856 53.8075L55.6644 53.8428L55.3857 53.6559C55.4077 53.5665 55.4372 53.4792 55.4739 53.3948C55.5144 53.2916 55.5665 53.1934 55.6291 53.102C55.7116 52.9539 55.8338 52.8317 55.9819 52.7492C56.0328 52.7228 56.0899 52.7108 56.1471 52.7145C56.2044 52.7183 56.2595 52.7376 56.3065 52.7704C56.3781 52.8186 56.4295 52.8914 56.4511 52.975C56.475 53.0627 56.4688 53.1559 56.4335 53.2396C56.4627 53.2098 56.4946 53.1826 56.5287 53.1585C56.5661 53.1336 56.6063 53.1134 56.6486 53.0985C56.6954 53.0914 56.743 53.0914 56.7897 53.0985C56.8509 53.1114 56.9078 53.1393 56.9555 53.1796Z" fill="white"></path>
  <path d="M57.7772 50.947C57.878 50.9922 57.9689 51.0569 58.0446 51.1374C58.1203 51.2179 58.1793 51.3127 58.2181 51.4162C58.251 51.519 58.2623 51.6275 58.2513 51.735C58.2404 51.8424 58.2075 51.9464 58.1546 52.0405C58.111 52.1424 58.0468 52.2341 57.9661 52.31C57.8853 52.3859 57.7898 52.4443 57.6854 52.4815C57.4707 52.5402 57.2414 52.5124 57.0469 52.4039C56.9461 52.3587 56.8552 52.294 56.7795 52.2135C56.7038 52.1329 56.6448 52.0382 56.606 51.9347C56.5722 51.8293 56.561 51.718 56.5731 51.6079C56.5853 51.4979 56.6205 51.3917 56.6765 51.2962C56.7202 51.1948 56.7844 51.1035 56.8652 51.0282C56.946 50.9529 57.0415 50.8952 57.1457 50.8588C57.2516 50.8313 57.3619 50.8249 57.4702 50.84C57.5786 50.8552 57.6829 50.8915 57.7772 50.947ZM57.8936 51.6172C57.867 51.5583 57.8285 51.5055 57.7807 51.462C57.7227 51.4094 57.6573 51.3654 57.5867 51.3315C57.514 51.292 57.4353 51.2646 57.3538 51.2504C57.2933 51.2378 57.2309 51.2378 57.1704 51.2504C57.1187 51.2629 57.0704 51.287 57.0293 51.3209C56.9909 51.3542 56.9597 51.395 56.9376 51.4408C56.9156 51.4878 56.9041 51.5389 56.9041 51.5908C56.9041 51.6426 56.9156 51.6938 56.9376 51.7407C56.964 51.7978 57.0012 51.8492 57.0469 51.8924C57.108 51.949 57.1769 51.9966 57.2515 52.0335C57.3234 52.0714 57.4008 52.0976 57.4808 52.1111C57.5413 52.1236 57.6038 52.1236 57.6643 52.1111C57.716 52.0985 57.7643 52.0744 57.8054 52.0405C57.8443 52.0077 57.8755 51.9667 57.8971 51.9206C57.9213 51.8747 57.9358 51.8242 57.9394 51.7724C57.9364 51.7178 57.9207 51.6647 57.8936 51.6172Z" fill="white"></path>
  <path d="M58.8112 49.0525C58.8783 49.0752 58.9388 49.1139 58.9875 49.1654C59.0346 49.2129 59.0697 49.2709 59.0898 49.3347C59.1119 49.409 59.1203 49.4867 59.1145 49.564C59.1038 49.6605 59.0813 49.7553 59.0475 49.8462L58.8182 50.5024L57.3154 49.9697L57.5236 49.3876C57.5523 49.2981 57.5877 49.2109 57.6294 49.1266C57.6574 49.0715 57.6943 49.0214 57.7387 48.9784C57.7826 48.9333 57.8392 48.9025 57.901 48.8902C57.9626 48.8798 58.026 48.8859 58.0845 48.9079C58.1521 48.9309 58.2112 48.974 58.2538 49.0314C58.2965 49.0929 58.322 49.1648 58.3279 49.2395C58.3725 49.1546 58.4447 49.0875 58.5325 49.049C58.5767 49.0306 58.6243 49.0215 58.6722 49.0221C58.7201 49.0227 58.7674 49.033 58.8112 49.0525ZM58.0174 49.3312C57.9909 49.3238 57.9628 49.3238 57.9363 49.3312C57.9054 49.3358 57.8776 49.3523 57.8587 49.3771C57.8348 49.4062 57.8168 49.4398 57.8058 49.4758C57.7881 49.5182 57.767 49.5781 57.7387 49.6522V49.6875L58.0562 49.8004L58.0774 49.7404C58.0986 49.6816 58.1162 49.6287 58.1303 49.5817C58.1364 49.5466 58.1364 49.5109 58.1303 49.4758C58.1303 49.442 58.1177 49.4093 58.095 49.3841C58.0732 49.3612 58.0468 49.3431 58.0174 49.3312ZM58.663 49.4547C58.6238 49.4435 58.5823 49.4435 58.5431 49.4547C58.5055 49.4693 58.4735 49.4951 58.4513 49.5287C58.4264 49.5661 58.4063 49.6064 58.3914 49.6487C58.3914 49.7016 58.3526 49.758 58.3349 49.8145L58.3032 49.8992L58.6771 50.0332V50.005C58.7159 49.8956 58.7406 49.818 58.7582 49.7686C58.7673 49.7232 58.7673 49.6765 58.7582 49.6311C58.7597 49.5927 58.7471 49.5551 58.723 49.5252C58.7084 49.4976 58.6879 49.4735 58.663 49.4547Z" fill="white"></path>
  <path d="M59.8201 46.9502L59.7284 47.3629L59.3757 47.4017L59.2487 47.9803L59.5379 48.1567L59.4462 48.5623L58.0352 47.6416L58.1375 47.1795L59.8201 46.9502ZM59.0829 47.4546L58.4832 47.5217L58.9982 47.8356L59.0829 47.4546Z" fill="white"></path>
  <path d="M60.0631 44.7522L60.0243 45.1614L59.3187 45.0979L59.2729 45.6906L59.9784 45.7541L59.9184 46.1774L58.3486 46.0433L58.3874 45.6341L58.966 45.687L59.0224 45.0838L58.4439 45.0274L58.4792 44.6182L60.0631 44.7522Z" fill="white"></path>
  <path d="M60.0318 42.3359V42.7346L58.9735 42.7769L60.0565 43.3978V43.7893L58.4691 43.8528V43.4507L59.4286 43.4119L58.4444 42.8369L58.4268 42.3994L60.0318 42.3359Z" fill="white"></path>
  <path d="M59.7001 40.0464L59.7706 40.4485L59.1956 40.5473L59.2344 40.7696L59.8765 41.0659L59.9576 41.5456L59.2274 41.1929C59.2059 41.2879 59.1597 41.3756 59.0933 41.4469C59.0168 41.5192 58.9191 41.5649 58.8146 41.5774C58.7433 41.599 58.6672 41.599 58.5959 41.5774C58.5315 41.555 58.4735 41.5175 58.4266 41.468C58.3821 41.4212 58.3474 41.3661 58.3243 41.3058C58.2935 41.2311 58.2721 41.1529 58.2608 41.0729L58.1338 40.3392L59.7001 40.0464ZM58.9134 40.5967L58.4901 40.6673L58.5254 40.8683C58.5324 40.9161 58.5431 40.9633 58.5571 41.0094C58.5664 41.044 58.5861 41.0748 58.6136 41.0976C58.6354 41.1189 58.662 41.1346 58.6912 41.1435C58.7237 41.1506 58.7574 41.1506 58.7899 41.1435C58.8229 41.1392 58.8543 41.1271 58.8817 41.1082C58.9061 41.0903 58.9266 41.0675 58.9416 41.0412C58.9593 41.0102 58.9667 40.9744 58.9628 40.9389C58.9653 40.8907 58.9653 40.8424 58.9628 40.7943L58.9134 40.5967Z" fill="white"></path>
  <path d="M41.3954 40.1382C40.3795 38.3955 34.3895 38.7694 32.7879 38.9035C32.6807 38.915 32.5817 38.9663 32.5105 39.0473C32.4392 39.1283 32.401 39.2331 32.4034 39.3409V47.4545C32.4032 47.5141 32.4154 47.5731 32.4392 47.6278C32.463 47.6824 32.4979 47.7316 32.5417 47.772C32.5855 47.8125 32.6372 47.8434 32.6935 47.8628C32.7499 47.8823 32.8097 47.8898 32.8691 47.8849C34.5694 47.7473 40.4041 47.4087 41.406 49.1266C41.4209 49.1523 41.4423 49.1735 41.4679 49.1883C41.4936 49.2031 41.5228 49.2109 41.5524 49.2109C41.582 49.2109 41.6112 49.2031 41.6368 49.1883C41.6625 49.1735 41.6839 49.1523 41.6988 49.1266C42.7006 47.4087 48.5354 47.7473 50.2357 47.8849C50.2943 47.8883 50.3529 47.8796 50.408 47.8595C50.4631 47.8394 50.5135 47.8082 50.5561 47.7679C50.5987 47.7276 50.6327 47.679 50.6558 47.6251C50.679 47.5712 50.6909 47.5132 50.6908 47.4545V39.3409C50.6911 39.2326 50.6507 39.1282 50.5774 39.0484C50.5042 38.9687 50.4036 38.9194 50.2957 38.9105C48.6941 38.7765 42.7042 38.4026 41.6882 40.1452C41.6727 40.1705 41.6508 40.1913 41.6248 40.2054C41.5987 40.2196 41.5694 40.2267 41.5398 40.226C41.5101 40.2253 41.4812 40.2168 41.4559 40.2014C41.4305 40.186 41.4097 40.1642 41.3954 40.1382Z" fill="#E9E8E8"></path>
  <path d="M50.2812 48.5477C48.3199 48.3996 42.6862 48.135 41.6914 49.8424C41.6756 49.8679 41.6535 49.889 41.6273 49.9036C41.601 49.9182 41.5715 49.9258 41.5415 49.9258C41.5115 49.9258 41.4819 49.9182 41.4557 49.9036C41.4294 49.889 41.4074 49.8679 41.3916 49.8424C40.3968 48.135 34.7631 48.3996 32.8017 48.5477C32.7158 48.554 32.6295 48.5426 32.5481 48.5141C32.4668 48.4856 32.3923 48.4406 32.329 48.3821C32.2658 48.3235 32.2154 48.2525 32.1808 48.1736C32.1462 48.0947 32.1282 48.0095 32.1279 47.9233V48.9287C32.1275 49.0187 32.146 49.1077 32.1821 49.19C32.2183 49.2724 32.2713 49.3462 32.3378 49.4067C32.4044 49.4672 32.4829 49.5131 32.5682 49.5414C32.6536 49.5696 32.744 49.5796 32.8335 49.5708C34.809 49.4226 40.4144 49.1615 41.4057 50.8654C41.4215 50.8909 41.4436 50.912 41.4698 50.9266C41.496 50.9412 41.5256 50.9489 41.5556 50.9489C41.5856 50.9489 41.6152 50.9412 41.6414 50.9266C41.6676 50.912 41.6897 50.8909 41.7055 50.8654C42.6968 49.1615 48.3022 49.4226 50.2777 49.5708C50.3672 49.5796 50.4576 49.5696 50.543 49.5414C50.6283 49.5131 50.7068 49.4672 50.7733 49.4067C50.8399 49.3462 50.8929 49.2724 50.9291 49.19C50.9652 49.1077 50.9837 49.0187 50.9832 48.9287V47.9233C50.9834 48.0121 50.9647 48.0999 50.9284 48.1809C50.8921 48.262 50.839 48.3344 50.7726 48.3934C50.7063 48.4524 50.6282 48.4967 50.5435 48.5233C50.4588 48.5499 50.3694 48.5582 50.2812 48.5477Z" fill="#2E2E2E"></path>
  <path d="M42.9085 48.0929C42.449 48.1775 41.9962 48.2954 41.5538 48.4456C41.1114 48.2954 40.6587 48.1775 40.1992 48.0929C40.3084 47.8166 40.4936 47.5769 40.7333 47.4015C40.973 47.2261 41.2575 47.1221 41.5538 47.1016C42.023 47.0734 42.5239 47.345 42.9085 48.0929Z" fill="#2E2E2E"></path>
  <path d="M41.5537 40.7518C41.9523 39.0339 47.3003 36.8926 49.4804 37.0372V43.708C49.4804 43.708 43.2399 44.4876 41.5537 46.4349V40.7518Z" fill="#2E2E2E"></path>
  <path d="M41.5536 40.7518C41.1585 39.0339 35.807 36.8926 33.627 37.0372V43.708C33.627 43.708 39.8709 44.4876 41.5536 46.4349V40.7518Z" fill="#2E2E2E"></path>
</svg>
