<svg id="Слой_1" data-name="Слой 1" xmlns="http://www.w3.org/2000/svg" viewBox="0 0 166.48 79.78"><defs><style>.cls-1{fill:#1d1d1b;}</style></defs><path class="cls-1" d="M51.9,39.13,34.12.82,16.42,39.05l-4.05,8.81L1,72.35l.08.09a38.59,38.59,0,0,0,9.21,8.16l3.56-8.16L21.59,55a28.52,28.52,0,0,0,12.53,2.91,29.1,29.1,0,0,0,12.53-2.83L54.4,72.44,58,80.6a38.64,38.64,0,0,0,9.22-8.16h.08L55.94,47.86ZM34.12,47.22a22.22,22.22,0,0,1-9.22-1.94l9.22-21.5,9.21,21.5A22.21,22.21,0,0,1,34.12,47.22Z" transform="translate(-0.98 -0.82)"/><path class="cls-1" d="M67.27,36.86h2.06l.93-2h3.07l.94,2h2.07l-4.53-9.47Zm3.42-3.47,1.12-2.57,1.11,2.57Z" transform="translate(-0.98 -0.82)"/><path class="cls-1" d="M83.2,31.69a3.5,3.5,0,0,0-1.55-.34H80V29.46h4V27.91h-5.9v9h3.53a3.37,3.37,0,0,0,1.55-.34,2.77,2.77,0,0,0,1.09-1,2.83,2.83,0,0,0,0-2.9A2.75,2.75,0,0,0,83.2,31.69Zm-.55,3.09a1.09,1.09,0,0,1-.53.4,2.16,2.16,0,0,1-.8.14H80V32.87h1.34a2.16,2.16,0,0,1,.8.14,1.09,1.09,0,0,1,.53.4,1.33,1.33,0,0,1,0,1.37Z" transform="translate(-0.98 -0.82)"/><polygon class="cls-1" points="94.1 36.04 94.1 26.64 87.73 32.54 87.73 27.09 85.97 27.09 85.97 36.49 92.33 30.6 92.33 36.04 94.1 36.04"/><path class="cls-1" d="M98.23,33.31a3.49,3.49,0,0,1-.09.82,2.31,2.31,0,0,1-.25.64,1.24,1.24,0,0,1-.41.41,1.12,1.12,0,0,1-.55.14v1.54a3.4,3.4,0,0,0,1.78-.42,2.44,2.44,0,0,0,1-1.22,5,5,0,0,0,.33-1.92V29.56h3.27v7.3h1.86V27.91h-7Z" transform="translate(-0.98 -0.82)"/><polygon class="cls-1" points="108.72 27.09 106.96 27.09 106.96 36.49 113.33 30.6 113.33 36.04 115.09 36.04 115.09 26.64 108.72 32.54 108.72 27.09"/><polygon class="cls-1" points="122.35 32.42 118.61 26.64 117.28 36.04 119.18 36.04 119.76 31.02 122.35 35.21 124.95 31.02 125.53 36.04 127.43 36.04 126.1 26.64 122.35 32.42"/><polygon class="cls-1" points="129.67 36.04 131.52 36.04 131.52 28.74 135.41 28.74 135.41 36.04 137.26 36.04 137.26 27.09 129.67 27.09 129.67 36.04"/><polygon class="cls-1" points="141.79 27.09 140.02 27.09 140.02 36.49 146.39 30.6 146.39 36.04 148.16 36.04 148.16 26.64 141.79 32.54 141.79 27.09"/><polygon class="cls-1" points="158.09 27.09 155.92 27.09 152.73 30.72 152.73 27.09 150.85 27.09 150.85 36.04 152.73 36.04 152.73 31.99 156.06 36.04 158.28 36.04 154.38 31.29 158.09 27.09"/><path class="cls-1" d="M163.3,29.84a2.87,2.87,0,0,1,1.42-.35,3.7,3.7,0,0,1,1.14.16,3.45,3.45,0,0,1,.9.45,3.76,3.76,0,0,1,.69.61V28.66a4,4,0,0,0-1.19-.68,4.73,4.73,0,0,0-1.63-.25,5.34,5.34,0,0,0-1.9.34,4.37,4.37,0,0,0-1.52,1,4.27,4.27,0,0,0-1,1.47,5,5,0,0,0-.35,1.89,4.92,4.92,0,0,0,.35,1.88,4.31,4.31,0,0,0,1,1.48,4.37,4.37,0,0,0,1.52,1,5.34,5.34,0,0,0,1.9.33,4.75,4.75,0,0,0,1.63-.24,4.27,4.27,0,0,0,1.19-.68V34.06a3.49,3.49,0,0,1-1.59,1.06,3.41,3.41,0,0,1-1.14.17,3,3,0,0,1-1.42-.35,2.78,2.78,0,0,1-1.06-1,3.18,3.18,0,0,1,0-3.09A2.75,2.75,0,0,1,163.3,29.84Z" transform="translate(-0.98 -0.82)"/><path class="cls-1" d="M73.29,49.6a4.62,4.62,0,0,0,.91-1.13,2.76,2.76,0,0,0,.34-1.35,2.44,2.44,0,0,0-.2-1,2.69,2.69,0,0,0-.6-.89,3,3,0,0,0-1-.65,3.78,3.78,0,0,0-1.41-.25,3.36,3.36,0,0,0-1.83.46A3,3,0,0,0,68.35,46,3.85,3.85,0,0,0,68,47.76h1.79a2.16,2.16,0,0,1,.19-.94,1.38,1.38,0,0,1,.52-.64,1.45,1.45,0,0,1,.81-.22,1.55,1.55,0,0,1,.59.11,1.3,1.3,0,0,1,.43.29,1.13,1.13,0,0,1,.27.41,1.27,1.27,0,0,1,.09.47,1.65,1.65,0,0,1-.13.66,2.21,2.21,0,0,1-.37.64,6.64,6.64,0,0,1-.58.69l-4.07,4.25h7.2V51.8H71Z" transform="translate(-0.98 -0.82)"/><path class="cls-1" d="M82.06,44.94a3.42,3.42,0,0,0-3.78,0A3.73,3.73,0,0,0,77,46.55a6.78,6.78,0,0,0,0,4.91,3.7,3.7,0,0,0,1.26,1.6,3.42,3.42,0,0,0,3.78,0,3.68,3.68,0,0,0,1.25-1.6,6.92,6.92,0,0,0,0-4.91A3.71,3.71,0,0,0,82.06,44.94Zm-.2,5.3a3.21,3.21,0,0,1-.38,1,2,2,0,0,1-.57.62,1.44,1.44,0,0,1-1.5,0,2,2,0,0,1-.57-.62,3.2,3.2,0,0,1-.37-1A5.3,5.3,0,0,1,78.34,49a5.22,5.22,0,0,1,.13-1.23,3.2,3.2,0,0,1,.37-1,1.91,1.91,0,0,1,.57-.62,1.39,1.39,0,0,1,1.5,0,1.91,1.91,0,0,1,.57.62,3.21,3.21,0,0,1,.38,1A5.83,5.83,0,0,1,82,49,5.93,5.93,0,0,1,81.86,50.24Z" transform="translate(-0.98 -0.82)"/><path class="cls-1" d="M91.07,49.6A4.39,4.39,0,0,0,92,48.47a2.77,2.77,0,0,0,.35-1.35,2.63,2.63,0,0,0-.2-1,2.69,2.69,0,0,0-.6-.89,3.14,3.14,0,0,0-1-.65,3.87,3.87,0,0,0-1.42-.25,3.41,3.41,0,0,0-1.83.46A2.89,2.89,0,0,0,86.14,46a3.72,3.72,0,0,0-.39,1.72h1.79a2.32,2.32,0,0,1,.19-.94A1.36,1.36,0,0,1,89.07,46a1.5,1.5,0,0,1,.58.11,1.35,1.35,0,0,1,.44.29,1.13,1.13,0,0,1,.27.41,1.27,1.27,0,0,1,.09.47,1.85,1.85,0,0,1-.13.66,2.79,2.79,0,0,1-.37.64,6.82,6.82,0,0,1-.59.69l-4.07,4.25h7.2V51.8H88.75Z" transform="translate(-0.98 -0.82)"/><path class="cls-1" d="M100,49.11a4,4,0,0,0-.75-.33,2.81,2.81,0,0,0,1.11-.72,1.83,1.83,0,0,0,.46-1.24,2.26,2.26,0,0,0-.35-1.23,2.4,2.4,0,0,0-1-.88,3.52,3.52,0,0,0-1.59-.34,3.31,3.31,0,0,0-1.55.35,2.63,2.63,0,0,0-1,.94A2.51,2.51,0,0,0,94.87,47h1.7a1,1,0,0,1,.37-.82,1.28,1.28,0,0,1,.9-.33,1.27,1.27,0,0,1,.62.13.78.78,0,0,1,.37.37,1.13,1.13,0,0,1,.13.56,1,1,0,0,1-.12.49,1.38,1.38,0,0,1-.34.43,1.41,1.41,0,0,1-.53.28,2.2,2.2,0,0,1-.71.11v1.25a3.49,3.49,0,0,1,.84.09,1.91,1.91,0,0,1,.61.28,1.14,1.14,0,0,1,.38.44,1.39,1.39,0,0,1,0,1.27,1.14,1.14,0,0,1-.49.43,1.87,1.87,0,0,1-1.49,0,1.29,1.29,0,0,1-.76-1.21H94.49a2.54,2.54,0,0,0,.23,1.09,2.7,2.7,0,0,0,.65.92,3.11,3.11,0,0,0,1,.64,3.9,3.9,0,0,0,1.37.23,4.17,4.17,0,0,0,1.73-.33,2.67,2.67,0,0,0,1.14-.91,2.34,2.34,0,0,0,.4-1.36,2.18,2.18,0,0,0-.28-1.15A2.24,2.24,0,0,0,100,49.11Z" transform="translate(-0.98 -0.82)"/></svg>