<?xml version="1.0" encoding="UTF-8"?>
<svg xmlns="http://www.w3.org/2000/svg" width="85" height="85" fill="none">
  <path fill-rule="evenodd" clip-rule="evenodd" d="M26.0002 28.5271C26.0002 45.9878 25.9554 45.3794 27.3535 46.9212C28.6306 48.3297 29.556 48.5765 34.1276 48.7295C38.439 48.8738 39.154 49.043 40.8789 50.3272L41.7826 51L42.5191 50.3512C43.9208 49.1164 44.9069 48.8778 49.2485 48.7231C53.9289 48.5562 54.7075 48.3541 55.9844 46.9744C57.3757 45.4712 57.2756 46.8078 57.3328 28.9944L57.3844 13H41.6922H26.0002V28.5271ZM41.5081 15.1036C41.3571 15.2008 41.1692 15.2396 41.0904 15.1902C40.935 15.0926 40.176 15.5186 40.176 15.7034C40.176 15.7656 40.5965 15.6855 41.1104 15.5253C41.6244 15.3651 42.0133 15.182 41.9748 15.1188C41.9362 15.0554 42.0687 15.0037 42.2689 15.0037C42.8544 15.0037 42.6223 15.5457 41.9891 15.6571C41.7909 15.6919 41.4293 15.8532 41.1858 16.0154C40.9369 16.1812 40.743 16.2223 40.743 16.1095C40.743 15.9172 40.2151 16.0148 39.3727 16.3628C39.1759 16.444 39.0419 16.4133 39.0419 16.2867C39.0419 16.1697 39.1907 16.0671 39.3727 16.0588C39.5811 16.0492 39.5112 15.9724 39.1837 15.8507C38.4713 15.5862 38.5299 15.3668 39.2887 15.4569C39.7 15.5057 39.9985 15.4269 40.1624 15.2262C40.3071 15.0488 40.6984 14.9224 41.0968 14.9241C41.5875 14.9262 41.7045 14.9774 41.5081 15.1036ZM33.7496 17.1013C33.7496 17.1989 33.5642 17.0292 33.3377 16.7243C32.6265 15.7672 32.5511 15.5681 33.1616 16.2588C33.485 16.6246 33.7496 17.0039 33.7496 17.1013ZM42.0039 16.2229C42.315 16.4242 42.5411 17.4189 42.2755 17.4189C42.1604 17.4189 42.0661 17.2079 42.0661 16.9499C42.0661 16.6919 41.9776 16.4254 41.8695 16.3574C41.5741 16.172 41.8689 17.279 42.1833 17.5361C42.6252 17.8975 42.4755 18.0177 41.7353 17.8959C41.084 17.7887 41.0549 17.8025 41.3762 18.0665C41.5686 18.2246 41.6699 18.4462 41.6013 18.5587C41.5329 18.6715 41.5669 18.7637 41.6769 18.7637C41.7869 18.7637 41.8771 18.6341 41.8771 18.4756C41.8771 18.1514 42.1727 18.0884 42.3471 18.3755C42.474 18.5841 42.1228 19.3613 41.8079 19.5693C41.5149 19.7626 41.1711 19.4043 40.9265 18.6506C40.8088 18.2882 40.6353 18.0402 40.5409 18.0996C40.4464 18.1587 40.4198 18.0736 40.4814 17.9103C40.5432 17.7468 40.66 17.655 40.7413 17.7061C40.9668 17.8475 41.2751 17.3795 41.3767 16.7416C41.427 16.4273 41.475 16.1484 41.4835 16.122C41.5136 16.0288 41.7852 16.0815 42.0039 16.2229ZM34.5056 17.3315C34.5056 17.4948 34.7145 17.8406 34.9697 18.1C35.2738 18.4093 35.3422 18.5716 35.1679 18.5716C35.022 18.5716 34.8158 18.7228 34.7098 18.9078C34.585 19.1255 34.5151 19.1532 34.5113 18.9866C34.5083 18.845 34.3174 18.5743 34.0872 18.3849C33.7203 18.0829 33.6965 17.9785 33.8942 17.5374C34.1416 16.9852 34.5056 16.8627 34.5056 17.3315ZM34.5056 18.3908C34.5056 18.5027 34.5907 18.5409 34.6947 18.4756C34.7986 18.4102 34.8837 18.3188 34.8837 18.2721C34.8837 18.2254 34.7986 18.1874 34.6947 18.1874C34.5907 18.1874 34.5056 18.279 34.5056 18.3908ZM47.3111 18.6927C47.9736 18.8733 47.8109 19.0796 47.0749 18.9924C46.711 18.9491 46.4133 18.8368 46.4133 18.7428C46.4133 18.5449 46.708 18.5284 47.3111 18.6927ZM41.3038 19.8508C41.2949 20.0792 40.554 19.1482 40.554 18.9086C40.554 18.8004 40.7241 18.9317 40.932 19.2004C41.1399 19.469 41.3072 19.7616 41.3038 19.8508ZM38.2327 23.0866C42.0933 28.4472 44.0182 31.2528 43.9106 31.3623C43.759 31.5162 35.0727 19.3832 35.0727 19.0175C35.0727 18.7511 35.5926 19.4208 38.2327 23.0866ZM41.4045 19.148C41.4688 19.2537 41.6064 19.3401 41.7104 19.3401C41.8143 19.3401 41.8468 19.2537 41.7826 19.148C41.7183 19.0423 41.5807 18.9559 41.4767 18.9559C41.3728 18.9559 41.3403 19.0423 41.4045 19.148ZM49.3228 19.1146C49.3759 19.202 49.3698 19.4658 49.3093 19.7009L49.1993 20.1286L48.7514 19.7009C48.5049 19.4656 48.3047 19.353 48.3063 19.4508C48.311 19.7405 48.5605 20.037 48.9952 20.2694C49.2763 20.4199 49.3725 20.6083 49.3039 20.8746C49.2305 21.1599 49.2969 21.2618 49.5571 21.2627C49.7512 21.2635 50.1155 21.5707 50.3665 21.9453C50.6177 22.3202 50.9847 22.7146 51.1821 22.822C51.468 22.9776 51.4954 23.0733 51.3166 23.2921C51.1567 23.4879 51.1533 23.5669 51.3045 23.5669C51.4212 23.5669 51.5166 23.6533 51.5166 23.759C51.5166 24.1309 51.128 23.9455 50.9159 23.4723C50.7719 23.1513 50.6317 23.0522 50.4899 23.1717C50.2034 23.4136 48.1152 22.7797 48.1148 22.4508C48.1146 22.3125 48.0286 22.2531 47.9239 22.319C47.819 22.3849 47.6542 22.2387 47.5578 21.9941L47.3824 21.5496L47.3703 22.0395C47.3638 22.309 47.457 22.6297 47.5778 22.7525C47.6986 22.8752 47.819 23.1734 47.8454 23.4153C47.8719 23.6572 48.0851 24.2873 48.3193 24.8157C48.5535 25.344 48.7593 25.8195 48.7769 25.8724C48.7943 25.9252 48.865 26.1198 48.934 26.3046C49.2356 27.1129 49.2326 27.199 48.9081 27.0755C48.6215 26.9663 48.6164 26.9902 48.8616 27.296C49.2243 27.7489 49.3349 28.4455 49.0128 28.2488C48.8499 28.1492 48.8565 28.2051 49.0345 28.428C49.1766 28.6063 49.2517 28.9717 49.2012 29.2403C49.105 29.751 49.5002 30.1277 49.9573 29.9612C50.0873 29.9137 50.1935 30.0119 50.1935 30.1792C50.1935 30.5535 50.0204 30.556 49.5431 30.189C49.3413 30.034 48.968 29.907 48.7134 29.907C48.4588 29.907 48.1377 29.7556 47.9995 29.5708C47.8462 29.3654 47.746 29.3281 47.7424 29.4747C47.736 29.7264 47.1695 29.8213 47.1692 29.5708C47.169 29.4914 46.5129 29.3986 45.711 29.3646C44.9092 29.3304 44.1964 29.2668 44.1272 29.2232C43.9065 29.0847 43.8203 28.2257 43.9953 27.9079C44.1115 27.6968 44.0875 27.6005 43.9184 27.5986C43.7645 27.5967 43.7447 27.5429 43.8655 27.4545C44.1764 27.2268 44.5251 26.2804 44.3406 26.1646C44.2482 26.1066 44.118 26.233 44.0516 26.4459C43.9851 26.6587 43.8515 26.833 43.7545 26.833C43.6575 26.833 43.5782 27.0326 43.5782 27.2766C43.5782 27.5206 43.4447 27.8879 43.2818 28.0931C42.9973 28.4511 42.9896 28.4455 43.0922 27.9548C43.1716 27.5748 43.1277 27.4541 42.9215 27.4849C42.7688 27.5077 42.5777 27.6003 42.4968 27.6908C42.4159 27.7811 42.4549 27.7936 42.5838 27.7183C42.7414 27.6263 42.7811 27.6789 42.7053 27.8797C42.57 28.2382 42.3301 28.2714 42.287 27.9377C42.0693 26.2512 42.0664 26.2689 42.594 25.9778C42.8754 25.8226 43.0287 25.6922 42.9346 25.6879C42.8404 25.6837 42.9 25.5269 43.0667 25.3396C43.2742 25.1066 43.3143 24.9094 43.1935 24.7152C43.0434 24.4743 43.0164 24.4804 43.014 24.7563C43.0124 24.935 42.9126 25.1431 42.7922 25.2186C42.6424 25.3129 42.6072 25.2255 42.6802 24.9413C42.7499 24.6702 42.6785 24.4645 42.4738 24.3473C42.1846 24.1815 42.1838 24.1188 42.4639 23.5311C42.6308 23.1809 42.9072 22.5676 43.078 22.168C43.2489 21.7686 43.5233 21.3891 43.6882 21.3248C43.9138 21.2368 43.9299 21.1715 43.7528 21.0602C43.5662 20.943 43.5683 20.7886 43.7636 20.3094C44.0543 19.5962 44.8145 19.148 45.7334 19.148H46.3955L45.5327 20.0126C45.0581 20.4881 44.7735 20.8771 44.9001 20.8771C45.0267 20.8771 45.2989 20.6593 45.5049 20.393C45.7111 20.1267 46.1387 19.7728 46.4551 19.6064C46.931 19.3563 47.0584 19.3486 47.1915 19.5622C47.2801 19.7042 47.3538 19.7449 47.3555 19.6529C47.357 19.5607 47.486 19.5928 47.6419 19.7244C47.8815 19.9267 47.9254 19.8858 47.9254 19.4596C47.9254 19.0137 47.9999 18.9559 48.5758 18.9559C48.9336 18.9559 49.2696 19.0273 49.3228 19.1146ZM43.3891 19.6283C43.2597 19.7868 43.0629 19.9165 42.9518 19.9165C42.8408 19.9165 42.9149 19.7895 43.1168 19.6345C43.5908 19.2698 43.6834 19.2679 43.3891 19.6283ZM35.7085 20.4552C35.9826 20.8571 36.1999 21.3542 36.1918 21.5599C36.181 21.8316 36.1489 21.855 36.0746 21.6456C36.0183 21.4871 35.8176 21.2277 35.6284 21.0692C35.3163 20.8076 34.9077 19.7244 35.1211 19.7244C35.17 19.7244 35.4344 20.0533 35.7085 20.4552ZM44.3397 19.909C44.1868 20.0074 44.1019 20.1286 44.151 20.1786C44.2 20.2285 44.4053 20.1467 44.6069 19.9968C45.0101 19.6971 44.7846 19.6229 44.3397 19.909ZM39.2309 20.3968C39.4908 20.5478 39.6184 20.6714 39.5144 20.6714C39.4105 20.6714 39.1128 20.5478 38.8529 20.3968C38.593 20.2458 38.4654 20.1223 38.5694 20.1223C38.6733 20.1223 38.971 20.2458 39.2309 20.3968ZM43.7672 20.6963C43.7672 20.8081 43.8522 20.8464 43.9562 20.7811C44.0601 20.7157 44.1452 20.6243 44.1452 20.5776C44.1452 20.5309 44.0601 20.4929 43.9562 20.4929C43.8522 20.4929 43.7672 20.5845 43.7672 20.6963ZM43.2001 21.284C43.2001 21.3897 43.1151 21.4228 43.0111 21.3574C42.9072 21.2921 42.8221 21.1522 42.8221 21.0466C42.8221 20.9409 42.9072 20.9079 43.0111 20.9732C43.1151 21.0385 43.2001 21.1784 43.2001 21.284ZM43.8163 21.7672C43.1266 22.5542 43.1043 22.7467 43.7795 22.084C44.1259 21.744 44.3701 21.426 44.3223 21.3774C44.2745 21.3288 44.0467 21.5042 43.8163 21.7672ZM42.6943 21.8128C42.6473 21.9955 42.4441 22.2495 42.243 22.3772C41.9202 22.582 41.8771 22.5565 41.8771 22.1596C41.8771 21.6191 41.9381 21.5451 42.4135 21.5086C42.6737 21.4887 42.755 21.5768 42.6943 21.8128ZM44.2278 22.1774C43.3668 23.2435 43.2506 23.5452 43.9515 22.8944C44.4253 22.4545 44.5238 22.4134 44.3677 22.7206C44.141 23.1667 42.8221 24.2579 42.8221 23.9993C42.8221 23.9094 42.9242 23.7321 43.0489 23.6053C43.2177 23.4337 43.2194 23.3747 43.0555 23.3747C42.9346 23.3747 42.749 23.539 42.6431 23.7398C42.3246 24.345 42.9576 24.4153 43.6205 23.8483C43.9352 23.5792 44.2219 23.3886 44.2576 23.4249C44.3979 23.5676 44.0845 24.9117 43.911 24.9117C43.8072 24.9117 43.7772 24.6802 43.8428 24.3834L43.9592 23.8551L43.6878 24.3354C43.5262 24.6213 43.492 24.8432 43.6033 24.8837C43.7061 24.921 43.6362 25.1312 43.4479 25.3507C43.107 25.7483 43.1073 25.7484 43.5731 25.4268C44.1892 25.0009 44.3862 25.0191 44.2397 25.4881C44.1709 25.7085 44.2057 25.8724 44.3215 25.8724C44.4376 25.8724 44.5272 25.4445 44.5327 24.8637C44.5453 23.5196 44.6517 22.3342 44.8031 21.8495C44.9727 21.3061 44.8961 21.3497 44.2278 22.1774ZM48.442 21.6694C48.5703 21.8009 48.7228 21.8598 48.7809 21.8007C48.8391 21.7415 48.7342 21.6341 48.5478 21.5619C48.2785 21.4577 48.2567 21.4796 48.442 21.6694ZM40.6872 22.066C40.9165 22.0493 41.2142 22.0128 41.3488 21.9847C41.4894 21.9555 41.6179 22.1484 41.651 22.4383C41.7075 22.9334 41.6937 22.94 40.895 22.7911C40.4476 22.7079 40.0501 22.6712 40.0117 22.7098C39.9002 22.8222 39.4199 22.271 39.4199 22.0306C39.4199 21.8896 39.5711 21.8625 39.8452 21.9542C40.079 22.0324 40.458 22.0827 40.6872 22.066ZM50.6661 23.9511C50.7303 24.0568 50.6927 24.1432 50.5827 24.1432C50.4727 24.1432 50.3825 24.0568 50.3825 23.9511C50.3825 23.8455 50.42 23.759 50.4659 23.759C50.5118 23.759 50.6018 23.8455 50.6661 23.9511ZM41.688 25.5842C41.688 25.7427 41.6395 25.8724 41.5801 25.8724C41.5206 25.8724 41.3444 25.7427 41.1885 25.5842C40.9365 25.3281 40.9484 25.296 41.2966 25.296C41.5185 25.296 41.688 25.4207 41.688 25.5842ZM43.6727 25.6802C43.6084 25.7859 43.646 25.8724 43.756 25.8724C43.866 25.8724 43.9562 25.7859 43.9562 25.6802C43.9562 25.5746 43.9188 25.4881 43.8728 25.4881C43.8269 25.4881 43.7369 25.5746 43.6727 25.6802ZM42.9563 26.3219C43.0249 26.4349 42.9474 26.4651 42.7682 26.3951C42.5554 26.3121 42.4947 26.3592 42.5671 26.5511C42.6456 26.7586 42.7597 26.7777 43.034 26.6284C43.2336 26.5198 43.4912 26.4902 43.6065 26.5627C43.729 26.6395 43.7819 26.5896 43.7337 26.4426C43.6882 26.3041 43.4685 26.1771 43.2453 26.1604C43.0175 26.1433 42.8909 26.2142 42.9563 26.3219ZM35.0215 26.949C34.9587 27.0128 34.7956 27.0197 34.6593 26.9642C34.5085 26.9029 34.5533 26.8574 34.7735 26.8482C34.9727 26.8399 35.0842 26.8853 35.0215 26.949ZM39.1364 27.9857C39.0721 28.0914 39.1897 28.1779 39.3976 28.1779C39.6055 28.1779 39.8282 28.0914 39.8924 27.9857C39.9567 27.8801 40.1956 27.8003 40.4234 27.8088C40.7177 27.8196 40.5642 27.9577 39.8924 28.2866C38.8635 28.7904 38.5278 28.8432 38.1006 28.5685C37.8785 28.4257 37.9564 28.3289 38.4786 28.0987C39.2766 27.7467 39.2823 27.7458 39.1364 27.9857ZM50.1115 29.478C49.8756 29.7177 49.7994 29.33 49.9448 28.6297L50.0986 27.8897L50.1586 28.6294C50.1916 29.0363 50.1705 29.418 50.1115 29.478ZM44.1452 28.4426C44.1452 28.4824 44.2939 28.6338 44.476 28.7788C44.7757 29.0176 44.7823 29.0109 44.5474 28.7062C44.3004 28.3861 44.1452 28.2845 44.1452 28.4426ZM34.2446 29.5627C34.5947 29.8048 34.8816 30.0568 34.8823 30.1224C34.8831 30.1881 34.4469 30.3007 33.9131 30.3727C32.3951 30.5773 31.8086 31.1585 31.0125 33.2469C30.6413 34.2208 30.1697 35.1635 29.9645 35.3422C29.7592 35.5209 29.5914 35.6141 29.5914 35.5493C29.5914 35.4846 29.4638 35.5391 29.3078 35.6707C29.0793 35.8634 29.0202 35.8586 29.0026 35.6461C28.9533 35.0484 29.0718 34.5977 29.3502 34.3259C29.614 34.0678 29.6312 34.0774 29.5137 34.4162C29.4415 34.6242 29.4451 34.7307 29.5216 34.6529C29.5984 34.5751 29.6768 34.128 29.6963 33.6596C29.7157 33.1912 29.9019 32.4578 30.1102 32.03C30.3185 31.6019 30.4124 31.2519 30.3189 31.2519C29.8358 31.2519 31.3401 29.3567 32.0485 29.0728C32.5433 28.8743 33.5863 29.107 34.2446 29.5627ZM40.3612 29.2392C40.2296 29.4002 40.073 29.482 40.0127 29.4209C39.9526 29.3598 40.0285 29.2294 40.1814 29.131C40.5816 28.8737 40.6339 28.9052 40.3612 29.2392ZM42.1133 29.6636C42.6758 30.1787 42.4825 30.2809 41.5463 29.9635C40.4721 29.5994 40.4812 29.6057 40.6502 29.3279C40.8169 29.0538 41.6584 29.2469 42.1133 29.6636ZM53.4713 29.4169C53.5417 29.6031 53.4857 29.6599 53.3026 29.5884C53.0035 29.4718 52.9257 29.1385 53.1975 29.1385C53.2903 29.1385 53.4135 29.2638 53.4713 29.4169ZM46.1281 29.8065C46.959 29.8816 47.7899 30.0255 47.9749 30.126C48.16 30.2267 48.3941 30.2568 48.4955 30.1933C48.7884 30.0092 49.6267 31.0655 49.6248 31.6161C49.6231 32.0711 49.5785 32.0411 49.1337 31.2866C48.6561 30.4768 48.2603 30.2601 48.6661 31.0307C48.95 31.5698 48.9211 31.726 48.5896 31.4463C48.3424 31.2376 48.3388 31.298 48.5601 31.951C48.8555 32.8223 49.0829 32.8842 51.0919 32.6404C52.548 32.4636 52.8442 32.5689 52.8336 33.2596C52.8283 33.6083 52.8013 33.6185 52.5974 33.3483C52.3791 33.0592 52.1693 33.0534 51.5166 33.3189C51.2161 33.4411 50.6857 33.5535 50.1567 33.6071C49.9181 33.6313 49.8879 33.7028 50.0382 33.8867C50.319 34.2306 50.0854 34.1948 49.4781 33.8008C48.9914 33.4851 48.9784 33.4851 49.2243 33.8008C49.5201 34.1804 49.2564 34.2571 48.9003 33.8951C48.7136 33.7053 48.6317 33.7124 48.499 33.9309C48.3609 34.1581 48.2811 34.162 48.0343 33.9537C47.8186 33.772 47.7364 33.7652 47.7364 33.9295C47.7364 34.0628 47.639 34.0947 47.5001 34.0066C47.3703 33.9241 47.1057 33.8317 46.9121 33.801C46.3776 33.7164 45.556 33.0582 44.7742 32.0888C44.2231 31.405 44.0643 31.0351 44.0426 30.3858C44.0206 29.7222 44.0753 29.5677 44.3164 29.613C44.4822 29.6444 45.2974 29.7314 46.1281 29.8065ZM37.4805 30.4755C36.47 30.6747 36.3857 30.8676 37.3092 30.8676H38.0968L38.119 31.8763L38.1411 32.8849L38.3091 31.8571C38.5257 30.5324 38.9319 29.8057 38.7548 31.0597C38.4648 33.1136 38.4494 33.7107 38.6822 33.8571C38.844 33.9587 38.8814 33.9101 38.8024 33.7011C38.6533 33.3057 38.998 30.8353 39.2362 30.5933C39.3551 30.4724 39.4199 30.4918 39.4199 30.6484C39.4199 30.7814 39.4972 30.8417 39.5919 30.7823C39.8805 30.6009 40.3476 30.8822 40.2383 31.1718C40.1818 31.3214 40.2296 31.444 40.3448 31.444C40.4599 31.444 40.554 31.7518 40.554 32.1278C40.554 32.5038 40.6294 32.7643 40.7214 32.7064C40.8135 32.6486 40.928 32.8098 40.9759 33.0646C41.0709 33.5697 40.7536 33.742 39.7191 33.7468C39.416 33.7483 39.2317 33.8142 39.3097 33.8936C39.3876 33.9729 39.8645 34.0377 40.3693 34.0377C41.2794 34.0377 41.2892 34.031 41.4973 33.2692C41.6126 32.8465 41.7311 32.2651 41.7603 31.9773C41.8054 31.5335 42.552 30.6755 42.8932 30.6755C43.047 30.6755 42.7873 31.326 42.576 31.4701C42.4775 31.5374 42.3982 31.84 42.3997 32.1426C42.4012 32.4452 42.3341 32.7793 42.2504 32.8849C42.1666 32.9906 42.0808 33.1635 42.0595 33.2692C42.0383 33.3748 41.9402 33.6769 41.8415 33.9403C41.6911 34.3426 41.7419 34.4888 42.1583 34.8529C42.4311 35.0915 42.5879 35.2865 42.507 35.2865C42.4261 35.2865 42.549 35.4212 42.78 35.5856C43.2646 35.9307 43.3387 36.4392 42.9041 36.4392C42.439 36.4392 41.84 36.0485 41.9243 35.8C41.9665 35.6761 41.8508 35.4287 41.6671 35.2502C41.3955 34.9864 41.3223 34.9764 41.2743 35.1972C41.2333 35.3866 41.1305 35.4144 40.9335 35.2894C40.7192 35.1533 40.7044 35.0567 40.8715 34.8869C41.3136 34.4375 40.9564 34.1802 40.1189 34.3451C38.6215 34.6398 38.3601 34.58 38.1435 33.8936L37.9464 33.2692L37.9269 33.8456C37.9092 34.3679 36.9628 35.8229 36.9628 35.3278C36.9628 35.2118 37.0478 35.0636 37.1518 34.9983C37.2557 34.933 37.3348 34.7334 37.3276 34.5547C37.316 34.2755 37.2962 34.2717 37.1858 34.5268C37.1151 34.6901 36.8021 35.1899 36.4903 35.6371C36.0516 36.2663 35.8255 36.4331 35.4913 36.3741C35.2116 36.3247 34.9942 36.4214 34.8748 36.6483C34.6996 36.9812 34.7345 36.9851 35.5815 36.7259C36.0716 36.576 36.5179 36.4994 36.573 36.5555C36.7038 36.6882 35.7845 37.3949 35.6176 37.29C35.5475 37.246 35.4416 37.3392 35.3819 37.4971C35.3224 37.655 35.1171 37.7841 34.9258 37.7841C34.7343 37.7841 34.4128 37.9111 34.211 38.0661C34.0093 38.2214 33.6506 38.3511 33.4141 38.3543C32.9629 38.3609 32.5422 39.0954 32.7201 39.5663C32.7717 39.7031 32.663 39.9847 32.4785 40.1924C32.294 40.4001 32.1383 40.6564 32.1324 40.762C32.0961 41.4245 31.7809 42.0109 31.4611 42.0109C31.0044 42.0109 31.0101 41.954 31.5635 40.9884C31.8166 40.5469 32.1275 39.7534 32.2545 39.225C32.4207 38.5346 32.6898 38.0702 33.2121 37.5735C33.9227 36.8975 33.9386 36.8529 33.9386 35.5176C33.9386 33.0411 34.5068 31.4309 35.6397 30.6968C36.0529 30.4292 36.0351 30.4816 35.4979 31.1162C35.1602 31.5151 34.8871 31.9898 34.891 32.1712C34.8952 32.3524 35.0211 32.2136 35.1711 31.8626C35.321 31.5118 35.51 31.2665 35.5909 31.3174C35.7924 31.4438 36.2973 31.0378 36.4489 30.6275C36.5424 30.3739 36.7717 30.2966 37.3822 30.3133L38.1914 30.3354L37.4805 30.4755ZM52.4617 30.492C52.4617 30.8182 51.5485 31.6521 51.4212 31.4425C51.3575 31.3376 51.3975 31.2519 51.5102 31.2519C51.6228 31.2519 51.7958 31.0357 51.8946 30.7716C52.0725 30.2962 52.4617 30.1045 52.4617 30.492ZM41.2718 31.5082C41.1756 32.1679 40.8375 32.0559 40.8375 31.3643C40.8375 30.8482 40.8899 30.7523 41.0828 30.9153C41.2178 31.029 41.3028 31.2959 41.2718 31.5082ZM41.7826 30.8676C41.8468 30.9733 41.8143 31.0597 41.7104 31.0597C41.6064 31.0597 41.4688 30.9733 41.4045 30.8676C41.3403 30.7619 41.3728 30.6755 41.4767 30.6755C41.5807 30.6755 41.7183 30.7619 41.7826 30.8676ZM50.4627 31.6841C50.5423 32.1389 50.5158 32.4046 50.391 32.4046C50.2824 32.4046 50.1935 32.1524 50.1935 31.844C50.1935 31.5356 50.1385 31.1249 50.0712 30.9314C49.9883 30.6926 50.0113 30.6413 50.1429 30.7716C50.2495 30.8772 50.3933 31.288 50.4627 31.6841ZM51.7056 30.8676C51.7056 30.9733 51.6206 31.0597 51.5166 31.0597C51.4126 31.0597 51.3276 30.9733 51.3276 30.8676C51.3276 30.7619 51.4126 30.6755 51.5166 30.6755C51.6206 30.6755 51.7056 30.7619 51.7056 30.8676ZM46.1124 34.2369C47.2136 35.7729 48.1144 37.1213 48.1144 37.2333C48.1144 37.3451 47.2548 36.2396 46.2043 34.7766C43.9711 31.6665 43.9424 31.6319 44.0913 32.2329C44.1541 32.4859 44.3242 32.7647 44.4693 32.8525C44.6744 32.9766 44.6837 33.0726 44.5105 33.2847C44.351 33.4799 44.3482 33.5574 44.5002 33.5574C44.7631 33.5574 44.7818 34.2596 44.5232 34.4219C44.4193 34.4872 44.3342 34.449 44.3342 34.3372C44.3342 33.9841 43.987 34.1168 43.8617 34.518C43.7116 34.9987 43.4804 35.0037 42.9873 34.5366C42.6161 34.1852 42.6146 34.1624 42.948 33.9491C43.1941 33.7916 43.2258 33.6978 43.0572 33.626C42.724 33.4836 42.9593 33.1731 43.4003 33.1731C43.6797 33.1731 43.7672 33.0394 43.7672 32.6125C43.7672 32.088 43.925 31.444 44.0535 31.444C44.0847 31.444 45.0112 32.7007 46.1124 34.2369ZM55.4798 32.464C55.4739 32.8711 55.4648 32.873 55.2023 32.5205C55.053 32.3199 54.9766 32.0807 55.0324 31.9889C55.201 31.7118 55.4862 32.0146 55.4798 32.464ZM30.454 32.2688C30.5251 32.4582 30.6307 32.5648 30.689 32.5057C30.7472 32.4467 30.6891 32.2916 30.5599 32.1612C30.3731 31.9729 30.3516 31.995 30.454 32.2688ZM39.2309 32.4893C39.2309 33.078 39.3386 33.1257 39.4745 32.5969C39.529 32.3858 39.4963 32.1645 39.4022 32.1053C39.308 32.0461 39.2309 32.219 39.2309 32.4893ZM34.5355 33.5574C34.5355 33.8215 34.5784 33.9297 34.6308 33.7975C34.6833 33.6655 34.6833 33.4494 34.6308 33.3172C34.5784 33.1852 34.5355 33.2932 34.5355 33.5574ZM55.5518 33.4552C55.6104 33.6102 55.5756 33.7891 55.4745 33.8527C55.3734 33.9163 55.3359 34.0427 55.3913 34.1337C55.5741 34.4344 55.1554 34.5197 54.919 34.23C54.7326 34.0018 54.7445 33.9237 54.98 33.8319C55.1411 33.7691 55.2267 33.5952 55.1702 33.4454C55.1137 33.2957 55.1524 33.1731 55.2564 33.1731C55.3603 33.1731 55.4934 33.3001 55.5518 33.4552ZM37.5597 34.1337C37.5597 34.3979 37.6026 34.5061 37.6549 34.3739C37.7075 34.2419 37.7075 34.0258 37.6549 33.8936C37.6026 33.7616 37.5597 33.8696 37.5597 34.1337ZM34.3316 34.8221C34.3406 35.0459 34.3854 35.0915 34.4457 34.9384C34.5003 34.7996 34.4935 34.6338 34.4308 34.5701C34.368 34.5063 34.3234 34.6196 34.3316 34.8221ZM40.554 34.8025C40.554 35.1109 39.8554 35.3505 38.9563 35.3505C38.6455 35.3505 38.224 35.509 38.0195 35.7028C37.8148 35.8965 37.5572 36.0523 37.4468 36.0492C37.3366 36.046 37.3998 35.9526 37.5875 35.8415C37.7751 35.7305 38.005 35.436 38.0982 35.1872C38.2647 34.7418 38.4749 34.6759 40.1287 34.5503C40.3926 34.5303 40.554 34.626 40.554 34.8025ZM29.1188 36.4392C29.1831 36.5449 29.1455 36.6314 29.0355 36.6314C28.9255 36.6314 28.8353 36.5449 28.8353 36.4392C28.8353 36.3336 28.8727 36.2471 28.9187 36.2471C28.9646 36.2471 29.0546 36.3336 29.1188 36.4392ZM54.4463 36.6314C54.5105 36.737 54.4729 36.8235 54.3629 36.8235C54.2529 36.8235 54.1628 36.737 54.1628 36.6314C54.1628 36.5257 54.2002 36.4392 54.2461 36.4392C54.292 36.4392 54.382 36.5257 54.4463 36.6314ZM48.7192 37.2462C48.5429 37.4254 48.4924 37.3743 48.4924 37.0156C48.4924 36.6569 48.5429 36.6058 48.7192 36.7851C48.8956 36.9643 48.8956 37.0669 48.7192 37.2462ZM39.3681 37.4479C39.3222 37.5801 39.1394 37.6752 38.9618 37.6592C38.7841 37.6433 38.6862 37.6786 38.7442 37.7376C38.8769 37.8725 38.4896 38.3605 38.2498 38.3605C38.1515 38.3605 38.2528 38.1011 38.4749 37.7841C38.8693 37.221 39.5335 36.971 39.3681 37.4479ZM49.3995 37.8458C49.6635 38.5878 49.6877 38.9369 49.4755 38.9369C49.3177 38.9369 48.8705 37.8264 48.8705 37.4342C48.8705 36.9831 49.1776 37.2221 49.3995 37.8458ZM54.6043 37.3518C54.6515 37.4312 54.5759 37.6031 54.4364 37.7342C54.1588 37.9949 53.8673 37.7301 54.0682 37.3999C54.2062 37.173 54.4829 37.1482 54.6043 37.3518ZM44.2403 38.1693C44.4588 38.5286 44.0155 38.3613 43.6547 37.9482C43.2971 37.539 43.2975 37.5376 43.7093 37.7572C43.9375 37.8788 44.1764 38.0642 44.2403 38.1693ZM48.9727 38.5655C49.1761 38.9 48.9445 38.9709 48.6852 38.6533C48.5361 38.4708 48.5217 38.3605 48.6472 38.3605C48.7576 38.3605 48.9043 38.4527 48.9727 38.5655ZM50.2342 39.0016C50.1948 39.3691 50.2523 39.4783 50.4455 39.403C50.611 39.3382 50.8621 39.5603 51.114 39.9943C51.3357 40.3765 51.4385 40.6397 51.3421 40.5791C51.2459 40.5186 51.1386 40.6205 51.1034 40.8055C51.0524 41.0746 50.8785 40.978 50.2319 40.3207C49.4927 39.5693 49.4496 39.4735 49.7252 39.1933C49.8907 39.025 49.9788 38.7616 49.9208 38.6079C49.8563 38.4373 49.9076 38.3613 50.0516 38.4126C50.1816 38.4589 50.2638 38.724 50.2342 39.0016ZM31.1035 39.1517C31.1035 39.363 31.0184 39.4825 30.9144 39.4172C30.8105 39.3519 30.7254 39.1255 30.7254 38.9142C30.7254 38.7029 30.8105 38.5834 30.9144 38.6487C31.0184 38.714 31.1035 38.9403 31.1035 39.1517ZM47.0388 38.8888C47.0832 38.9682 47.0096 39.3355 46.8753 39.7054C46.6152 40.4218 46.5968 40.4243 46.5237 39.7534C46.4978 39.5155 46.5447 39.3211 46.628 39.3211C46.7114 39.3211 46.7305 39.1914 46.6707 39.0329C46.5617 38.7444 46.8866 38.6174 47.0388 38.8888ZM45.5391 39.5373C45.6042 39.8675 45.6573 40.3465 45.6573 40.6016C45.6573 40.857 45.8349 41.31 46.0521 41.6086L46.447 42.1515L46.0548 42.9327C45.8391 43.3623 45.5552 43.7757 45.4237 43.8512C45.2324 43.9611 45.2318 43.9369 45.421 43.7298C45.8234 43.2891 45.6813 43.1035 45.1914 43.4297C44.5092 43.8841 44.3954 43.8084 44.9606 43.276C45.7712 42.5123 45.8964 41.2623 45.1124 41.7601C44.9039 41.8925 44.5257 41.9194 44.1287 41.8301L43.4837 41.685L44.1297 41.5036C44.8844 41.2917 45.2093 40.8658 45.0056 40.3559C44.8657 40.006 44.8551 40.0068 44.6979 40.3778C44.5627 40.6965 44.5419 40.6656 44.5763 40.1968C44.6168 39.6441 44.5964 39.6308 43.6727 39.6031C42.0831 39.5557 41.8771 39.5209 41.8771 39.3004C41.8771 39.1786 42.0591 39.1294 42.3023 39.1855C42.5363 39.2395 43.1104 39.2164 43.5782 39.1342C45.2418 38.8423 45.4091 38.8767 45.5391 39.5373ZM50.3825 39.8014C50.2468 39.9676 50.2285 40.0896 50.3393 40.0896C50.4447 40.0896 50.5801 39.9599 50.64 39.8014C50.6997 39.6429 50.7192 39.5132 50.6833 39.5132C50.6473 39.5132 50.512 39.6429 50.3825 39.8014ZM31.4815 40.0783C31.4815 40.1778 31.3964 40.3125 31.2925 40.3778C31.1885 40.4431 31.1035 40.3617 31.1035 40.197C31.1035 40.0324 31.1885 39.8975 31.2925 39.8975C31.3964 39.8975 31.4815 39.9788 31.4815 40.0783ZM37.9078 40.4739C37.9078 40.5795 37.6476 40.666 37.3297 40.666C36.9923 40.666 36.8 40.5859 36.8683 40.4739C36.9325 40.3682 37.1926 40.2817 37.4465 40.2817C37.7003 40.2817 37.9078 40.3682 37.9078 40.4739ZM40.5835 40.5371C40.6517 40.5551 40.4491 40.8725 40.1332 41.2424C39.8174 41.6122 39.6178 41.8068 39.6896 41.6746C39.7615 41.5427 39.7564 41.3294 39.6781 41.2009C39.5861 41.0491 39.418 41.2345 39.1995 41.7292C38.8372 42.549 38.7423 42.3042 39.0287 41.289C39.1935 40.7054 39.1748 40.666 38.734 40.666C38.4752 40.666 38.3085 40.592 38.3635 40.5015C38.4435 40.3699 40.0486 40.3957 40.5835 40.5371ZM44.2777 40.5953C44.0734 40.8032 42.4171 40.866 42.5414 40.6612C42.6042 40.5582 43.0472 40.4739 43.5264 40.4739C44.0053 40.4739 44.3435 40.5286 44.2777 40.5953ZM33.1826 40.7507C33.1826 40.7974 33.0975 40.8889 32.9936 40.9542C32.8896 41.0195 32.8045 40.9813 32.8045 40.8694C32.8045 40.7576 32.8896 40.666 32.9936 40.666C33.0975 40.666 33.1826 40.704 33.1826 40.7507ZM33.9386 40.8581C33.9386 40.9638 33.8059 41.0502 33.6439 41.0502C33.482 41.0502 33.4018 40.9638 33.4661 40.8581C33.5303 40.7524 33.6628 40.666 33.7608 40.666C33.8587 40.666 33.9386 40.7524 33.9386 40.8581ZM36.0177 40.8376C36.0177 41.0324 35.442 41.2977 35.3103 41.1636C35.2626 41.1154 35.2798 40.9836 35.3484 40.871C35.4993 40.6229 36.0177 40.597 36.0177 40.8376ZM34.8837 41.0502C34.8837 41.1559 34.7561 41.2424 34.6001 41.2424C34.4442 41.2424 34.3166 41.1559 34.3166 41.0502C34.3166 40.9446 34.4442 40.8581 34.6001 40.8581C34.7561 40.8581 34.8837 40.9446 34.8837 41.0502ZM34.8808 41.7707C34.8755 42.0337 34.5279 42.482 34.417 42.369C34.2681 42.2176 34.5053 41.6266 34.7149 41.6266C34.8077 41.6266 34.8823 41.6914 34.8808 41.7707ZM44.1452 42.3951C43.9953 42.4893 43.8301 42.5231 43.7781 42.4702C43.7261 42.4174 43.8063 42.2971 43.9562 42.203C44.1061 42.1088 44.2713 42.075 44.3232 42.1279C44.3752 42.1807 44.2951 42.301 44.1452 42.3951ZM32.2579 43.2024C32.4239 43.5177 32.4256 43.6443 32.2645 43.6989C31.9281 43.8128 32.0107 44.1237 32.3793 44.13C32.6836 44.1354 32.6821 44.1525 32.3611 44.3421C31.9171 44.6044 31.469 44.2522 31.8079 43.9077C31.9485 43.7648 31.9631 43.5365 31.8504 43.2353C31.6319 42.6512 31.9542 42.6253 32.2579 43.2024ZM34.5741 43.4518C34.6338 43.6103 34.6003 43.74 34.4998 43.74C34.399 43.74 34.3166 43.6103 34.3166 43.4518C34.3166 43.2933 34.3501 43.1636 34.3909 43.1636C34.4317 43.1636 34.5141 43.2933 34.5741 43.4518ZM36.4746 43.6164C36.409 43.7901 36.2786 43.9321 36.185 43.9321C36.0913 43.9321 36.1183 43.763 36.2453 43.5565C36.5127 43.1212 36.6481 43.1565 36.4746 43.6164ZM47.1635 44.3805C46.9815 44.5513 46.9546 44.5508 47.0503 44.3776C47.1191 44.253 47.089 44.0966 46.9834 44.0301C46.8777 43.9638 46.7913 43.7655 46.7913 43.5897C46.7913 43.3429 46.8607 43.3709 47.0968 43.7135C47.3415 44.0687 47.3548 44.2011 47.1635 44.3805ZM48.965 43.5479C48.9007 43.6535 48.7631 43.74 48.6591 43.74C48.5552 43.74 48.5227 43.6535 48.5869 43.5479C48.6512 43.4422 48.7888 43.3557 48.8928 43.3557C48.9967 43.3557 49.0292 43.4422 48.965 43.5479ZM38.7584 44.3164C38.8226 44.422 38.7425 44.5085 38.5805 44.5085C38.4185 44.5085 38.2859 44.422 38.2859 44.3164C38.2859 44.2107 38.3658 44.1242 38.4637 44.1242C38.5616 44.1242 38.6941 44.2107 38.7584 44.3164ZM41.4045 45.8534C41.4688 45.959 41.4363 46.0455 41.3323 46.0455C41.2284 46.0455 41.0908 45.959 41.0265 45.8534C40.9622 45.7477 40.9948 45.6612 41.0987 45.6612C41.2027 45.6612 41.3403 45.7477 41.4045 45.8534ZM49.0082 45.9694C48.9455 46.0332 48.7824 46.0401 48.6461 45.9846C48.4953 45.9233 48.5401 45.8778 48.7603 45.8685C48.9595 45.8603 49.071 45.9056 49.0082 45.9694ZM39.6736 46.3239C39.7439 46.51 39.6879 46.5669 39.5048 46.4954C39.2058 46.3788 39.1279 46.0455 39.3997 46.0455C39.4925 46.0455 39.6157 46.1707 39.6736 46.3239Z" fill="#282828"></path>
  <path d="M11.7832 58.6641H15.7032V64.0001H14.8872V59.4321H12.5992V64.0001H11.7832V58.6641Z" fill="black"></path>
  <path d="M17.2263 58.6641H18.4023C18.893 58.6641 19.2823 58.7601 19.5703 58.9521C19.7837 59.0961 19.9463 59.2854 20.0583 59.5201C20.1757 59.7494 20.2343 59.9921 20.2343 60.2481C20.2343 60.7281 20.061 61.1174 19.7143 61.4161C19.389 61.6934 18.9543 61.8321 18.4103 61.8321H18.0423V64.0001H17.2263V58.6641ZM18.0423 59.4161V61.0801H18.4103C18.7517 61.0801 19.0103 61.0054 19.1863 60.8561C19.3623 60.7014 19.4503 60.4961 19.4503 60.2401C19.4503 60.1494 19.437 60.0641 19.4103 59.9841C19.389 59.9041 19.3437 59.8187 19.2743 59.7281C19.2103 59.6321 19.1037 59.5574 18.9543 59.5041C18.805 59.4454 18.621 59.4161 18.4023 59.4161H18.0423Z" fill="black"></path>
  <path d="M24.7639 64.0001L24.2039 62.7121H21.9239L21.3399 64.0001H20.4599L23.1159 58.3521L25.6439 64.0001H24.7639ZM22.2599 61.9441H23.8759L23.0839 60.1361L22.2599 61.9441Z" fill="black"></path>
  <path d="M26.5579 58.6641H27.3659C27.7286 58.6641 28.0219 58.6934 28.2459 58.7521C28.4699 58.8107 28.6672 58.9201 28.8379 59.0801C29.1206 59.3467 29.2619 59.6987 29.2619 60.1361C29.2619 60.3867 29.2086 60.5974 29.1019 60.7681C29.0059 60.9334 28.8726 61.0561 28.7019 61.1361C28.9792 61.2054 29.2086 61.3334 29.3899 61.5201C29.6246 61.7654 29.7419 62.0987 29.7419 62.5201C29.7419 62.9094 29.6246 63.2294 29.3899 63.4801C29.0592 63.8267 28.5606 64.0001 27.8939 64.0001H26.5579V58.6641ZM27.3739 59.4321V60.9601H27.6219C27.9206 60.9601 28.1419 60.8907 28.2859 60.7521C28.4246 60.6187 28.4939 60.4161 28.4939 60.1441C28.4939 59.9254 28.4299 59.7547 28.3019 59.6321C28.1632 59.4987 27.9472 59.4321 27.6539 59.4321H27.3739ZM27.3739 61.6321V63.2321H27.8699C28.2379 63.2321 28.5072 63.1627 28.6779 63.0241C28.8539 62.8854 28.9419 62.6881 28.9419 62.4321C28.9419 62.2027 28.8699 62.0161 28.7259 61.8721C28.5606 61.7121 28.2806 61.6321 27.8859 61.6321H27.3739Z" fill="black"></path>
  <path d="M34.6088 64.0001V60.4081L31.0088 64.2401V58.6641H31.8248V62.2721L35.4248 58.4401V64.0001H34.6088Z" fill="black"></path>
  <path d="M39.6481 59.4321H38.4241V64.0001H37.6081V59.4321H36.3841V58.6641H39.6481V59.4321Z" fill="black"></path>
  <path d="M43.55 58.6641V59.4321H41.422V60.7841H43.486V61.5521H41.422V63.2321H43.55V64.0001H40.606V58.6641H43.55Z" fill="black"></path>
  <path d="M45.358 58.6641H48.766V64.0001H47.95V59.4321H46.174V62.0881C46.174 62.3441 46.166 62.5521 46.15 62.7121C46.134 62.8667 46.0833 63.0427 45.998 63.2401C45.918 63.4374 45.8007 63.6001 45.646 63.7281C45.3847 63.9414 45.062 64.0481 44.678 64.0481C44.566 64.0481 44.446 64.0321 44.318 64.0001V63.2481C44.4247 63.2801 44.5234 63.2961 44.614 63.2961C44.8114 63.2961 44.9714 63.2347 45.094 63.1121C45.1794 63.0321 45.2407 62.9121 45.278 62.7521C45.3207 62.5867 45.3447 62.4507 45.35 62.3441C45.3554 62.2374 45.358 62.0721 45.358 61.8481V58.6641Z" fill="black"></path>
  <path d="M50.2891 64.0001V58.6641H51.1051V60.8161H51.7131C52.2838 60.8161 52.7291 60.9574 53.0491 61.2401C53.3851 61.5334 53.5531 61.9254 53.5531 62.4161C53.5531 62.6721 53.4945 62.9174 53.3771 63.1521C53.2651 63.3814 53.1025 63.5681 52.8891 63.7121C52.6011 63.9041 52.2118 64.0001 51.7211 64.0001H50.2891ZM51.1051 61.5841V63.2321H51.6811C52.3958 63.2321 52.7531 62.9627 52.7531 62.4241C52.7531 62.1894 52.6731 61.9921 52.5131 61.8321C52.3585 61.6667 52.0865 61.5841 51.6971 61.5841H51.1051Z" fill="black"></path>
  <path d="M58.5749 58.9521V59.9121C58.1376 59.5174 57.6549 59.3201 57.1269 59.3201C56.5509 59.3201 56.0816 59.5121 55.7189 59.8961C55.3616 60.2747 55.1829 60.7601 55.1829 61.3521C55.1829 61.9227 55.3669 62.4001 55.7349 62.7841C56.1029 63.1627 56.5696 63.3521 57.1349 63.3521C57.6629 63.3521 58.1429 63.1467 58.5749 62.7361V63.7041C58.1269 63.9707 57.6389 64.1041 57.1109 64.1041C56.3696 64.1041 55.7402 63.8587 55.2229 63.3681C54.6522 62.8347 54.3669 62.1627 54.3669 61.3521C54.3669 60.4987 54.6522 59.8027 55.2229 59.2641C55.7136 58.8001 56.3562 58.5681 57.1509 58.5681C57.7002 58.5681 58.1749 58.6961 58.5749 58.9521Z" fill="black"></path>
  <path d="M62.5278 59.4321H61.3038V64.0001H60.4878V59.4321H59.2638V58.6641H62.5278V59.4321Z" fill="black"></path>
  <path d="M63.4857 58.6641H64.2937C64.6564 58.6641 64.9497 58.6934 65.1737 58.7521C65.3977 58.8107 65.595 58.9201 65.7657 59.0801C66.0484 59.3467 66.1897 59.6987 66.1897 60.1361C66.1897 60.3867 66.1364 60.5974 66.0297 60.7681C65.9337 60.9334 65.8004 61.0561 65.6297 61.1361C65.907 61.2054 66.1364 61.3334 66.3177 61.5201C66.5524 61.7654 66.6697 62.0987 66.6697 62.5201C66.6697 62.9094 66.5524 63.2294 66.3177 63.4801C65.987 63.8267 65.4884 64.0001 64.8217 64.0001H63.4857V58.6641ZM64.3017 59.4321V60.9601H64.5497C64.8484 60.9601 65.0697 60.8907 65.2137 60.7521C65.3524 60.6187 65.4217 60.4161 65.4217 60.1441C65.4217 59.9254 65.3577 59.7547 65.2297 59.6321C65.091 59.4987 64.875 59.4321 64.5817 59.4321H64.3017ZM64.3017 61.6321V63.2321H64.7977C65.1657 63.2321 65.435 63.1627 65.6057 63.0241C65.7817 62.8854 65.8697 62.6881 65.8697 62.4321C65.8697 62.2027 65.7977 62.0161 65.6537 61.8721C65.4884 61.7121 65.2084 61.6321 64.8137 61.6321H64.3017Z" fill="black"></path>
  <path d="M68.4726 59.3601C69.0006 58.8321 69.662 58.5681 70.4566 58.5681C71.2513 58.5681 71.9126 58.8321 72.4406 59.3601C72.9686 59.8881 73.2326 60.5467 73.2326 61.3361C73.2326 62.1254 72.9686 62.7841 72.4406 63.3121C71.9126 63.8401 71.2513 64.1041 70.4566 64.1041C69.662 64.1041 69.0006 63.8401 68.4726 63.3121C67.9446 62.7841 67.6806 62.1254 67.6806 61.3361C67.6806 60.5467 67.9446 59.8881 68.4726 59.3601ZM69.0486 62.7921C69.4166 63.1654 69.886 63.3521 70.4566 63.3521C71.0273 63.3521 71.4966 63.1654 71.8646 62.7921C72.2326 62.4134 72.4166 61.9281 72.4166 61.3361C72.4166 60.7441 72.2326 60.2614 71.8646 59.8881C71.4966 59.5094 71.0273 59.3201 70.4566 59.3201C69.886 59.3201 69.4166 59.5094 69.0486 59.8881C68.6806 60.2614 68.4966 60.7441 68.4966 61.3361C68.4966 61.9281 68.6806 62.4134 69.0486 62.7921Z" fill="black"></path>
  <path d="M26.755 71.0001H25.923L27.043 65.2641L28.899 69.4081L30.771 65.2641L31.779 71.0001H30.947L30.403 67.7841L28.851 71.2481L27.315 67.7761L26.755 71.0001Z" fill="black"></path>
  <path d="M33.6715 66.3601C34.1995 65.8321 34.8609 65.5681 35.6555 65.5681C36.4502 65.5681 37.1115 65.8321 37.6395 66.3601C38.1675 66.8881 38.4315 67.5467 38.4315 68.3361C38.4315 69.1254 38.1675 69.7841 37.6395 70.3121C37.1115 70.8401 36.4502 71.1041 35.6555 71.1041C34.8609 71.1041 34.1995 70.8401 33.6715 70.3121C33.1435 69.7841 32.8795 69.1254 32.8795 68.3361C32.8795 67.5467 33.1435 66.8881 33.6715 66.3601ZM34.2475 69.7921C34.6155 70.1654 35.0849 70.3521 35.6555 70.3521C36.2262 70.3521 36.6955 70.1654 37.0635 69.7921C37.4315 69.4134 37.6155 68.9281 37.6155 68.3361C37.6155 67.7441 37.4315 67.2614 37.0635 66.8881C36.6955 66.5094 36.2262 66.3201 35.6555 66.3201C35.0849 66.3201 34.6155 66.5094 34.2475 66.8881C33.8795 67.2614 33.6955 67.7441 33.6955 68.3361C33.6955 68.9281 33.8795 69.4134 34.2475 69.7921Z" fill="black"></path>
  <path d="M43.6479 65.9521V66.9121C43.2105 66.5174 42.7279 66.3201 42.1999 66.3201C41.6239 66.3201 41.1545 66.5121 40.7919 66.8961C40.4345 67.2747 40.2559 67.7601 40.2559 68.3521C40.2559 68.9227 40.4399 69.4001 40.8079 69.7841C41.1759 70.1627 41.6425 70.3521 42.2079 70.3521C42.7359 70.3521 43.2159 70.1467 43.6479 69.7361V70.7041C43.1999 70.9707 42.7119 71.1041 42.1839 71.1041C41.4425 71.1041 40.8132 70.8587 40.2959 70.3681C39.7252 69.8347 39.4399 69.1627 39.4399 68.3521C39.4399 67.4987 39.7252 66.8027 40.2959 66.2641C40.7865 65.8001 41.4292 65.5681 42.2239 65.5681C42.7732 65.5681 43.2479 65.6961 43.6479 65.9521Z" fill="black"></path>
  <path d="M45.7128 65.6641V67.7921L47.7768 65.6641H48.8488L46.4408 68.0801L48.8648 71.0001H47.7768L45.8728 68.6321L45.7128 68.7921V71.0001H44.8968V65.6641H45.7128Z" fill="black"></path>
  <path d="M49.8243 65.6641H50.6323C50.995 65.6641 51.2883 65.6934 51.5123 65.7521C51.7363 65.8107 51.9336 65.9201 52.1043 66.0801C52.387 66.3467 52.5283 66.6987 52.5283 67.1361C52.5283 67.3867 52.475 67.5974 52.3683 67.7681C52.2723 67.9334 52.139 68.0561 51.9683 68.1361C52.2456 68.2054 52.475 68.3334 52.6563 68.5201C52.891 68.7654 53.0083 69.0987 53.0083 69.5201C53.0083 69.9094 52.891 70.2294 52.6563 70.4801C52.3256 70.8267 51.827 71.0001 51.1603 71.0001H49.8243V65.6641ZM50.6403 66.4321V67.9601H50.8883C51.187 67.9601 51.4083 67.8907 51.5523 67.7521C51.691 67.6187 51.7603 67.4161 51.7603 67.1441C51.7603 66.9254 51.6963 66.7547 51.5683 66.6321C51.4296 66.4987 51.2136 66.4321 50.9203 66.4321H50.6403ZM50.6403 68.6321V70.2321H51.1363C51.5043 70.2321 51.7736 70.1627 51.9443 70.0241C52.1203 69.8854 52.2083 69.6881 52.2083 69.4321C52.2083 69.2027 52.1363 69.0161 51.9923 68.8721C51.827 68.7121 51.547 68.6321 51.1523 68.6321H50.6403Z" fill="black"></path>
  <path d="M54.2752 71.0001V65.6641H55.0912V67.8161H55.6992C56.2699 67.8161 56.7152 67.9574 57.0352 68.2401C57.3712 68.5334 57.5392 68.9254 57.5392 69.4161C57.5392 69.6721 57.4806 69.9174 57.3632 70.1521C57.2512 70.3814 57.0886 70.5681 56.8752 70.7121C56.5872 70.9041 56.1979 71.0001 55.7072 71.0001H54.2752ZM55.0912 68.5841V70.2321H55.6672C56.3819 70.2321 56.7392 69.9627 56.7392 69.4241C56.7392 69.1894 56.6592 68.9921 56.4992 68.8321C56.3446 68.6667 56.0726 68.5841 55.6832 68.5841H55.0912ZM58.0992 65.6641H58.9152V71.0001H58.0992V65.6641Z" fill="black"></path>
</svg>
