<?xml version="1.0" encoding="UTF-8"?>
<svg xmlns="http://www.w3.org/2000/svg" width="143" height="85" fill="none">
  <path d="M111.169 17H36.1904L32.9644 31.9333H108.099L111.169 17Z" fill="#EEEEEE"></path>
  <path d="M39.3122 28.8635C39.2082 29.2798 38.948 29.54 38.5317 29.4879C38.1155 29.4879 37.9594 29.2798 38.0634 28.8115L39.7805 20.8505C39.8326 20.6424 39.9366 20.4343 40.0407 20.3302C40.1968 20.2261 40.3529 20.1221 40.509 20.1221H43.3187C44.5675 20.1221 45.4521 20.3302 45.9724 20.6424C46.4407 21.0066 46.6488 21.579 46.4407 22.3595C46.2846 23.14 45.8683 23.7643 45.296 24.1806C44.7236 24.5969 43.9431 24.805 43.0065 24.805H40.1447L39.3122 28.8635ZM42.5903 23.6603C43.5789 23.6603 44.2553 23.6082 44.5675 23.4522C44.8797 23.2961 45.0878 22.9839 45.1919 22.5156C45.2439 22.2034 45.2439 21.9432 45.1399 21.7871C45.0358 21.631 44.8277 21.5269 44.5155 21.4749C44.2033 21.4229 43.735 21.3708 43.0586 21.3708H40.8732L40.3529 23.6603H42.5903Z" fill="black"></path>
  <path d="M39.3122 28.8635C39.2082 29.2798 38.948 29.54 38.5317 29.4879C38.1155 29.4879 37.9594 29.2798 38.0634 28.8115L39.7805 20.8505C39.8326 20.6424 39.9366 20.4343 40.0407 20.3302C40.1968 20.2261 40.3529 20.1221 40.509 20.1221H43.3187C44.5675 20.1221 45.4521 20.3302 45.9724 20.6424C46.4407 21.0066 46.6488 21.579 46.4407 22.3595C46.2846 23.14 45.8683 23.7643 45.296 24.1806C44.7236 24.5969 43.9431 24.805 43.0065 24.805H40.1447L39.3122 28.8635ZM42.5903 23.6603C43.5789 23.6603 44.2553 23.6082 44.5675 23.4522C44.8797 23.2961 45.0878 22.9839 45.1919 22.5156C45.2439 22.2034 45.2439 21.9432 45.1399 21.7871C45.0358 21.631 44.8277 21.5269 44.5155 21.4749C44.2033 21.4229 43.735 21.3708 43.0586 21.3708H40.8732L40.3529 23.6603H42.5903Z" fill="black"></path>
  <path d="M38.5838 29.644C38.5317 29.644 38.5317 29.644 38.5838 29.644C38.3236 29.644 38.1675 29.592 38.0634 29.4359C37.9594 29.2798 37.9073 29.1237 37.9594 28.8635L39.6765 20.9026C39.7285 20.6424 39.8325 20.4343 39.9886 20.3302C40.1447 20.1741 40.3008 20.1221 40.561 20.1221H43.3708C44.6716 20.1221 45.5561 20.3302 46.0765 20.6944C46.5968 21.0587 46.8049 21.683 46.5968 22.5156C46.4407 23.3481 46.0244 23.9725 45.4 24.3887C44.7756 24.805 43.9952 25.0131 43.0586 25.0131H40.2488L39.4163 28.9156C39.3122 29.3839 39 29.644 38.5838 29.644ZM40.509 20.2782C40.3529 20.2782 40.2488 20.3302 40.0927 20.4343C39.9886 20.5383 39.8846 20.6944 39.8325 20.9026L38.1155 28.8635C38.0634 29.0717 38.0634 29.1757 38.1675 29.2798C38.2195 29.3318 38.3236 29.3839 38.4797 29.3839C38.8439 29.3839 39.0521 29.2278 39.1561 28.8115L40.0407 24.7009H43.0065C43.9431 24.7009 44.6716 24.4928 45.2439 24.1286C45.8163 23.7123 46.1805 23.14 46.3366 22.3595C46.4927 21.631 46.3366 21.1107 45.9204 20.7465C45.4521 20.3822 44.5675 20.2261 43.3708 20.2261L40.509 20.2782ZM42.7464 23.7643C42.6943 23.7643 42.6423 23.7643 42.5903 23.7643H40.3008L40.8212 21.2148H43.1106C43.787 21.2148 44.2553 21.2668 44.5675 21.3188C44.9317 21.3709 45.1399 21.5269 45.2439 21.683C45.348 21.8912 45.348 22.1513 45.296 22.4635C45.1919 22.9839 44.9317 23.2961 44.6195 23.4522C44.3073 23.7123 43.683 23.7643 42.7464 23.7643ZM40.561 23.5562H42.5903C43.5789 23.5562 44.2033 23.5042 44.5155 23.3481C44.8277 23.244 44.9838 22.9318 45.0878 22.5156C45.1399 22.2034 45.1399 21.9952 45.0878 21.8912C45.0358 21.7351 44.8277 21.683 44.5675 21.631C44.2553 21.579 43.787 21.5269 43.1106 21.5269H41.0293L40.561 23.5562Z" fill="white"></path>
  <path d="M54.6099 26.1058C54.4538 26.7822 54.1937 27.4066 53.7254 27.9269C53.3091 28.4472 52.7888 28.8635 52.1124 29.1237C51.488 29.3838 50.7595 29.5399 49.979 29.5399C49.1985 29.5399 48.5742 29.3838 48.0538 29.1237C47.5335 28.8635 47.1693 28.4472 46.9611 27.9269C46.753 27.4066 46.753 26.7822 46.9091 26.1058L47.4294 23.6082C47.5855 22.9318 47.8457 22.3074 48.314 21.7871C48.7303 21.2668 49.2506 20.8505 49.927 20.5903C50.5514 20.3302 51.2799 20.1741 52.0603 20.1741C52.8408 20.1741 53.4652 20.3302 53.9855 20.5903C54.5059 20.8505 54.8701 21.2668 55.0782 21.7871C55.2864 22.3074 55.2864 22.9318 55.1303 23.6082L54.6099 26.1058ZM51.8002 21.3188C50.9677 21.3188 50.2912 21.5269 49.7709 21.8911C49.2506 22.3074 48.8864 22.8798 48.7303 23.6082L48.2099 26.0017C48.0538 26.7822 48.1579 27.3546 48.4701 27.7188C48.8343 28.135 49.4067 28.2911 50.2392 28.3432C51.0717 28.3432 51.7481 28.135 52.2685 27.7708C52.7888 27.3546 53.153 26.7822 53.3091 26.0537L53.8294 23.6603C53.9855 22.9318 53.8815 22.3594 53.5693 21.9432C53.2571 21.5269 52.6327 21.3188 51.8002 21.3188Z" fill="black"></path>
  <path d="M54.6099 26.1058C54.4538 26.7822 54.1937 27.4066 53.7254 27.9269C53.3091 28.4472 52.7888 28.8635 52.1124 29.1237C51.488 29.3838 50.7595 29.5399 49.979 29.5399C49.1985 29.5399 48.5742 29.3838 48.0538 29.1237C47.5335 28.8635 47.1693 28.4472 46.9611 27.9269C46.753 27.4066 46.753 26.7822 46.9091 26.1058L47.4294 23.6082C47.5855 22.9318 47.8457 22.3074 48.314 21.7871C48.7303 21.2668 49.2506 20.8505 49.927 20.5903C50.5514 20.3302 51.2799 20.1741 52.0603 20.1741C52.8408 20.1741 53.4652 20.3302 53.9855 20.5903C54.5059 20.8505 54.8701 21.2668 55.0782 21.7871C55.2864 22.3074 55.2864 22.9318 55.1303 23.6082L54.6099 26.1058ZM51.8002 21.3188C50.9677 21.3188 50.2912 21.5269 49.7709 21.8911C49.2506 22.3074 48.8864 22.8798 48.7303 23.6082L48.2099 26.0017C48.0538 26.7822 48.1579 27.3546 48.4701 27.7188C48.8343 28.135 49.4067 28.2911 50.2392 28.3432C51.0717 28.3432 51.7481 28.135 52.2685 27.7708C52.7888 27.3546 53.153 26.7822 53.3091 26.0537L53.8294 23.6603C53.9855 22.9318 53.8815 22.3594 53.5693 21.9432C53.2571 21.5269 52.6327 21.3188 51.8002 21.3188Z" fill="black"></path>
  <path d="M50.0829 29.6958H50.0309C49.2504 29.6958 48.5739 29.5397 48.0536 29.2275C47.5333 28.9154 47.117 28.4991 46.9089 27.9788C46.7008 27.4584 46.7008 26.782 46.8569 26.1056L47.3772 23.608C47.5333 22.8796 47.8455 22.2552 48.2617 21.7349C48.678 21.2145 49.2504 20.7983 49.8748 20.4861C50.4992 20.1739 51.2796 20.0698 52.0081 20.0698C52.7886 20.0698 53.465 20.2259 53.9853 20.5381C54.5057 20.8503 54.9219 21.2666 55.13 21.7869C55.3382 22.3072 55.3382 22.9836 55.1821 23.6601L54.6618 26.1576C54.5057 26.8861 54.1935 27.5105 53.7772 28.0308C53.3609 28.5511 52.7886 28.9674 52.1642 29.2796C51.5398 29.5397 50.8634 29.6958 50.0829 29.6958ZM52.0081 20.278C51.2796 20.278 50.6032 20.4341 49.9788 20.6942C49.3544 20.9544 48.8341 21.3706 48.4178 21.891C48.0016 22.4113 47.7414 22.9836 47.5853 23.6601L47.065 26.1576C46.9089 26.8341 46.9609 27.4064 47.117 27.9267C47.3252 28.4471 47.6374 28.8113 48.1577 29.0715C48.678 29.3316 49.3024 29.4877 50.0309 29.4877C50.8113 29.4877 51.4878 29.3316 52.1122 29.0715C52.7366 28.8113 53.2569 28.395 53.6731 27.8747C54.0894 27.3544 54.3496 26.782 54.5057 26.1056L55.026 23.608C55.1821 22.9316 55.13 22.3593 54.9739 21.8389C54.7658 21.3186 54.4536 20.9544 53.9333 20.6942C53.413 20.4341 52.7886 20.278 52.0601 20.278H52.0081ZM50.343 28.4991C50.291 28.4991 50.291 28.4991 50.343 28.4991C49.4065 28.4991 48.7821 28.291 48.4178 27.8747C48.0536 27.4584 47.9496 26.8341 48.1057 26.0536L48.626 23.6601C48.7821 22.8796 49.1463 22.2552 49.7187 21.891C50.239 21.4747 50.9674 21.2666 51.8 21.2666H51.852C52.7366 21.2666 53.3609 21.4747 53.7252 21.891C54.0894 22.3593 54.1935 22.9836 54.0374 23.7121L53.517 26.1056C53.3609 26.8861 52.9967 27.5105 52.4244 27.8747C51.852 28.291 51.1756 28.4991 50.343 28.4991ZM51.7479 21.4747C50.9674 21.4747 50.291 21.6828 49.8227 22.0471C49.3024 22.4113 48.9902 22.9836 48.8341 23.7121L48.3138 26.1056C48.1577 26.8341 48.2618 27.3544 48.5739 27.7186C48.8861 28.0828 49.4585 28.291 50.291 28.291C51.0715 28.291 51.7479 28.0828 52.2683 27.7186C52.7886 27.3544 53.1008 26.782 53.2569 26.0536L53.7772 23.6601C53.9333 22.9836 53.8292 22.4113 53.517 22.0471C53.2048 21.6308 52.6325 21.4747 51.7479 21.4747C51.8 21.4747 51.8 21.4747 51.7479 21.4747Z" fill="white"></path>
  <path d="M59.5531 29.4878C58.5644 29.4878 57.836 29.3837 57.3157 29.2276C56.7953 29.0715 56.4831 28.7593 56.327 28.3951C56.1709 28.0309 56.1709 27.4585 56.327 26.7821L57.1596 22.9837C57.3157 22.3073 57.5238 21.787 57.836 21.4228C58.1482 21.0585 58.5644 20.7463 59.1368 20.5902C59.7092 20.4341 60.3856 20.3301 61.2701 20.3301H63.6116C64.1839 20.3301 64.6002 20.4862 64.8083 20.7463C65.0165 21.0065 65.0685 21.4748 64.9644 22.0472C64.8604 22.5675 64.6002 22.8276 64.1839 22.8276C63.9758 22.8276 63.8718 22.7756 63.7677 22.6195C63.6636 22.4634 63.6636 22.3073 63.7157 22.0472C63.7677 21.787 63.7677 21.6309 63.7157 21.5789C63.6636 21.4748 63.5075 21.4748 63.2994 21.4748H61.062C60.3856 21.4748 59.8653 21.5268 59.5531 21.5789C59.2409 21.6309 58.9807 21.787 58.8246 21.9951C58.6685 22.2032 58.5124 22.5154 58.4083 22.9837L57.5758 26.7301C57.4718 27.1984 57.4718 27.5106 57.5238 27.7187C57.6278 27.9268 57.836 28.0829 58.1482 28.135C58.5124 28.187 59.0327 28.239 59.8132 28.239H61.7904C61.9986 28.239 62.1547 28.187 62.2587 28.135C62.3628 28.0309 62.4148 27.8748 62.4669 27.6667C62.5189 27.4065 62.623 27.2504 62.727 27.0943C62.8831 26.9382 63.0392 26.8862 63.2474 26.8862C63.6636 26.8862 63.8197 27.1463 63.7157 27.7187C63.6116 28.2911 63.3514 28.7593 62.9872 29.0195C62.623 29.2797 62.2067 29.4358 61.5823 29.4358L59.5531 29.4878Z" fill="black"></path>
  <path d="M59.5531 29.4878C58.5644 29.4878 57.836 29.3837 57.3157 29.2276C56.7953 29.0715 56.4831 28.7593 56.327 28.3951C56.1709 28.0309 56.1709 27.4585 56.327 26.7821L57.1596 22.9837C57.3157 22.3073 57.5238 21.787 57.836 21.4228C58.1482 21.0585 58.5644 20.7463 59.1368 20.5902C59.7092 20.4341 60.3856 20.3301 61.2701 20.3301H63.6116C64.1839 20.3301 64.6002 20.4862 64.8083 20.7463C65.0165 21.0065 65.0685 21.4748 64.9644 22.0472C64.8604 22.5675 64.6002 22.8276 64.1839 22.8276C63.9758 22.8276 63.8718 22.7756 63.7677 22.6195C63.6636 22.4634 63.6636 22.3073 63.7157 22.0472C63.7677 21.787 63.7677 21.6309 63.7157 21.5789C63.6636 21.4748 63.5075 21.4748 63.2994 21.4748H61.062C60.3856 21.4748 59.8653 21.5268 59.5531 21.5789C59.2409 21.6309 58.9807 21.787 58.8246 21.9951C58.6685 22.2032 58.5124 22.5154 58.4083 22.9837L57.5758 26.7301C57.4718 27.1984 57.4718 27.5106 57.5238 27.7187C57.6278 27.9268 57.836 28.0829 58.1482 28.135C58.5124 28.187 59.0327 28.239 59.8132 28.239H61.7904C61.9986 28.239 62.1547 28.187 62.2587 28.135C62.3628 28.0309 62.4148 27.8748 62.4669 27.6667C62.5189 27.4065 62.623 27.2504 62.727 27.0943C62.8831 26.9382 63.0392 26.8862 63.2474 26.8862C63.6636 26.8862 63.8197 27.1463 63.7157 27.7187C63.6116 28.2911 63.3514 28.7593 62.9872 29.0195C62.623 29.2797 62.2067 29.4358 61.5823 29.4358L59.5531 29.4878Z" fill="black"></path>
  <path d="M61.6339 29.5919H59.5005C58.5119 29.5919 57.7835 29.4879 57.2631 29.3318C56.7428 29.1757 56.3786 28.8635 56.1705 28.4472C56.0144 28.031 56.0144 27.4586 56.1184 26.7822L56.9509 22.9838C57.107 22.3074 57.3152 21.735 57.6794 21.3708C57.9916 20.9545 58.4599 20.6944 59.0322 20.4862C59.6046 20.3301 60.3331 20.2261 61.2176 20.2261H63.5591C64.1835 20.2261 64.5997 20.3822 64.8599 20.6944C65.1201 21.0066 65.1721 21.4749 65.016 22.0992C64.8599 22.8277 64.4436 22.9838 64.1314 22.9838C63.8713 22.9838 63.7152 22.8797 63.6111 22.7236C63.507 22.5675 63.507 22.3594 63.5591 22.0992C63.6111 21.8391 63.5591 21.735 63.5591 21.735C63.5591 21.735 63.455 21.683 63.1948 21.631H60.9574C60.281 21.631 59.7607 21.683 59.4485 21.735C59.1363 21.7871 58.9282 21.9431 58.7721 22.0992C58.616 22.3074 58.5119 22.6196 58.4079 23.0358L57.5753 26.7822C57.4713 27.1984 57.4713 27.5106 57.5233 27.7188C57.5753 27.8749 57.7835 28.031 58.0957 28.083C58.4079 28.135 58.9802 28.1871 59.7087 28.1871H61.6859C61.894 28.1871 62.0501 28.135 62.1022 28.083C62.1542 28.031 62.2062 27.9269 62.3103 27.6667C62.3623 27.4066 62.4664 27.1984 62.6225 27.0423C62.7786 26.8862 62.9867 26.8342 63.1948 26.8342C63.403 26.8342 63.5591 26.8862 63.6631 27.0423C63.7672 27.1984 63.8192 27.4586 63.7672 27.7708C63.6111 28.3952 63.403 28.8114 63.0388 29.1236C62.7266 29.4358 62.2583 29.5919 61.6339 29.5919ZM61.1135 20.4342C60.281 20.4342 59.6046 20.5383 59.0843 20.6944C58.564 20.8505 58.1477 21.1106 57.8355 21.4749C57.5233 21.8391 57.3152 22.3594 57.1591 23.0358L56.3266 26.8342C56.1705 27.5106 56.1705 27.9789 56.3266 28.3431C56.4826 28.7074 56.7948 28.9675 57.2631 29.1236C57.7835 29.2797 58.5119 29.3838 59.4485 29.3838H61.5298C62.1022 29.3838 62.5184 29.2277 62.8306 28.9675C63.1428 28.7074 63.3509 28.2911 63.507 27.7188C63.5591 27.4586 63.5591 27.2505 63.455 27.1464C63.403 27.0944 63.2989 27.0423 63.1428 27.0423C62.9867 27.0423 62.8306 27.0944 62.7266 27.1984C62.6225 27.3025 62.5184 27.4586 62.4664 27.7188C62.4144 27.9789 62.3103 28.135 62.2062 28.2391C62.1022 28.3431 61.894 28.3952 61.6859 28.3952H59.7087C58.9282 28.3952 58.3558 28.3431 58.0436 28.2911C57.6794 28.187 57.4192 28.031 57.3152 27.7708C57.2111 27.5627 57.2111 27.1984 57.3152 26.7301L58.1477 22.9838C58.2518 22.5155 58.4079 22.2033 58.564 21.9431C58.72 21.735 59.0322 21.5789 59.3965 21.4749C59.7607 21.4228 60.281 21.3708 60.9574 21.3708H63.1948C63.455 21.3708 63.6111 21.4228 63.7152 21.5269C63.8192 21.631 63.8192 21.8391 63.7672 22.0992C63.7152 22.3074 63.7152 22.4635 63.8192 22.5675C63.8713 22.6716 63.9753 22.7236 64.1314 22.7236C64.4957 22.7236 64.7038 22.5155 64.8079 21.9952C64.9119 21.4228 64.9119 21.0066 64.7038 20.7464C64.4957 20.4862 64.1314 20.3822 63.6111 20.3822H61.2696C61.2176 20.4342 61.1656 20.4342 61.1135 20.4342Z" fill="white"></path>
  <path d="M68.8665 29.5398C67.8779 29.5398 67.1495 29.4357 66.6291 29.2796C66.1088 29.1235 65.7966 28.8113 65.6405 28.4471C65.4844 28.0829 65.4844 27.5105 65.6405 26.8341L66.473 23.0357C66.6291 22.3593 66.8373 21.839 67.1495 21.4748C67.4616 21.1105 67.8779 20.7983 68.4503 20.6422C69.0226 20.4861 69.699 20.3821 70.5836 20.3821H72.9251C73.4974 20.3821 73.9137 20.5382 74.1218 20.7983C74.3299 21.0585 74.382 21.5268 74.2779 22.0992C74.1738 22.6195 73.9137 22.8796 73.4974 22.8796C73.2893 22.8796 73.1852 22.8276 73.0812 22.6715C72.9771 22.5154 72.9771 22.3593 73.0291 22.0992C73.0812 21.839 73.0812 21.6829 73.0291 21.6309C72.9771 21.5268 72.821 21.5268 72.6129 21.5268H70.3755C69.699 21.5268 69.1787 21.5788 68.8665 21.6309C68.5543 21.6829 68.2942 21.839 68.1381 22.0471C67.982 22.2552 67.8259 22.5674 67.7218 23.0357L66.8893 26.7821C66.7852 27.2504 66.7852 27.5626 66.8373 27.7707C66.9413 27.9788 67.1495 28.1349 67.4616 28.187C67.8259 28.239 68.3462 28.291 69.1267 28.291H71.1039C71.3121 28.291 71.4681 28.239 71.5722 28.187C71.6763 28.0829 71.7283 27.9268 71.7803 27.7187C71.8324 27.4585 71.9364 27.3024 72.0405 27.1463C72.1966 26.9902 72.3527 26.9382 72.5608 26.9382C72.9771 26.9382 73.1332 27.1983 73.0291 27.7707C72.9251 28.3431 72.6649 28.8113 72.3007 29.0715C71.9364 29.3317 71.5202 29.4878 70.8958 29.4878L68.8665 29.5398Z" fill="black"></path>
  <path d="M68.8665 29.5398C67.8779 29.5398 67.1495 29.4357 66.6291 29.2796C66.1088 29.1235 65.7966 28.8113 65.6405 28.4471C65.4844 28.0829 65.4844 27.5105 65.6405 26.8341L66.473 23.0357C66.6291 22.3593 66.8373 21.839 67.1495 21.4748C67.4616 21.1105 67.8779 20.7983 68.4503 20.6422C69.0226 20.4861 69.699 20.3821 70.5836 20.3821H72.9251C73.4974 20.3821 73.9137 20.5382 74.1218 20.7983C74.3299 21.0585 74.382 21.5268 74.2779 22.0992C74.1738 22.6195 73.9137 22.8796 73.4974 22.8796C73.2893 22.8796 73.1852 22.8276 73.0812 22.6715C72.9771 22.5154 72.9771 22.3593 73.0291 22.0992C73.0812 21.839 73.0812 21.6829 73.0291 21.6309C72.9771 21.5268 72.821 21.5268 72.6129 21.5268H70.3755C69.699 21.5268 69.1787 21.5788 68.8665 21.6309C68.5543 21.6829 68.2942 21.839 68.1381 22.0471C67.982 22.2552 67.8259 22.5674 67.7218 23.0357L66.8893 26.7821C66.7852 27.2504 66.7852 27.5626 66.8373 27.7707C66.9413 27.9788 67.1495 28.1349 67.4616 28.187C67.8259 28.239 68.3462 28.291 69.1267 28.291H71.1039C71.3121 28.291 71.4681 28.239 71.5722 28.187C71.6763 28.0829 71.7283 27.9268 71.7803 27.7187C71.8324 27.4585 71.9364 27.3024 72.0405 27.1463C72.1966 26.9902 72.3527 26.9382 72.5608 26.9382C72.9771 26.9382 73.1332 27.1983 73.0291 27.7707C72.9251 28.3431 72.6649 28.8113 72.3007 29.0715C71.9364 29.3317 71.5202 29.4878 70.8958 29.4878L68.8665 29.5398Z" fill="black"></path>
  <path d="M71.0001 29.6439C70.9481 29.6439 70.9481 29.6439 71.0001 29.6439H68.8667C67.8781 29.6439 67.1497 29.5399 66.6293 29.3838C66.109 29.2277 65.7448 28.9155 65.5367 28.4992C65.3806 28.083 65.3806 27.5106 65.4846 26.8342L66.3172 23.0358C66.4733 22.3594 66.6814 21.787 67.0456 21.4228C67.3578 21.0065 67.8261 20.7464 68.3985 20.5382C68.9708 20.3821 69.6993 20.2781 70.5838 20.2781H72.9253C73.5497 20.2781 73.9659 20.4342 74.2261 20.7464C74.4863 21.0586 74.5383 21.5269 74.3822 22.1512C74.2261 22.8797 73.8098 23.0358 73.4976 23.0358C73.2375 23.0358 73.0814 22.9317 72.9773 22.7756C72.8732 22.6195 72.8733 22.4114 72.9253 22.1512C72.9773 21.8911 72.9253 21.787 72.9253 21.787C72.9253 21.787 72.8212 21.735 72.5611 21.735H70.3237C69.6472 21.735 69.1269 21.787 68.8147 21.8391C68.5025 21.8911 68.2944 22.0472 68.1383 22.2033C67.9822 22.4114 67.8781 22.7236 67.7741 23.1399L66.9415 26.8862C66.8375 27.3025 66.8375 27.6147 66.8895 27.8228C66.9415 27.9789 67.1497 28.135 67.4619 28.187C67.7741 28.2391 68.3464 28.2911 69.0749 28.2911H71.0521C71.3123 28.2911 71.4163 28.2391 71.4684 28.187C71.5204 28.135 71.5724 28.0309 71.6765 27.7708C71.7285 27.5106 71.8326 27.3025 71.9887 27.1464C72.1448 26.9903 72.3529 26.9382 72.5611 26.9382C72.7692 26.9382 72.9253 26.9903 73.0294 27.1464C73.1334 27.3025 73.1854 27.5626 73.1334 27.8748C72.9773 28.4992 72.7692 28.9155 72.405 29.2277C72.0407 29.4878 71.5724 29.6439 71.0001 29.6439ZM70.4798 20.4342C69.6472 20.4342 68.9708 20.5382 68.4505 20.6943C67.9302 20.8504 67.5139 21.1106 67.2017 21.4748C66.8895 21.8391 66.6814 22.3594 66.5253 23.0358L65.6928 26.8342C65.5367 27.5106 65.5367 27.9789 65.6928 28.3431C65.8489 28.7073 66.1611 28.9675 66.6293 29.1236C67.1497 29.2797 67.8781 29.3838 68.8147 29.3838H70.896C71.4684 29.3838 71.8846 29.2277 72.1968 28.9675C72.509 28.7073 72.7172 28.2911 72.8733 27.7187C72.9253 27.4586 72.9253 27.2504 72.8212 27.1464C72.7692 27.0943 72.6651 27.0423 72.509 27.0423C72.3529 27.0423 72.1968 27.0943 72.0928 27.1984C71.9887 27.3025 71.8846 27.4586 71.8326 27.7187C71.7806 27.9789 71.6765 28.135 71.5724 28.2391C71.4684 28.3431 71.2602 28.3951 71.0521 28.3951H69.0749C68.2944 28.3951 67.722 28.3431 67.4098 28.2911C67.0456 28.187 66.7854 28.0309 66.6814 27.7708C66.5773 27.5626 66.5773 27.1984 66.6814 26.7301L67.5139 22.9838C67.618 22.5155 67.7741 22.2033 67.9302 21.9431C68.0863 21.735 68.3985 21.5269 68.7627 21.4748C69.1269 21.4228 69.5952 21.3708 70.3237 21.3708H72.5611C72.8212 21.3708 72.9773 21.4228 73.0814 21.5269C73.1855 21.6309 73.1854 21.8391 73.1334 22.0992C73.0814 22.3073 73.0814 22.4634 73.1854 22.5675C73.2375 22.6716 73.3415 22.7236 73.4976 22.7236C73.8619 22.7236 74.07 22.5155 74.1741 21.9951C74.2781 21.4228 74.2781 21.0065 74.07 20.7464C73.8619 20.4862 73.4976 20.3821 72.9773 20.3821H70.6359C70.5318 20.4342 70.5318 20.4342 70.4798 20.4342Z" fill="white"></path>
  <path d="M74.6943 28.9675L76.4114 20.9545C76.5154 20.4862 76.7756 20.2781 77.1919 20.2781C77.6081 20.2781 77.7642 20.5382 77.6602 21.0065L76.2553 27.5106L82.9154 20.6423C83.1756 20.3821 83.3837 20.2781 83.6439 20.2781C84.0602 20.2781 84.1642 20.4862 84.0602 20.9545L82.3431 28.9675C82.239 29.4358 81.9789 29.6439 81.5626 29.6439C81.1463 29.6439 80.9902 29.4358 81.0943 29.0195L82.4992 22.4114L75.8911 29.2277C75.735 29.3838 75.6309 29.4878 75.5268 29.5399C75.4228 29.5919 75.3187 29.5919 75.1626 29.5919C74.7463 29.6439 74.5902 29.3838 74.6943 28.9675Z" fill="black"></path>
  <path d="M74.6943 28.9675L76.4114 20.9545C76.5154 20.4862 76.7756 20.2781 77.1919 20.2781C77.6081 20.2781 77.7642 20.5382 77.6602 21.0065L76.2553 27.5106L82.9154 20.6423C83.1756 20.3821 83.3837 20.2781 83.6439 20.2781C84.0602 20.2781 84.1642 20.4862 84.0602 20.9545L82.3431 28.9675C82.239 29.4358 81.9789 29.6439 81.5626 29.6439C81.1463 29.6439 80.9902 29.4358 81.0943 29.0195L82.4992 22.4114L75.8911 29.2277C75.735 29.3838 75.6309 29.4878 75.5268 29.5399C75.4228 29.5919 75.3187 29.5919 75.1626 29.5919C74.7463 29.6439 74.5902 29.3838 74.6943 28.9675Z" fill="black"></path>
  <path d="M81.5626 29.7481C81.3024 29.7481 81.1463 29.696 81.0423 29.5399C80.9382 29.3838 80.8862 29.2277 80.9382 28.9676L82.2911 22.7757L75.9951 29.3318C75.839 29.4879 75.6829 29.592 75.5789 29.696C75.4748 29.7481 75.3187 29.8001 75.1626 29.8001C74.9545 29.8001 74.7984 29.7481 74.6943 29.592C74.5902 29.4359 74.5382 29.2277 74.5902 28.9676L76.3073 20.9546C76.4634 20.3302 76.8797 20.1741 77.1919 20.1741C77.4 20.1741 77.5561 20.2261 77.6602 20.3822C77.7642 20.5383 77.8163 20.7464 77.7642 21.0586L76.4114 27.1464L82.8114 20.5383C83.0715 20.2781 83.3317 20.1741 83.5919 20.1741C83.8 20.1741 83.9561 20.2261 84.0602 20.3822C84.1642 20.5383 84.2162 20.7464 84.1642 21.0066L82.4472 29.0196C82.3431 29.4879 82.0309 29.7481 81.5626 29.7481ZM82.7073 22.0472L81.1984 29.0196C81.1463 29.1757 81.1463 29.3318 81.2504 29.4359C81.3024 29.4879 81.4065 29.5399 81.6146 29.5399C81.9789 29.5399 82.187 29.3318 82.2911 28.9676L84.0081 20.9546C84.0602 20.7464 84.0602 20.5903 83.9561 20.4863C83.9041 20.4342 83.8 20.3822 83.6439 20.3822C83.4358 20.3822 83.2276 20.4863 83.0195 20.6944L76.0992 27.8749L77.6081 21.0066C77.6602 20.7985 77.6602 20.5903 77.5561 20.5383C77.5041 20.4863 77.4 20.4342 77.2439 20.4342C76.8797 20.4342 76.6715 20.6424 76.5675 21.0586L74.8504 29.0716C74.7984 29.2798 74.7984 29.4359 74.9024 29.4879C74.9545 29.5399 75.0585 29.592 75.2146 29.592C75.3707 29.592 75.4748 29.592 75.5268 29.5399C75.6309 29.4879 75.735 29.3838 75.8911 29.2277L82.7073 22.0472Z" fill="white"></path>
  <path d="M90.356 29.0195L91.0844 25.5333H89.0031C88.5348 25.5333 88.1706 25.5854 87.9625 25.7415C87.7023 25.8976 87.4942 26.1577 87.3381 26.4699L86.6616 27.7707C86.3494 28.3431 85.9852 28.7593 85.569 29.1236C85.1007 29.4358 84.6324 29.6439 84.1641 29.6439C83.6438 29.6439 83.4356 29.4358 83.5397 29.0715C83.6438 28.7073 83.9039 28.4992 84.4242 28.4992C84.5803 28.4992 84.7885 28.3951 84.9966 28.239C85.2047 28.0829 85.3088 27.9268 85.4129 27.7187L86.1413 26.2618C86.3494 25.8455 86.6616 25.4813 87.0259 25.1691C86.1413 24.7528 85.7771 23.9724 86.0373 22.9317C86.1933 22.0992 86.6616 21.4748 87.3901 21.0065C88.1186 20.5902 89.0551 20.3301 90.1999 20.3301H92.9055C93.3218 20.3301 93.4259 20.5902 93.3218 21.0585L91.6568 29.0195C91.5527 29.4358 91.2925 29.6959 90.9283 29.6439C90.46 29.6959 90.3039 29.4878 90.356 29.0195ZM91.969 21.5789H89.8877C89.0551 21.5789 88.4828 21.6829 88.0665 21.8911C87.6503 22.0992 87.3901 22.4634 87.286 22.9837C87.0779 23.8683 87.7543 24.3366 89.3153 24.3366H91.3966L91.969 21.5789Z" fill="black"></path>
  <path d="M90.356 29.0195L91.0844 25.5333H89.0031C88.5348 25.5333 88.1706 25.5854 87.9625 25.7415C87.7023 25.8976 87.4942 26.1577 87.3381 26.4699L86.6616 27.7707C86.3494 28.3431 85.9852 28.7593 85.569 29.1236C85.1007 29.4358 84.6324 29.6439 84.1641 29.6439C83.6438 29.6439 83.4356 29.4358 83.5397 29.0715C83.6438 28.7073 83.9039 28.4992 84.4242 28.4992C84.5803 28.4992 84.7885 28.3951 84.9966 28.239C85.2047 28.0829 85.3088 27.9268 85.4129 27.7187L86.1413 26.2618C86.3494 25.8455 86.6616 25.4813 87.0259 25.1691C86.1413 24.7528 85.7771 23.9724 86.0373 22.9317C86.1933 22.0992 86.6616 21.4748 87.3901 21.0065C88.1186 20.5902 89.0551 20.3301 90.1999 20.3301H92.9055C93.3218 20.3301 93.4259 20.5902 93.3218 21.0585L91.6568 29.0195C91.5527 29.4358 91.2925 29.6959 90.9283 29.6439C90.46 29.6959 90.3039 29.4878 90.356 29.0195ZM91.969 21.5789H89.8877C89.0551 21.5789 88.4828 21.6829 88.0665 21.8911C87.6503 22.0992 87.3901 22.4634 87.286 22.9837C87.0779 23.8683 87.7543 24.3366 89.3153 24.3366H91.3966L91.969 21.5789Z" fill="black"></path>
  <path d="M90.8762 29.8001C90.616 29.8001 90.4599 29.748 90.3559 29.5919C90.2518 29.4358 90.1998 29.2797 90.2518 29.0196L90.9803 25.6895H89.0551C88.6388 25.6895 88.2746 25.7415 88.0664 25.8976C87.8583 26.0537 87.6502 26.2618 87.4941 26.574L86.8177 27.8749C86.5055 28.4472 86.1412 28.9155 85.6729 29.2277C85.2047 29.5919 84.7364 29.748 84.216 29.748C83.9038 29.748 83.6957 29.696 83.5396 29.5399C83.4355 29.4358 83.4355 29.2277 83.4355 29.0196C83.4876 28.7074 83.7477 28.3431 84.4242 28.3431C84.5803 28.3431 84.7364 28.2911 84.8925 28.135C85.0486 27.9789 85.2047 27.8228 85.3087 27.6667L86.0372 26.2098C86.2453 25.7936 86.5055 25.4814 86.8177 25.1692C85.9851 24.7009 85.6729 23.9204 85.8811 22.8797C86.0892 22.0472 86.5575 21.3708 87.286 20.9025C88.0144 20.4862 88.951 20.2261 90.0957 20.2261H90.1477H92.8534C93.0616 20.2261 93.2177 20.2781 93.3217 20.4342C93.4258 20.5903 93.4778 20.7984 93.4258 21.1106L91.7087 29.0196C91.6567 29.5399 91.3445 29.8001 90.8762 29.8001ZM90.4599 29.0716C90.4079 29.2797 90.4079 29.3838 90.512 29.4879C90.564 29.5919 90.7201 29.5919 90.8762 29.5919C91.2404 29.5919 91.4486 29.4358 91.5006 29.0196L93.2177 21.1106C93.2697 20.9025 93.2697 20.6944 93.1656 20.6423C93.1136 20.5903 93.0095 20.5383 92.8534 20.5383H90.1477C89.003 20.5383 88.1185 20.7464 87.39 21.1627C86.7136 21.5789 86.2453 22.2033 86.0892 22.9838C85.8811 24.0244 86.1933 24.7009 87.0258 25.1171L87.1819 25.1692L87.0258 25.2732C86.6616 25.5334 86.4014 25.8976 86.1412 26.3139L85.4128 27.7708C85.3087 27.9789 85.1526 28.135 84.9445 28.2911C84.7364 28.4472 84.5282 28.5513 84.3201 28.5513C83.8518 28.5513 83.5916 28.7074 83.5396 29.0196C83.4876 29.1757 83.5396 29.2797 83.5916 29.3318C83.6437 29.4358 83.8518 29.4879 84.0599 29.4879C84.4762 29.4879 84.9445 29.3318 85.3607 29.0196C85.777 28.7074 86.1412 28.2391 86.4534 27.7188L87.1299 26.4179C87.338 26.0537 87.5461 25.7936 87.8063 25.6375C88.0664 25.4814 88.4307 25.4293 88.899 25.4293C88.899 25.4293 88.899 25.4293 88.951 25.4293H91.1884L90.4599 29.0716ZM91.4486 24.4927H89.3152C88.2746 24.4927 87.6502 24.2846 87.338 23.9204C87.1299 23.6602 87.0778 23.4001 87.1819 23.0358C87.286 22.5155 87.5982 22.0992 88.0144 21.8911C88.4307 21.683 89.0551 21.5269 89.8876 21.5269H92.0729L91.4486 24.4927ZM89.8355 21.683C89.1071 21.683 88.4827 21.7871 88.1185 21.9952C87.7022 22.2033 87.4941 22.5155 87.39 22.9838C87.338 23.296 87.39 23.5041 87.4941 23.7123C87.7542 24.0244 88.3786 24.1805 89.3152 24.2326H91.2925L91.8648 21.683H89.9396C89.8876 21.683 89.8876 21.683 89.8355 21.683Z" fill="white"></path>
  <path d="M99.4618 26.0537C99.4097 25.9496 99.3577 25.8456 99.4097 25.6895C99.4618 25.5334 99.5138 25.4293 99.6179 25.3253C99.7219 25.2212 99.878 25.2212 100.034 25.2212H105.55C105.706 25.2212 105.862 25.2732 105.914 25.3253C105.966 25.4293 106.018 25.5334 105.966 25.6895C105.914 25.8456 105.862 25.9496 105.758 26.0537C105.654 26.1578 105.498 26.1578 105.341 26.1578H99.826C99.6699 26.2098 99.5658 26.1578 99.4618 26.0537Z" fill="black"></path>
  <path d="M99.4618 26.0537C99.4097 25.9496 99.3577 25.8456 99.4097 25.6895C99.4618 25.5334 99.5138 25.4293 99.6179 25.3253C99.7219 25.2212 99.878 25.2212 100.034 25.2212H105.55C105.706 25.2212 105.862 25.2732 105.914 25.3253C105.966 25.4293 106.018 25.5334 105.966 25.6895C105.914 25.8456 105.862 25.9496 105.758 26.0537C105.654 26.1578 105.498 26.1578 105.341 26.1578H99.826C99.6699 26.2098 99.5658 26.1578 99.4618 26.0537Z" fill="black"></path>
  <path d="M105.341 26.3139C105.289 26.3139 105.289 26.3139 105.341 26.3139H99.826C99.6179 26.3139 99.5138 26.2619 99.4097 26.1578C99.3057 26.0538 99.3057 25.8977 99.3057 25.6895C99.3577 25.4814 99.4097 25.3773 99.5658 25.2733C99.7219 25.1692 99.878 25.1172 100.034 25.1172H105.55C105.758 25.1172 105.914 25.1692 106.018 25.2733C106.122 25.3773 106.122 25.5334 106.07 25.7416C106.018 25.9497 105.966 26.0538 105.81 26.1578C105.654 26.2619 105.498 26.3139 105.341 26.3139ZM100.034 25.3253C99.878 25.3253 99.774 25.3773 99.7219 25.4294C99.6179 25.4814 99.5658 25.5855 99.5658 25.7416C99.5658 25.8456 99.5658 25.9497 99.6179 26.0017C99.6699 26.0538 99.774 26.1058 99.878 26.1058H105.393C105.55 26.1058 105.654 26.0538 105.758 26.0017C105.862 25.9497 105.914 25.8456 105.914 25.6895C105.966 25.5855 105.914 25.4814 105.862 25.4294C105.81 25.3773 105.706 25.3253 105.602 25.3253H100.034Z" fill="white"></path>
  <path d="M46.0244 33.4944L42.7983 48.5838H104.457L107.735 33.4944H46.0244Z" fill="#8B8B8B"></path>
  <path d="M51.3836 46.1382C50.395 46.1382 49.6665 46.0341 49.1462 45.878C48.6259 45.7219 48.3137 45.4097 48.1576 45.0455C48.0015 44.6813 48.0015 44.1089 48.1576 43.4325L48.9901 39.6341C49.1462 38.9577 49.3544 38.4374 49.6665 38.0732C49.9787 37.7089 50.395 37.3967 50.9674 37.2406C51.5397 37.0845 52.2161 36.9805 53.1007 36.9805H55.4422C56.0145 36.9805 56.4308 37.1366 56.6389 37.3967C56.847 37.6569 56.8991 38.1252 56.795 38.6975C56.6909 39.2179 56.4308 39.478 56.0145 39.478C55.8064 39.478 55.7023 39.426 55.5983 39.2699C55.4942 39.1138 55.4942 38.9577 55.5462 38.6975C55.5982 38.4374 55.5982 38.2813 55.5462 38.2292C55.4942 38.1252 55.3381 38.1252 55.13 38.1252H52.8926C52.2161 38.1252 51.6958 38.1772 51.3836 38.2292C51.0714 38.2813 50.8113 38.4374 50.6552 38.6455C50.4991 38.8536 50.343 39.1658 50.2389 39.6341L49.4064 43.3805C49.3023 43.8488 49.3023 44.161 49.3543 44.3691C49.4584 44.5772 49.6665 44.7333 49.9787 44.7853C50.343 44.8374 50.8633 44.8894 51.6438 44.8894H53.621C53.8291 44.8894 53.9852 44.8374 54.0893 44.7853C54.1934 44.6813 54.2454 44.5252 54.2974 44.3171C54.3495 44.1089 54.4535 43.9008 54.5576 43.7447C54.7137 43.5886 54.8698 43.5366 55.0779 43.5366C55.4942 43.5366 55.6503 43.7967 55.5462 44.3691C55.4422 44.9414 55.182 45.4097 54.8178 45.6699C54.4535 45.9301 54.0373 46.0862 53.4129 46.0862L51.3836 46.1382Z" fill="white"></path>
  <path d="M53.5172 46.2423C53.5172 46.2423 53.4651 46.2423 53.5172 46.2423H51.3838C50.3952 46.2423 49.6668 46.1383 49.1464 45.9822C48.6261 45.8261 48.2619 45.5139 48.0538 45.0976C47.8977 44.6813 47.8977 44.109 48.0017 43.4326L48.8342 39.6342C48.9903 38.9578 49.1985 38.3854 49.5627 38.0212C49.8749 37.6049 50.3432 37.3448 50.9155 37.1366C51.4879 36.9805 52.2164 36.8765 53.1009 36.8765H55.4424C56.0668 36.8765 56.483 37.0326 56.7432 37.3448C57.0034 37.657 57.0554 38.1252 56.8993 38.7496C56.7432 39.4781 56.3269 39.6342 56.0147 39.6342C55.7546 39.6342 55.5985 39.5301 55.4944 39.374C55.3903 39.2179 55.3903 39.0098 55.4424 38.7496C55.4944 38.4895 55.4424 38.3854 55.4424 38.3854C55.4424 38.3854 55.3383 38.3334 55.0782 38.2813H52.8408C52.1643 38.2813 51.644 38.3334 51.3318 38.3854C51.0196 38.4374 50.8115 38.5935 50.6554 38.7496C50.4993 38.9578 50.3952 39.27 50.2912 39.6862L49.4586 43.4326C49.3546 43.8488 49.3546 44.161 49.4066 44.3691C49.4586 44.5252 49.6668 44.6813 49.979 44.7334C50.2912 44.7854 50.8635 44.8374 51.592 44.8374H53.5692C53.7773 44.8374 53.9334 44.7854 53.9855 44.7334C54.0375 44.6813 54.0895 44.5773 54.1936 44.3171C54.2456 44.057 54.3497 43.8488 54.5058 43.6927C54.6619 43.5366 54.87 43.4846 55.0782 43.4846C55.2863 43.4846 55.4424 43.5366 55.5464 43.6927C55.6505 43.8488 55.7025 44.109 55.6505 44.4212C55.4944 45.0456 55.2863 45.4618 54.9221 45.774C54.5578 46.0862 54.0895 46.2423 53.5172 46.2423ZM52.9969 37.0326C52.1643 37.0326 51.4879 37.1366 50.9676 37.2927C50.4473 37.4488 50.031 37.709 49.7188 38.0732C49.4066 38.4374 49.1985 38.9578 49.0424 39.6342L48.2099 43.4326C48.0538 44.109 48.0538 44.5773 48.2099 44.9415C48.366 45.3057 48.6782 45.5659 49.1464 45.722C49.6668 45.8781 50.3952 45.9822 51.3318 45.9822H53.4131C53.9855 45.9822 54.4017 45.8261 54.7139 45.5659C55.0261 45.3057 55.2343 44.8895 55.3903 44.3171C55.4424 44.057 55.4424 43.8488 55.3383 43.7448C55.2863 43.6927 55.1822 43.6407 55.0261 43.6407C54.87 43.6407 54.7139 43.6927 54.6099 43.7968C54.5058 43.9009 54.4017 44.057 54.3497 44.3171C54.2977 44.5773 54.1936 44.7334 54.0895 44.8374C53.9855 44.9415 53.7773 44.9935 53.5172 44.9935H51.5399C50.7594 44.9935 50.1871 44.9415 49.8749 44.8895C49.5107 44.7854 49.2505 44.6293 49.1464 44.3691C49.0424 44.161 49.0424 43.7968 49.1464 43.3285L49.979 39.5822C50.083 39.1139 50.2391 38.8017 50.3952 38.5415C50.5513 38.3334 50.8635 38.1773 51.2277 38.0732C51.592 38.0212 52.0603 37.9691 52.7887 37.9691H55.0261C55.2863 37.9691 55.4424 38.0212 55.5464 38.1252C55.6505 38.2293 55.6505 38.4374 55.5985 38.6976C55.5464 38.9057 55.5464 39.0618 55.6505 39.1659C55.7025 39.27 55.8066 39.322 55.9627 39.322C56.3269 39.322 56.5351 39.1139 56.6391 38.5935C56.7432 38.0212 56.7432 37.6049 56.5351 37.3448C56.3269 37.0846 55.9627 36.9805 55.4424 36.9805H53.1009C53.0489 37.0326 53.0489 37.0326 52.9969 37.0326Z" fill="white"></path>
  <path d="M64.6002 36.9805C65.0685 36.9805 65.2766 37.1886 65.1725 37.5528C65.0684 37.9691 64.8083 38.1252 64.34 38.1252H62.2587L60.6457 45.5658C60.5937 45.774 60.4896 45.9301 60.3335 46.0341C60.1774 46.1382 59.9693 46.2423 59.7611 46.1902C59.553 46.1902 59.3969 46.1382 59.2928 46.0341C59.1888 45.9301 59.1888 45.774 59.2408 45.5658L60.8538 38.1252H58.7205C58.5124 38.1252 58.3042 38.0731 58.2002 37.9691C58.0961 37.865 58.0441 37.7089 58.0961 37.5528C58.1481 37.3967 58.2522 37.2406 58.3563 37.1366C58.5124 37.0325 58.7205 36.9805 58.9286 36.9805H64.6002Z" fill="white"></path>
  <path d="M59.7612 46.3463C59.501 46.3463 59.2929 46.2943 59.1888 46.1382C59.0847 45.9821 59.0327 45.826 59.0847 45.5658L60.6457 38.2813H58.6685C58.4083 38.2813 58.2002 38.2292 58.0961 38.0731C57.94 37.917 57.94 37.7609 57.9921 37.5528C58.0441 37.3447 58.1482 37.1886 58.3042 37.0325C58.4603 36.9284 58.6685 36.8244 58.9286 36.8764H64.5482C64.8603 36.8764 65.0685 36.9284 65.1725 37.0845C65.2766 37.1886 65.2766 37.3967 65.2766 37.6048C65.2246 37.917 65.0164 38.2813 64.34 38.2813H62.3108L60.7498 45.6179C60.6977 45.826 60.5937 46.0341 60.3855 46.1382C60.1774 46.2943 59.9693 46.3463 59.7612 46.3463ZM58.9286 37.0845C58.7205 37.0845 58.5644 37.1366 58.4603 37.2406C58.3563 37.3447 58.2522 37.4487 58.2002 37.6048C58.1482 37.7609 58.2002 37.865 58.2522 37.917C58.3563 38.0211 58.4603 38.0211 58.6685 38.0731H60.9579L59.3449 45.6179C59.2929 45.774 59.3449 45.93 59.3969 45.9821C59.449 46.0861 59.6051 46.1382 59.7612 46.1382C59.9693 46.1382 60.1254 46.0861 60.2815 45.9821C60.4376 45.878 60.4896 45.7219 60.5416 45.5658L62.1547 38.0211H64.34C64.7563 38.0211 65.0164 37.865 65.0685 37.5008C65.1205 37.3447 65.0685 37.2406 65.0164 37.1886C64.9644 37.0845 64.8083 37.0325 64.5482 37.0325L58.9286 37.0845Z" fill="white"></path>
  <path d="M66.1609 45.6179C66.0568 46.0342 65.7966 46.2423 65.3804 46.2423C64.9641 46.2423 64.808 46.0342 64.9121 45.5659L66.6292 37.6049C66.6812 37.3968 66.7853 37.1887 66.8893 37.0846C66.9934 36.9805 67.2015 36.8765 67.3576 36.8765H70.1674C71.4161 36.8765 72.3007 37.0846 72.821 37.3968C73.2893 37.761 73.4974 38.3334 73.2893 39.1139C73.1332 39.8944 72.717 40.5187 72.1446 40.935C71.5722 41.3513 70.7918 41.5594 69.8552 41.5594H66.9934L66.1609 45.6179ZM69.4389 40.4147C70.4275 40.4147 71.1039 40.3626 71.4161 40.1545C71.7283 39.9984 71.9365 39.6862 72.0405 39.2179C72.0926 38.9057 72.0926 38.6456 71.9885 38.4895C71.8844 38.3334 71.6763 38.2293 71.3641 38.1773C71.0519 38.1252 70.5836 38.0732 69.9072 38.0732H67.7218L67.2015 40.3626L69.4389 40.4147Z" fill="white"></path>
  <path d="M65.3806 46.3984C65.1205 46.3984 64.9644 46.3464 64.8603 46.1903C64.7563 46.0342 64.7042 45.8781 64.7563 45.6179L66.4733 37.657C66.5254 37.3968 66.6294 37.1887 66.7855 37.0846C66.9416 36.9285 67.1497 36.8765 67.3579 36.8765H70.1676C71.4684 36.8765 72.353 37.0846 72.8733 37.4488C73.3936 37.813 73.6018 38.4374 73.3936 39.27C73.2375 40.1025 72.8213 40.7269 72.1969 41.1431C71.5725 41.5594 70.792 41.7675 69.8554 41.7675H67.0457L66.2132 45.67C66.1611 46.1383 65.8489 46.3984 65.3806 46.3984ZM67.3579 37.0326C67.2018 37.0326 67.0977 37.0846 66.9416 37.1887C66.8376 37.2927 66.7335 37.4488 66.6815 37.657L64.9644 45.6179C64.9123 45.8261 64.9124 45.9301 65.0164 46.0342C65.0684 46.0862 65.1725 46.1383 65.3286 46.1383C65.6928 46.1383 65.901 45.9822 65.953 45.5659L66.8376 41.4553H69.8034C70.688 41.4553 71.4684 41.2472 72.0408 40.883C72.6132 40.4667 72.9774 39.8944 73.1335 39.1139C73.2896 38.3854 73.1335 37.8651 72.7172 37.5009C72.2489 37.1366 71.3644 36.9805 70.1676 36.9805L67.3579 37.0326ZM69.5953 40.5187C69.5432 40.5187 69.4912 40.5187 69.4392 40.5187H67.1497L67.7221 37.9691H70.0115C70.688 37.9691 71.1562 38.0212 71.4684 38.0732C71.8327 38.1252 72.0408 38.2813 72.1449 38.4374C72.2489 38.6456 72.2489 38.9057 72.1969 39.2179C72.0928 39.7383 71.8327 40.0504 71.5205 40.2065C71.1563 40.4667 70.5319 40.5187 69.5953 40.5187ZM69.4392 40.3106C70.4278 40.3106 71.0522 40.2586 71.3644 40.1025C71.6766 39.9984 71.8327 39.6862 71.9367 39.27C71.9888 38.9578 71.9888 38.7496 71.9367 38.6456C71.8847 38.4895 71.6766 38.4374 71.4164 38.3854C71.1042 38.3334 70.6359 38.2813 69.9595 38.2813H67.8782L67.4099 40.3626L69.4392 40.3106Z" fill="white"></path>
  <path d="M79.3772 37.0325L81.0943 45.5658C81.0943 45.6699 81.0943 45.7739 81.0422 45.93C80.9902 46.0861 80.9382 46.1902 80.7821 46.2943C80.626 46.3983 80.4699 46.4504 80.3138 46.4504C80.0016 46.4504 79.8455 46.2943 79.7935 45.9821L79.3252 43.5365H75.3187L73.8097 45.9821C73.6016 46.2943 73.3414 46.4504 73.0813 46.4504C72.9252 46.4504 72.7691 46.3983 72.665 46.2943C72.5609 46.1902 72.5089 46.0861 72.5609 45.93C72.613 45.7739 72.613 45.6699 72.665 45.5658L78.0244 37.0325H79.3772ZM78.2845 38.8016L76.0471 42.3398H79.013L78.2845 38.8016Z" fill="white"></path>
  <path d="M80.314 46.5545C79.9498 46.5545 79.7416 46.3464 79.6376 46.0342L79.1693 43.6927H75.3189L73.8099 46.0862C73.6018 46.3984 73.2896 46.6065 72.9774 46.6065C72.7693 46.6065 72.6132 46.5545 72.5091 46.3984C72.4051 46.2423 72.353 46.0862 72.353 45.9301C72.4051 45.774 72.4051 45.6699 72.5091 45.5659L77.9725 36.9285H79.4815V37.0325L81.1986 45.5659C81.1986 45.6699 81.1986 45.826 81.1465 45.9821C81.0945 46.1382 80.9904 46.2943 80.8343 46.3984C80.6782 46.5025 80.5221 46.5545 80.314 46.5545ZM75.2669 43.4325H79.4295L79.8977 45.9821C79.9498 46.2423 80.0538 46.3464 80.314 46.3464C80.4701 46.3464 80.5742 46.2943 80.7303 46.1903C80.8343 46.0862 80.9384 46.0342 80.9384 45.8781C80.9904 45.774 80.9904 45.6179 80.9904 45.5659L79.3254 37.1366H78.1286L72.7693 45.6179C72.7173 45.6699 72.6652 45.826 72.6652 45.9301C72.6652 46.0342 72.6652 46.0862 72.7693 46.1903C72.8734 46.2943 72.9774 46.2943 73.0815 46.2943C73.3416 46.2943 73.5498 46.1382 73.7059 45.8781L75.2669 43.4325ZM79.1693 42.4439H75.8392L78.3368 38.5415L79.1693 42.4439ZM76.2555 42.2358H78.9091L78.2327 39.1138L76.2555 42.2358Z" fill="white"></path>
  <path d="M83.7478 45.6699C83.6437 46.1382 83.3836 46.3463 82.9673 46.3463C82.551 46.3463 82.3949 46.1382 82.499 45.6699L84.2161 37.6569C84.3201 37.1886 84.5803 36.9805 84.9445 36.9805C85.3608 36.9805 85.5689 37.1886 85.4648 37.6569L84.7884 40.7268H89.9396L90.6161 37.7089C90.7201 37.2406 90.9803 37.0325 91.3966 37.0325C91.8128 37.0325 91.9689 37.2406 91.8648 37.7089L90.1478 45.6699C90.0437 46.1382 89.7835 46.3463 89.3673 46.3463C88.951 46.3463 88.7949 46.1382 88.899 45.6699L89.7315 41.9236H84.5803L83.7478 45.6699Z" fill="white"></path>
  <path d="M89.4196 46.4505C89.1594 46.4505 89.0033 46.3984 88.8993 46.2423C88.7952 46.0863 88.7432 45.8781 88.7952 45.618L89.5757 41.9757H84.6326L83.8521 45.67C83.748 46.1903 83.4359 46.4505 82.9676 46.4505C82.7594 46.4505 82.5513 46.3984 82.4472 46.2423C82.3432 46.0863 82.2911 45.8781 82.3432 45.618L84.0602 37.605C84.2163 36.9806 84.5806 36.8245 84.8928 36.8245C85.1529 36.8245 85.309 36.8765 85.4131 37.0326C85.5172 37.1887 85.5692 37.3968 85.5172 37.657L84.8928 40.5708H89.8359L90.4602 37.605C90.6163 36.9806 91.0326 36.8245 91.3448 36.8245C91.5529 36.8245 91.7611 36.8765 91.8651 37.0326C91.9692 37.1887 92.0212 37.3968 91.9692 37.657L90.2521 45.67C90.148 46.1903 89.8359 46.4505 89.4196 46.4505ZM84.4765 41.7676H89.8359L89.0033 45.67C88.9513 45.8781 88.9513 46.0342 89.0554 46.0863C89.1074 46.1383 89.2115 46.1903 89.3676 46.1903C89.7318 46.1903 89.9399 45.9822 90.044 45.618L91.7611 37.605C91.8131 37.3968 91.8131 37.2407 91.709 37.1367C91.657 37.0846 91.5529 37.0326 91.3968 37.0326C91.0326 37.0326 90.8245 37.2407 90.7204 37.657L90.044 40.7789H84.6846L85.3611 37.605C85.4131 37.3968 85.4131 37.2407 85.309 37.1887C85.257 37.0846 85.1529 37.0846 84.9448 37.0846C84.5806 37.0846 84.4245 37.2928 84.3204 37.709L82.6554 45.67C82.6033 45.8781 82.6033 46.0342 82.7074 46.0863C82.7594 46.1383 82.8635 46.1903 83.0196 46.1903C83.3838 46.1903 83.5919 45.9822 83.696 45.618L84.4765 41.7676Z" fill="white"></path>
  <path d="M98.3692 37.0845L100.086 45.6178C100.086 45.7219 100.086 45.8259 100.034 45.982C99.9822 46.1381 99.9301 46.2422 99.774 46.3463C99.618 46.4503 99.4619 46.5024 99.3058 46.5024C98.9936 46.5024 98.8375 46.3463 98.7854 46.0341L98.2651 43.5885H94.2586L92.7497 46.0341C92.5415 46.3463 92.2814 46.5024 92.0212 46.5024C91.8651 46.5024 91.709 46.4503 91.6049 46.3463C91.5009 46.2422 91.4488 46.1381 91.5009 45.982C91.5529 45.8259 91.5529 45.7219 91.6049 45.6178L96.9643 37.0845H98.3692ZM97.2765 38.8536L95.0391 42.3918H98.0049L97.2765 38.8536Z" fill="white"></path>
  <path d="M99.3057 46.6065C98.9415 46.6065 98.7333 46.3984 98.6293 46.0341L98.161 43.6927H94.3106L92.8016 46.0862C92.5935 46.3984 92.2813 46.6065 91.9691 46.6065C91.761 46.6065 91.6049 46.5545 91.5008 46.3984C91.3968 46.2423 91.3447 46.0862 91.3447 45.9301C91.3968 45.774 91.3968 45.6699 91.5008 45.5658L96.9122 36.9805H98.4212V37.0845L100.138 45.6179C100.138 45.7219 100.138 45.878 100.086 46.0341C100.034 46.1902 99.9301 46.3463 99.774 46.4504C99.6699 46.5545 99.4618 46.6065 99.3057 46.6065ZM94.2065 43.4845H98.3691L98.8374 46.0341C98.8894 46.2943 98.9935 46.3984 99.2537 46.3984C99.4098 46.3984 99.5138 46.3463 99.6699 46.2423C99.774 46.1382 99.8781 46.0341 99.8781 45.9821C99.9301 45.826 99.9301 45.7219 99.9301 45.6699L98.2651 37.1886H97.0683L91.709 45.6699C91.6569 45.774 91.6049 45.878 91.6049 45.9821C91.6049 46.0862 91.6049 46.1382 91.709 46.2423C91.813 46.3463 91.9171 46.3463 92.0212 46.3463C92.2813 46.3463 92.4894 46.1902 92.6455 45.9301L94.2065 43.4845ZM98.161 42.4959H94.8309L97.3285 38.5935L98.161 42.4959ZM95.2472 42.2878H97.9008L97.2244 39.1658L95.2472 42.2878Z" fill="white"></path>
  <path d="M10.226 49.8325L7 64.7659H131.826L135 49.8325H10.226Z" fill="#AFAFAF"></path>
  <path d="M13.8683 53.3188C13.9203 53.1107 14.0244 52.9025 14.1285 52.7985C14.2846 52.6944 14.4407 52.5903 14.5967 52.5903H17.3545C18.239 52.5903 18.9154 52.6944 19.4358 52.8505C19.9041 53.0066 20.2683 53.2668 20.4244 53.631C20.5805 53.9952 20.6325 54.4115 20.4764 54.9838C20.3203 55.6603 20.0602 56.1285 19.5919 56.4928C20.2683 56.909 20.4764 57.6895 20.2163 58.8342L20.1642 59.0944C20.0081 59.7708 19.8 60.2911 19.4358 60.7074C19.1236 61.0716 18.6553 61.3838 18.0829 61.5399C17.5106 61.696 16.7301 61.8001 15.7935 61.8001H12.5675C12.3594 61.8001 12.2553 61.7481 12.1512 61.592C12.0992 61.4879 12.0472 61.2798 12.0992 61.0716L13.8683 53.3188ZM14.2325 57.3773L13.5561 60.6033H16.1057C16.8862 60.6033 17.4065 60.5513 17.7707 60.4993C18.135 60.4472 18.3951 60.2911 18.6033 60.083C18.7594 59.8749 18.9154 59.5627 19.0195 59.0944L19.0715 58.8863C19.1756 58.418 19.1756 58.1058 19.1236 57.8976C19.0715 57.6895 18.8634 57.5334 18.5512 57.4814C18.239 57.4294 17.7707 57.3773 17.0943 57.3773H14.2325ZM16.626 56.2326C17.3024 56.2326 17.7707 56.1806 18.135 56.1285C18.4992 56.0765 18.7594 55.9724 18.9154 55.8163C19.0715 55.6602 19.2276 55.4001 19.2797 55.0879C19.3317 54.7757 19.3317 54.5155 19.2276 54.3594C19.1236 54.2033 18.9154 54.0993 18.6033 54.0472C18.2911 53.9952 17.7707 53.9432 17.1463 53.9432H15.013L14.4927 56.2326H16.626Z" fill="white"></path>
  <path d="M16.0016 61.9562C15.9495 61.9562 15.8975 61.9562 15.8455 61.9562H12.6194C12.4113 61.9562 12.2032 61.8522 12.1512 61.6961C12.0471 61.54 12.0471 61.3318 12.0991 61.0717L13.7642 53.3188C13.8162 53.0587 13.9203 52.8505 14.0764 52.7465C14.2325 52.5904 14.3885 52.5383 14.5967 52.5383H17.3544C18.239 52.5383 18.9674 52.6424 19.4357 52.7985C19.956 52.9546 20.3203 53.2668 20.4764 53.631C20.6845 53.9952 20.6845 54.4635 20.5804 55.0879C20.4243 55.7123 20.1642 56.1806 19.7999 56.5448C20.4243 57.0131 20.6325 57.7936 20.3723 58.9383L20.3203 59.1985C20.1642 59.8749 19.904 60.4473 19.5918 60.8635C19.2276 61.2798 18.7593 61.54 18.1869 61.7481C17.6666 61.8522 16.8861 61.9042 16.0016 61.9562ZM14.5967 52.7465C14.4406 52.7465 14.2845 52.7985 14.1804 52.9026C14.0764 53.0066 13.9723 53.1627 13.9203 53.3709L12.2552 61.1237C12.2032 61.3318 12.2032 61.4879 12.3073 61.54C12.3593 61.644 12.4633 61.6961 12.6194 61.6961H15.8455C16.782 61.6961 17.5625 61.592 18.1349 61.4359C18.7072 61.2798 19.1235 61.0196 19.4357 60.6554C19.7479 60.2912 20.0081 59.7709 20.1121 59.0944L20.1642 58.8343C20.4243 57.7416 20.2162 57.0131 19.5398 56.5969L19.4357 56.4928L19.5398 56.3887C19.956 56.0245 20.2162 55.5562 20.3723 54.9318C20.4764 54.4115 20.4764 53.9432 20.3203 53.631C20.1642 53.3188 19.852 53.0587 19.3837 52.9026C18.9154 52.7465 18.239 52.6424 17.3544 52.6424L14.5967 52.7465ZM16.3138 60.7595C16.2617 60.7595 16.2097 60.7595 16.1577 60.7595H13.452L14.1804 57.3253H17.0942C17.7707 57.3253 18.239 57.3774 18.5512 57.4294C18.8633 57.5335 19.1235 57.6896 19.1755 57.8977C19.2796 58.1058 19.2276 58.47 19.1235 58.9383L19.0715 59.1465C18.9674 59.6148 18.8113 59.927 18.6552 60.1871C18.4471 60.3952 18.1869 60.5513 17.7707 60.6554C17.5105 60.7074 16.9902 60.7595 16.3138 60.7595ZM13.7121 60.4993H16.1577C16.8861 60.4993 17.4585 60.4473 17.8227 60.3952C18.1869 60.3432 18.3951 60.1871 18.5512 60.031C18.7073 59.8229 18.8633 59.5107 18.9154 59.0944L18.9674 58.8863C19.0715 58.47 19.0715 58.1578 19.0194 58.0017C18.9674 57.8456 18.8113 57.7416 18.5512 57.6375C18.239 57.5855 17.7707 57.5335 17.1463 57.5335H14.3886L13.7121 60.4993ZM16.782 56.3367C16.73 56.3367 16.678 56.3367 16.6259 56.3367H14.3365L14.9089 53.7871H17.1463C17.8227 53.7871 18.291 53.8391 18.6552 53.8912C19.0194 53.9432 19.2276 54.0993 19.3316 54.2554C19.4357 54.4635 19.4877 54.7237 19.3837 55.0359C19.3316 55.4001 19.1755 55.6603 19.0194 55.8164C18.8113 55.9725 18.5512 56.1286 18.1869 56.1806C17.8227 56.2847 17.4064 56.3367 16.782 56.3367ZM14.6487 56.0765H16.6259C17.3024 56.0765 17.7707 56.0245 18.1349 55.9725C18.4471 55.9204 18.7072 55.8164 18.8633 55.6603C19.0194 55.5042 19.1235 55.2961 19.1755 54.9839C19.2276 54.6717 19.2276 54.4635 19.1235 54.3595C19.0194 54.2554 18.8633 54.1513 18.5512 54.0993C18.239 54.0473 17.7707 53.9952 17.0942 53.9952H15.065L14.6487 56.0765Z" fill="white"></path>
  <path d="M29.6343 58.522C29.4782 59.1985 29.2181 59.8228 28.7498 60.3432C28.3335 60.8635 27.8132 61.2798 27.1368 61.5399C26.5124 61.8001 25.7839 61.9562 25.0034 61.9562C24.223 61.9562 23.5986 61.8001 23.0782 61.5399C22.5579 61.2798 22.1937 60.8635 21.9856 60.3432C21.7774 59.8228 21.7774 59.1985 21.9335 58.522L22.4539 56.0245C22.61 55.3481 22.8701 54.7237 23.3384 54.2033C23.7547 53.683 24.275 53.2668 24.9514 53.0066C25.5758 52.7464 26.3043 52.5903 27.0847 52.5903C27.8652 52.5903 28.4896 52.7464 29.01 53.0066C29.5303 53.2668 29.8945 53.683 30.1026 54.2033C30.3108 54.7237 30.3108 55.3481 30.1547 56.0245L29.6343 58.522ZM26.8766 53.735C26.0441 53.735 25.3677 53.9432 24.8474 54.3074C24.327 54.7237 23.9628 55.296 23.8067 56.0245L23.2864 58.418C23.1303 59.1985 23.2343 59.7708 23.5465 60.135C23.9108 60.5513 24.4831 60.7074 25.3156 60.7594C26.1482 60.7594 26.8246 60.5513 27.3449 60.1871C27.8652 59.7708 28.2295 59.1985 28.3856 58.47L28.9059 56.0765C29.062 55.3481 28.9579 54.7757 28.6457 54.3594C28.3335 53.9432 27.7091 53.735 26.8766 53.735Z" fill="white"></path>
  <path d="M25.1073 62.1121H25.0553C24.2748 62.1121 23.5984 61.956 23.078 61.6438C22.5577 61.3316 22.1415 60.9154 21.9333 60.395C21.7252 59.8747 21.7252 59.1983 21.8813 58.5219L22.4016 56.0243C22.5577 55.2958 22.8699 54.6715 23.2862 54.1511C23.7024 53.6308 24.2748 53.2145 24.8992 52.9023C25.5236 52.5902 26.252 52.4861 27.0325 52.4861C27.813 52.4861 28.4894 52.6422 29.0097 52.9544C29.5301 53.2666 29.9463 53.6828 30.1545 54.2032C30.3626 54.7235 30.3626 55.3999 30.2065 56.0763L29.6862 58.5739C29.5301 59.3023 29.2179 59.9267 28.8016 60.4471C28.3854 60.9674 27.813 61.3836 27.1886 61.6958C26.6162 61.956 25.8878 62.0601 25.1073 62.1121ZM27.0845 52.6422C26.3561 52.6422 25.6797 52.7983 25.0553 53.0584C24.4309 53.3186 23.9106 53.7349 23.4943 54.2552C23.078 54.7755 22.8179 55.3479 22.6618 56.0243L22.1414 58.5219C21.9854 59.1983 22.0374 59.7706 22.1935 60.291C22.4016 60.8113 22.7138 61.1755 23.2341 61.4357C23.7545 61.6958 24.3788 61.8519 25.1073 61.8519C25.8358 61.8519 26.5642 61.6958 27.1886 61.4357C27.813 61.1755 28.3333 60.7593 28.7496 60.2389C29.1658 59.7186 29.426 59.1462 29.5821 58.4698L30.1024 55.9723C30.2585 55.2958 30.2065 54.7235 30.0504 54.2032C29.8423 53.6828 29.5301 53.3186 29.0097 53.0584C28.4894 52.7983 27.865 52.6422 27.0845 52.6422ZM25.3675 60.9154C24.4309 60.9154 23.8065 60.7072 23.4423 60.291C23.078 59.8747 22.974 59.2503 23.1301 58.4698L23.6504 56.0763C23.8065 55.2958 24.1707 54.6714 24.7431 54.3072C25.2634 53.891 25.9919 53.6828 26.8244 53.6828H26.8764C27.761 53.6828 28.3854 53.891 28.7496 54.3072C29.1138 54.7755 29.2179 55.3999 29.0618 56.1284L28.5415 58.5219C28.3854 59.3023 28.0211 59.9267 27.4488 60.291C26.9284 60.7072 26.2 60.9154 25.3675 60.9154ZM26.8244 53.8389C26.0439 53.8389 25.3675 54.0471 24.8992 54.4113C24.3788 54.7755 24.0667 55.3479 23.9106 56.0763L23.3902 58.4698C23.2341 59.1983 23.3382 59.7186 23.6504 60.0828C23.9626 60.4471 24.5349 60.6552 25.3675 60.6552C26.2 60.6552 26.8244 60.4471 27.3447 60.0828C27.865 59.7186 28.1772 59.1462 28.3333 58.4178L28.8536 56.0243C29.0097 55.3479 28.9057 54.7755 28.5935 54.4113C28.2293 54.0471 27.6569 53.8389 26.8244 53.8389Z" fill="white"></path>
  <path d="M36.2423 56.5448C36.8146 56.5448 37.2829 56.4407 37.6471 56.1805C38.0114 55.9724 38.2715 55.6602 38.3236 55.244C38.4276 54.8277 38.3236 54.5155 38.0114 54.2553C37.6992 53.9952 37.2829 53.8391 36.7626 53.8391H34.0569C33.7967 53.8391 33.6406 53.8911 33.5886 53.9431C33.4845 53.9952 33.4325 54.2033 33.3805 54.4635L33.3284 54.7236C33.2244 55.1919 32.9642 55.4521 32.5479 55.4521C32.1317 55.4521 31.9756 55.1919 32.0797 54.7236C32.2358 53.9431 32.4959 53.4228 32.8081 53.1106C33.1203 52.7984 33.5886 52.6423 34.265 52.6423H37.1788C37.7512 52.6423 38.2715 52.7464 38.6878 52.9545C39.104 53.1627 39.3642 53.4749 39.5723 53.8391C39.7284 54.2033 39.7805 54.6716 39.6764 55.1399C39.5203 55.9724 39.052 56.6488 38.3236 57.1171C38.8439 57.6375 39 58.3659 38.8439 59.1984C38.7398 59.7188 38.5317 60.135 38.1675 60.5513C37.8032 60.9675 37.387 61.2797 36.8666 61.4879C36.3463 61.696 35.826 61.8001 35.2536 61.8001H32.3398C31.7154 61.8001 31.2992 61.644 31.091 61.3318C30.8829 61.0196 30.8829 60.4992 31.039 59.7188C31.1431 59.2505 31.4032 58.9903 31.8195 58.9903C32.2358 58.9903 32.3918 59.2505 32.2878 59.7188L32.2357 59.9789C32.1837 60.2391 32.1837 60.3952 32.2357 60.4992C32.2878 60.5513 32.4439 60.6033 32.652 60.6033H35.3577C35.878 60.6033 36.3463 60.4472 36.7626 60.187C37.1788 59.8749 37.439 59.5106 37.5431 59.0944C37.6471 58.6781 37.5431 58.3659 37.2829 58.1057C37.0227 57.8456 36.6065 57.6895 36.0862 57.6895H34.8374C34.317 57.6895 34.1089 57.4814 34.213 57.1171C34.3171 56.7009 34.5772 56.5448 35.0975 56.5448H36.2423Z" fill="white"></path>
  <path d="M35.1497 62.0082H32.1838C31.5074 62.0082 31.0912 61.8521 30.883 61.4878C30.6749 61.1756 30.6749 60.6033 30.831 59.8228C30.9871 59.1464 31.4034 59.0423 31.7155 58.9903C31.9237 58.9903 32.0798 59.0423 32.1838 59.1984C32.2879 59.3545 32.3399 59.5626 32.2879 59.8748L32.2359 60.135C32.1838 60.4472 32.1838 60.5512 32.2359 60.5512C32.2359 60.5512 32.2879 60.6033 32.6001 60.6033H35.3058C35.8261 60.6033 36.2424 60.4472 36.6586 60.187C37.0749 59.9269 37.283 59.5626 37.3871 59.1464C37.4912 58.7821 37.3871 58.4699 37.1269 58.2618C36.8668 58.0017 36.5025 57.8976 35.9822 57.8976H34.7334C34.4212 57.8976 34.2131 57.8456 34.057 57.6895C33.9529 57.5854 33.9529 57.3773 33.9529 57.1691C34.005 56.8569 34.2651 56.4927 34.9416 56.4927H36.1903C36.7107 56.4927 37.179 56.3886 37.5432 56.1805C37.9074 55.9724 38.1155 55.7122 38.1676 55.348C38.2716 54.9838 38.1676 54.6716 37.9074 54.4634C37.6473 54.2033 37.231 54.0992 36.7107 54.0992H34.005C33.7448 54.0992 33.6407 54.1512 33.5887 54.2033C33.5367 54.2553 33.4847 54.3594 33.4326 54.6195L33.3806 54.8797C33.2245 55.5561 32.8082 55.6602 32.496 55.7122C32.2879 55.7122 32.1318 55.6602 32.0277 55.5041C31.9237 55.348 31.8716 55.1399 31.9237 54.8277C32.0798 54.0472 32.3399 53.4748 32.7042 53.1626C33.0684 52.8504 33.5367 52.6943 34.2131 52.6943H37.1269C37.7513 52.6943 38.2716 52.7984 38.6879 53.0065C39.1042 53.2147 39.4164 53.5269 39.6245 53.9431C39.7806 54.3594 39.8326 54.8277 39.7286 55.296C39.5725 56.1285 39.1042 56.7529 38.4277 57.2732C38.896 57.8456 39.0521 58.522 38.844 59.3545C38.7399 59.8748 38.4798 60.3431 38.1676 60.7594C37.8034 61.1756 37.3871 61.4878 36.8668 61.748C36.2944 61.8521 35.7741 62.0082 35.1497 62.0082ZM31.7155 59.1984C31.3513 59.1984 31.1432 59.4065 31.0391 59.8228C30.883 60.5512 30.883 61.0716 31.0912 61.3317C31.2473 61.5919 31.6635 61.748 32.2359 61.748H35.1497C35.722 61.748 36.2424 61.6439 36.7107 61.4358C37.179 61.2277 37.5952 60.9155 37.9594 60.5512C38.2716 60.187 38.5318 59.7187 38.6359 59.2504C38.792 58.4179 38.6359 57.7935 38.1676 57.2732L38.0635 57.1691L38.1676 57.1171C38.896 56.6488 39.3123 56.0244 39.4684 55.2439C39.5725 54.7756 39.5204 54.3594 39.3643 53.9951C39.2082 53.6309 38.9481 53.3708 38.5318 53.1626C38.1155 52.9545 37.6473 52.8504 37.0749 52.8504H34.1611C34.1611 52.8504 34.1611 52.8504 34.109 52.8504C33.5367 52.8504 33.0684 53.0065 32.8082 53.2667C32.496 53.5789 32.2879 54.0472 32.1318 54.7756C32.0798 54.9838 32.0798 55.1399 32.1838 55.2439C32.2359 55.296 32.3399 55.348 32.496 55.348C32.8603 55.348 33.0684 55.1399 33.1725 54.7236L33.2245 54.4634C33.2765 54.2033 33.3806 53.9952 33.4847 53.8911C33.5887 53.787 33.7968 53.787 34.057 53.735H36.7627C37.3351 53.735 37.8034 53.8911 38.1155 54.1512C38.4277 54.4634 38.5318 54.8277 38.4798 55.296C38.3757 55.7122 38.1676 56.0244 37.7513 56.2846C37.3351 56.5447 36.8668 56.6488 36.2944 56.6488H35.0456C34.5773 56.6488 34.3172 56.8049 34.2651 57.1691C34.2131 57.3252 34.2651 57.4293 34.3172 57.4813C34.3692 57.5854 34.5773 57.6374 34.7855 57.6374H36.0342C36.6066 57.6374 37.0229 57.7935 37.3351 58.0537C37.6473 58.3659 37.7513 58.7301 37.6473 59.1464C37.5432 59.6147 37.283 59.9789 36.8147 60.2911C36.3985 60.6033 35.8781 60.7594 35.3578 60.7594H32.6521C32.392 60.7594 32.1838 60.7073 32.1318 60.6033C32.0277 60.4992 32.0277 60.2911 32.1318 60.0309L32.1838 59.7708C32.2359 59.5626 32.2359 59.4065 32.1318 59.3025C31.9757 59.2504 31.8716 59.1984 31.7155 59.1984Z" fill="white"></path>
  <path d="M45.504 57.7415C45.3479 57.8976 45.1398 57.9496 44.9837 57.9496C44.7755 57.9496 44.6715 57.8976 44.5154 57.7415L42.9544 54.6716L41.5495 61.2797C41.4455 61.748 41.1853 62.0082 40.769 62.0082C40.3528 62.0082 40.1967 61.8001 40.3008 61.3318L42.0178 53.3188C42.1219 52.8505 42.3821 52.6423 42.7463 52.6423C43.0064 52.6423 43.1625 52.7464 43.3186 53.0066L45.2438 56.7009L48.782 53.0066C49.0422 52.7464 49.2503 52.6423 49.4585 52.6423C49.8747 52.6423 50.0308 52.8505 49.9268 53.3188L48.2097 61.3318C48.1056 61.8001 47.8455 62.0082 47.4292 62.0082C47.0129 62.0082 46.8568 61.748 46.9609 61.2797L48.3658 54.6716L45.504 57.7415Z" fill="white"></path>
  <path d="M47.481 62.1121C47.2209 62.1121 47.0648 62.0601 46.9607 61.904C46.8566 61.7479 46.8046 61.5397 46.8566 61.2275L48.2095 55.0357L45.5558 57.8454C45.3477 58.0015 45.1916 58.0536 44.9835 58.0536C44.7753 58.0536 44.5672 57.9495 44.4631 57.7934L43.0062 54.9836L41.6534 61.2796C41.4973 61.956 41.081 62.1121 40.7688 62.1121C40.5607 62.1121 40.3526 62.0601 40.2485 61.904C40.1444 61.7479 40.0924 61.5397 40.1444 61.2796L41.8615 53.2666C42.0176 52.6422 42.3818 52.4861 42.694 52.4861C43.0062 52.4861 43.2144 52.6422 43.3705 52.9023L45.2436 56.4406L48.6778 52.9023C48.9379 52.6422 49.1981 52.5381 49.4583 52.5381C49.6664 52.5381 49.8225 52.5901 49.9266 52.7462C50.0306 52.9023 50.0826 53.1105 50.0306 53.3706L48.3135 61.3836C48.2095 61.8519 47.9493 62.1121 47.481 62.1121ZM48.6257 54.3593L47.1168 61.3316C47.0648 61.5397 47.0648 61.6958 47.1688 61.7999C47.2209 61.8519 47.3249 61.904 47.481 61.904C47.8452 61.904 48.0534 61.6958 48.1574 61.3316L49.8745 53.3186C49.9265 53.1105 49.9265 52.9544 49.8225 52.8503C49.7704 52.7983 49.6664 52.7462 49.5103 52.7462C49.3022 52.7462 49.094 52.8503 48.8859 53.0584L45.2436 56.8568L43.2144 53.0584C43.1103 52.8503 42.9542 52.7462 42.7461 52.7462C42.4339 52.7462 42.2257 52.9544 42.1217 53.3706L40.4046 61.3836C40.3526 61.5918 40.3526 61.7479 40.4566 61.7999C40.5087 61.8519 40.6127 61.904 40.7688 61.904C41.1331 61.904 41.3412 61.6958 41.4452 61.2796L42.9542 54.3593L44.6713 57.6893C44.7233 57.7934 44.8794 57.8454 45.0355 57.8454C45.1916 57.8454 45.3477 57.7934 45.4518 57.6893L48.6257 54.3593Z" fill="white"></path>
  <path d="M58.46 58.626C58.3039 59.3025 58.0438 59.9269 57.5755 60.4472C57.1592 60.9675 56.6389 61.3838 55.9625 61.6439C55.3381 61.9041 54.6096 62.0602 53.8291 62.0602C53.0487 62.0602 52.4243 61.9041 51.9039 61.6439C51.3836 61.3838 51.0194 60.9675 50.8113 60.4472C50.6031 59.9269 50.6031 59.3025 50.7592 58.626L51.2795 56.1285C51.4356 55.4521 51.6958 54.8277 52.1641 54.3073C52.5804 53.787 53.1007 53.3708 53.7771 53.1106C54.4015 52.8504 55.13 52.6943 55.9104 52.6943C56.6909 52.6943 57.3153 52.8504 57.8356 53.1106C58.356 53.3708 58.7202 53.787 58.9283 54.3073C59.1364 54.8277 59.1365 55.4521 58.9804 56.1285L58.46 58.626ZM55.7023 53.839C54.8698 53.839 54.1934 54.0472 53.673 54.4114C53.1527 54.8277 52.7885 55.4 52.6324 56.1285L52.1121 58.522C51.956 59.3025 52.06 59.8748 52.3722 60.2391C52.7365 60.6553 53.3088 60.8114 54.1413 60.8634C54.9739 60.8634 55.6503 60.6553 56.1706 60.2911C56.6909 59.8748 57.0552 59.3025 57.2113 58.574L57.7316 56.1805C57.8877 55.4521 57.7836 54.8797 57.4714 54.4634C57.1592 54.0472 56.5348 53.839 55.7023 53.839Z" fill="white"></path>
  <path d="M53.9335 62.1643C53.101 62.1643 52.4245 62.0083 51.9042 61.6961C51.3839 61.3839 50.9676 60.9676 50.7595 60.4473C50.5514 59.927 50.5514 59.2505 50.7075 58.5741L51.2278 56.0765C51.3839 55.3481 51.6961 54.7237 52.1123 54.2034C52.5286 53.683 53.101 53.2668 53.7253 52.9546C54.3497 52.6944 55.0782 52.5383 55.8587 52.5383C56.6392 52.5383 57.3156 52.6944 57.8359 53.0066C58.3562 53.3188 58.7725 53.7351 58.9806 54.2554C59.1888 54.7757 59.1888 55.4522 59.0327 56.1286L58.5123 58.6261C58.3562 59.3546 58.044 59.979 57.6278 60.4993C57.2115 61.0196 56.6392 61.4359 56.0148 61.7481C55.4424 62.0603 54.714 62.1643 53.9335 62.1643ZM55.9107 52.7465C55.1823 52.7465 54.5058 52.9026 53.8814 53.1627C53.2571 53.4229 52.7367 53.8391 52.3205 54.3595C51.9042 54.8798 51.644 55.4522 51.4879 56.1286L50.9676 58.6261C50.8115 59.3026 50.8636 59.8749 51.0197 60.3952C51.2278 60.9156 51.54 61.2798 52.0603 61.54C52.5806 61.8001 53.205 61.9562 53.9335 61.9562C54.6619 61.9562 55.3904 61.8001 56.0148 61.54C56.6392 61.2798 57.1595 60.8635 57.5758 60.3432C57.992 59.8229 58.2522 59.2505 58.4083 58.5741L58.9286 56.0765C59.0847 55.4001 59.0327 54.8278 58.8766 54.3074C58.6684 53.7871 58.3562 53.4229 57.8359 53.1627C57.3156 52.9026 56.6912 52.7465 55.9107 52.7465ZM54.1936 61.0196C53.2571 61.0196 52.6327 60.8115 52.2684 60.3952C51.9042 59.979 51.8001 59.3546 51.9562 58.5741L52.4766 56.1806C52.6327 55.4001 52.9969 54.7757 53.5693 54.4115C54.0896 53.9952 54.818 53.7871 55.7026 53.7871C56.5871 53.7871 57.2115 53.9952 57.5758 54.4115C57.94 54.8798 58.044 55.5042 57.8879 56.2326L57.3676 58.6261C57.2115 59.4066 56.8473 60.031 56.2749 60.3952C55.7546 60.7595 55.0262 60.9676 54.1936 61.0196ZM55.6506 53.9432C54.8701 53.9432 54.1936 54.1513 53.7253 54.5156C53.205 54.8798 52.8928 55.4522 52.7367 56.1806L52.2164 58.5741C52.0603 59.3026 52.1644 59.8229 52.4766 60.1871C52.7888 60.5513 53.3611 60.7595 54.1936 60.7595C55.0262 60.7595 55.6506 60.5513 56.1709 60.1871C56.6912 59.8229 57.0034 59.2505 57.1595 58.5221L57.6798 56.1286C57.8359 55.4522 57.7318 54.8798 57.4197 54.5156C57.1075 54.1513 56.4831 53.9432 55.6506 53.9432Z" fill="white"></path>
  <path d="M66.1087 58.3138L65.4323 61.4358C65.3802 61.6439 65.2762 61.8 65.1201 61.9041C64.964 62.0081 64.8079 62.1122 64.5998 62.1122C64.3916 62.1122 64.2876 62.0602 64.1835 61.9041C64.0794 61.8 64.0794 61.6439 64.1315 61.4358L64.8079 58.3138H64.7038C64.2876 58.3138 63.8713 58.4179 63.5071 58.626C63.1429 58.8341 62.8827 59.1463 62.6225 59.5626C62.4664 59.8228 62.2583 60.187 61.9981 60.6553C61.738 61.1236 61.4258 61.4358 61.0616 61.6959C60.6973 61.9561 60.2811 62.0602 59.8128 62.0602C59.5526 62.0602 59.3965 62.0081 59.2925 61.9041C59.1884 61.8 59.1363 61.6439 59.1884 61.4878C59.2924 61.0715 59.5526 60.9154 60.0729 60.9154C60.125 60.9154 60.177 60.8634 60.229 60.8114C60.2811 60.7593 60.3851 60.6553 60.4372 60.5512C60.6973 60.135 60.8534 59.7707 60.9575 59.5106C61.1656 59.0943 61.4778 58.7301 61.842 58.3138C62.2583 57.8976 62.6746 57.6374 63.1429 57.4293C62.9868 57.1691 62.7786 56.7528 62.5705 56.2325C62.3624 55.6602 62.1542 55.1919 61.9981 54.8276C61.842 54.5154 61.6339 54.3593 61.4258 54.3073C61.1656 54.3073 61.0095 54.2553 60.9055 54.1512C60.8014 54.0472 60.7494 53.8911 60.8014 53.735C60.9055 53.3707 61.1656 53.1626 61.6339 53.1626C61.9981 53.1626 62.3624 53.2667 62.6746 53.5268C62.9868 53.787 63.2469 54.1512 63.5071 54.6195C63.6632 54.9837 63.8193 55.348 64.0274 55.8163C64.1835 56.2325 64.3396 56.5967 64.4957 56.8049C64.5998 57.065 64.7559 57.1691 64.912 57.1691H65.016L65.7445 53.8911C65.7965 53.6829 65.9006 53.5268 66.0567 53.3707C66.2128 53.2667 66.3689 53.1626 66.577 53.1626C66.9933 53.1626 67.2014 53.3707 67.0973 53.839L66.3689 57.1171H66.4729C66.577 57.1171 66.7851 57.013 67.0453 56.7528C67.2534 56.5447 67.5656 56.2325 67.9298 55.7642C68.3461 55.2439 68.7624 54.8276 69.0746 54.4634C69.3868 54.0992 69.751 53.839 70.1152 53.5789C70.5835 53.3187 70.9477 53.1626 71.364 53.1626C71.6242 53.1626 71.7803 53.2146 71.8843 53.3187C71.9884 53.4228 72.0404 53.5789 71.9884 53.735C71.9364 53.8911 71.8323 54.0472 71.7282 54.1512C71.5721 54.2553 71.364 54.3073 71.1038 54.3073C70.8957 54.3073 70.5835 54.5154 70.3233 54.8276C70.0111 55.1398 69.5949 55.6081 69.1266 56.1805C68.7103 56.7008 68.3461 57.1171 68.0339 57.3772C68.2941 57.5333 68.5542 57.6894 68.7624 57.8976C68.9705 58.1057 69.1266 58.3658 69.1786 58.626C69.3347 59.1463 69.4388 59.6667 69.4388 60.187C69.4388 60.3951 69.4388 60.5512 69.4908 60.7073C69.5429 60.8114 69.5949 60.8634 69.699 60.8634C69.9071 60.8634 70.1152 60.9154 70.2193 61.0195C70.3233 61.1236 70.3754 61.2797 70.3233 61.4358C70.2193 61.852 69.9071 62.0081 69.3868 62.0081C68.9185 62.0081 68.6063 61.9041 68.2941 61.6439C68.0339 61.3837 67.8778 61.0715 67.8258 60.6032C67.8258 60.4471 67.7737 60.2911 67.7737 60.239C67.7217 59.8228 67.6697 59.4585 67.6177 59.2504C67.5656 58.9902 67.4616 58.7821 67.2534 58.626C66.9933 58.3658 66.629 58.2618 66.1607 58.2618L66.1087 58.3138Z" fill="white"></path>
  <path d="M69.3871 62.2162C68.9188 62.2162 68.5025 62.0601 68.2424 61.7999C67.9302 61.5398 67.7741 61.1755 67.722 60.7073C67.722 60.5512 67.67 60.3951 67.67 60.291C67.618 59.8747 67.5659 59.5625 67.5139 59.3024C67.4619 59.0942 67.3578 58.8861 67.2017 58.678C66.9936 58.4699 66.6294 58.3658 66.2131 58.3658L65.5367 61.3837C65.4846 61.5918 65.3806 61.7999 65.2245 61.904C65.0684 62.0601 64.8602 62.1121 64.6521 62.1121C64.444 62.1121 64.2359 62.0081 64.1318 61.904C64.0277 61.7479 63.9757 61.5918 64.0277 61.3316L64.6521 58.3138C64.2359 58.3138 63.8716 58.4178 63.5594 58.626C63.2472 58.8341 62.935 59.1463 62.7269 59.5105C62.5708 59.7707 62.3627 60.1349 62.1025 60.6032C61.8424 61.0715 61.5302 61.4357 61.1139 61.6959C60.7497 61.956 60.2814 62.0601 59.8651 62.0601C59.605 62.0601 59.3968 62.0081 59.2407 61.852C59.1367 61.7479 59.0326 61.5918 59.0846 61.3316C59.1367 61.0194 59.3968 60.6552 60.0733 60.6552C60.0733 60.6552 60.1253 60.6552 60.1773 60.6032C60.2294 60.5512 60.2814 60.4471 60.3334 60.343C60.5936 59.9268 60.7497 59.5625 60.8538 59.3024C61.0619 58.8861 61.3741 58.4699 61.7903 58.0536C62.1546 57.6894 62.5708 57.3772 62.9871 57.2211C62.831 56.9609 62.6749 56.5967 62.4668 56.0764C62.2586 55.504 62.0505 55.0357 61.8944 54.6715C61.7383 54.4113 61.5822 54.2552 61.4261 54.2552C61.1659 54.2552 60.9578 54.1512 60.8538 54.0471C60.7497 53.943 60.6456 53.7869 60.6977 53.5268C60.7497 53.2146 60.9578 52.8503 61.6342 52.8503C62.0505 52.8503 62.4147 53.0064 62.779 53.2666C63.0911 53.5268 63.4033 53.891 63.6115 54.4113C63.7676 54.7755 63.9237 55.1398 64.1318 55.6081C64.2879 56.0243 64.444 56.3886 64.6001 56.5967C64.7042 56.8048 64.8082 56.9089 64.9123 56.9089L65.5887 53.7349C65.6407 53.4747 65.7448 53.3186 65.9009 53.1625C66.057 53.0064 66.2651 52.9544 66.4733 52.9544C66.7334 52.9544 66.8895 53.0064 66.9936 53.1625C67.0976 53.3186 67.1497 53.5268 67.0977 53.7869L66.4212 56.9089C66.4733 56.9089 66.6294 56.8048 66.8895 56.5967C67.0976 56.3886 67.4098 56.0764 67.7741 55.6081C68.1903 55.0877 68.6066 54.6194 68.9188 54.3072C69.231 53.943 69.5952 53.6829 70.0115 53.4227C70.4798 53.1105 70.896 52.9544 71.3123 53.0064C71.5724 53.0064 71.7806 53.0585 71.9367 53.2146C72.0928 53.3707 72.1448 53.5268 72.0928 53.7349C72.0407 53.943 71.9367 54.0991 71.7806 54.2032C71.6245 54.3073 71.4164 54.3593 71.1042 54.4113C70.896 54.4113 70.6879 54.5674 70.3757 54.8796C70.0635 55.1918 69.6472 55.6601 69.179 56.2325C68.8147 56.7007 68.4505 57.065 68.1903 57.3251C68.3985 57.4292 68.6066 57.6373 68.8147 57.8455C69.0229 58.1056 69.1789 58.3658 69.231 58.626C69.3871 59.1463 69.4911 59.6666 69.4911 60.1869C69.4911 60.3951 69.4911 60.5512 69.5432 60.6552C69.5432 60.7073 69.5952 60.7593 69.6472 60.7593C69.9074 60.7593 70.1155 60.8113 70.2196 60.9674C70.3757 61.1235 70.4277 61.2796 70.3757 61.4877C70.3237 61.852 70.1155 62.2162 69.3871 62.2162ZM66.005 58.2097H66.2131C66.7334 58.2097 67.0977 58.3658 67.3578 58.5739C67.5659 58.782 67.67 58.9902 67.722 59.2503C67.7741 59.5105 67.8261 59.8227 67.8781 60.239C67.8781 60.343 67.8781 60.4471 67.9302 60.6032C67.9822 61.0194 68.0863 61.3316 68.3464 61.5918C68.6066 61.7999 68.9188 61.956 69.335 61.956C69.8033 61.956 70.0635 61.7999 70.1676 61.4357C70.2196 61.2796 70.1676 61.1755 70.0635 61.1235C69.9594 61.0194 69.8033 60.9674 69.5952 60.9674C69.4911 60.9674 69.3871 60.9154 69.283 60.7073C69.231 60.6032 69.231 60.3951 69.231 60.1869C69.231 59.7186 69.1269 59.1983 68.9708 58.678C68.9188 58.4178 68.7627 58.2097 68.6066 58.0016C68.3985 57.7934 68.1903 57.6373 67.9302 57.4812L67.7741 57.4292L67.8781 57.3251C68.1903 57.065 68.5546 56.6487 68.9708 56.1284C69.4391 55.504 69.8554 55.0357 70.1676 54.7235C70.4798 54.3593 70.7399 54.2032 71.0521 54.2032C71.2603 54.2032 71.4684 54.1512 71.5724 54.0471C71.6765 53.943 71.7806 53.839 71.8326 53.6829C71.8846 53.5268 71.8326 53.4227 71.7285 53.3707C71.6245 53.2666 71.4684 53.2146 71.2603 53.2146C70.896 53.2146 70.5318 53.3707 70.1155 53.6308C69.7513 53.891 69.3871 54.1512 69.0749 54.5154C68.7627 54.8276 68.3985 55.2959 67.9302 55.8162C67.5139 56.2845 67.2537 56.5967 67.0456 56.8048C66.7334 57.065 66.5253 57.2211 66.4212 57.2211H66.2131L66.9416 53.7869C66.9936 53.5788 66.9936 53.4227 66.8895 53.3186C66.8375 53.2146 66.7334 53.2146 66.5253 53.2146C66.3692 53.2146 66.2131 53.2666 66.109 53.3707C66.005 53.4747 65.9009 53.6308 65.8489 53.839L65.1204 57.2211H64.9643C64.7562 57.2211 64.6001 57.065 64.496 56.7528C64.3399 56.5447 64.1838 56.1804 64.0277 55.7642C63.8716 55.3479 63.6635 54.9316 63.5074 54.5674C63.2993 54.0991 63.0391 53.7869 62.7269 53.5268C62.4147 53.3186 62.1025 53.1625 61.7383 53.1625C61.322 53.1625 61.1139 53.3186 61.0098 53.6308C60.9578 53.7869 61.0098 53.891 61.0619 53.943C61.1659 54.0471 61.322 54.0991 61.5302 54.0991C61.7903 54.0991 61.9985 54.3073 62.2066 54.6715C62.3627 54.9837 62.5708 55.452 62.779 56.0764C62.9871 56.6487 63.1432 57.0129 63.3513 57.2731L63.4033 57.3772L63.2993 57.4292C62.831 57.5853 62.4147 57.8975 62.0505 58.2617C61.6863 58.6259 61.3741 59.0422 61.1659 59.4064C61.0619 59.6666 60.8538 59.9788 60.5936 60.4471C60.5416 60.5512 60.4375 60.6552 60.3855 60.7593C60.2814 60.8633 60.1773 60.8633 60.1253 60.8633C59.657 60.8633 59.4489 61.0194 59.3448 61.3837C59.2928 61.5398 59.3448 61.6438 59.4489 61.6959C59.5529 61.7999 59.709 61.852 59.9172 61.852C60.3334 61.852 60.6977 61.7479 61.0619 61.4877C61.4261 61.2796 61.7383 60.9154 61.9464 60.4991C62.2066 60.0308 62.4147 59.6666 62.5708 59.4064C62.831 58.9902 63.0911 58.6259 63.4554 58.4178C63.8196 58.2097 64.2359 58.1056 64.7042 58.0536H64.9643L64.2359 61.3316C64.1838 61.4877 64.2359 61.5918 64.2879 61.6959C64.3399 61.7999 64.444 61.852 64.6001 61.852C64.7562 61.852 64.9123 61.7999 65.0684 61.6959C65.2245 61.5918 65.2765 61.4357 65.3285 61.2796L66.005 58.2097Z" fill="white"></path>
  <path d="M73.2375 61.4358C73.1335 61.9041 72.8733 62.1122 72.457 62.1122C72.0408 62.1122 71.8847 61.9041 71.9887 61.4358L73.7058 53.4228C73.8099 52.9545 74.07 52.7464 74.4343 52.7464C74.8505 52.7464 75.0587 52.9545 74.9546 53.4228L74.2782 56.4407H79.4294L80.1058 53.3708C80.2099 52.9025 80.47 52.6943 80.8863 52.6943C81.3026 52.6943 81.4587 52.9025 81.3546 53.3708L79.6375 61.3838C79.5335 61.8521 79.2733 62.0602 78.857 62.0602C78.4408 62.0602 78.2847 61.8521 78.3887 61.3838L79.2213 57.6374H74.07L73.2375 61.4358Z" fill="white"></path>
  <path d="M78.8571 62.2163C78.5969 62.2163 78.4408 62.1643 78.3368 62.0082C78.2327 61.8521 78.1807 61.644 78.2327 61.3838L79.0132 57.7415H74.0701L73.2896 61.4359C73.1855 61.9562 72.8733 62.2163 72.4051 62.2163C72.1969 62.2163 71.9888 62.1643 71.8847 62.0082C71.7807 61.8521 71.7286 61.644 71.7807 61.3838L73.4977 53.3708C73.6538 52.7464 74.0181 52.5903 74.3303 52.5903C74.5904 52.5903 74.7465 52.6424 74.8506 52.7985C74.9546 52.9546 75.0067 53.1627 74.9546 53.4229L74.3303 56.3367H79.2733L79.8977 53.3708C80.0538 52.7464 80.4701 52.5903 80.7823 52.5903C80.9904 52.5903 81.1985 52.6424 81.3026 52.7985C81.4067 52.9546 81.4587 53.1627 81.4067 53.4229L79.6896 61.4359C79.5855 61.9562 79.3254 62.2163 78.8571 62.2163ZM73.914 57.5334H79.2733L78.4408 61.4359C78.3888 61.644 78.3888 61.8001 78.4929 61.8521C78.5449 61.9042 78.649 61.9562 78.8051 61.9562C79.1693 61.9562 79.3774 61.7481 79.4815 61.3838L81.1985 53.3708C81.2506 53.1627 81.2506 53.0066 81.1465 52.9025C81.0945 52.8505 80.9904 52.7985 80.8343 52.7985C80.4701 52.7985 80.262 53.0066 80.1579 53.4229L79.4815 56.5448H74.1221L74.7985 53.3708C74.8506 53.1627 74.8506 53.0066 74.7465 52.9025C74.6945 52.7985 74.5384 52.7985 74.3823 52.7985C74.0701 52.7985 73.862 53.0066 73.7579 53.4229L72.0408 61.4359C71.9888 61.644 71.9888 61.8001 72.0929 61.8521C72.1449 61.9042 72.249 61.9562 72.4051 61.9562C72.7693 61.9562 72.9774 61.7481 73.0815 61.3838L73.914 57.5334Z" fill="white"></path>
  <path d="M89.836 58.73C89.6799 59.4065 89.4197 60.0309 88.9515 60.5512C88.5352 61.0715 88.0149 61.4878 87.3384 61.7479C86.7141 62.0081 85.9856 62.1642 85.2051 62.1642C84.4246 62.1642 83.8002 62.0081 83.2799 61.7479C82.7596 61.4878 82.3954 61.0715 82.1872 60.5512C81.9791 60.0309 81.9791 59.4065 82.1352 58.73L82.6555 56.2325C82.8116 55.5561 83.0718 54.9317 83.5401 54.4114C83.9563 53.891 84.4767 53.4748 85.1531 53.2146C85.7775 52.9544 86.5059 52.7983 87.2864 52.7983C88.0669 52.7983 88.6913 52.9544 89.2116 53.2146C89.7319 53.4748 90.0962 53.891 90.3043 54.4114C90.5124 54.9317 90.5124 55.5561 90.3563 56.2325L89.836 58.73ZM87.0783 53.9431C86.2458 53.9431 85.5693 54.1512 85.049 54.5154C84.5287 54.9317 84.1645 55.504 84.0084 56.2325L83.488 58.626C83.3319 59.4065 83.436 59.9788 83.7482 60.3431C84.1124 60.7593 84.6848 60.9154 85.5173 60.9674C86.3498 60.9674 87.0262 60.7593 87.5466 60.3951C88.0669 59.9788 88.4311 59.4065 88.5872 58.678L89.1075 56.2845C89.2636 55.5561 89.1596 54.9837 88.8474 54.5674C88.5352 54.1512 87.9108 53.9431 87.0783 53.9431Z" fill="white"></path>
  <path d="M85.3612 62.2684H85.3092C84.5287 62.2684 83.8523 62.1123 83.3319 61.8001C82.8116 61.4879 82.3954 61.0716 82.1872 60.5513C81.9791 60.031 81.9791 59.3545 82.1352 58.6781L82.6555 56.1805C82.8116 55.4521 83.1238 54.8277 83.5401 54.3074C83.9563 53.787 84.5287 53.3708 85.1531 53.0586C85.7775 52.7464 86.5059 52.6423 87.2864 52.6423C88.0669 52.6423 88.7433 52.7984 89.2636 53.1106C89.784 53.4228 90.2002 53.8391 90.4084 54.3594C90.6165 54.8797 90.6165 55.5562 90.4604 56.2326L89.9401 58.7301C89.784 59.4586 89.4718 60.083 89.0555 60.6033C88.6393 61.1236 88.0669 61.5399 87.4425 61.8521C86.8181 62.1123 86.0897 62.2684 85.3612 62.2684ZM87.2864 52.8505C86.558 52.8505 85.8815 53.0066 85.2571 53.2667C84.6328 53.5269 84.1124 53.9431 83.6962 54.4635C83.2799 54.9838 83.0197 55.5562 82.8636 56.2326L82.3433 58.7301C82.1872 59.4066 82.2393 59.9789 82.3954 60.4992C82.6035 61.0196 82.9157 61.3838 83.436 61.644C83.9563 61.9041 84.5807 62.0602 85.3092 62.0602C86.0376 62.0602 86.7661 61.9041 87.3905 61.644C88.0149 61.3838 88.5352 60.9675 88.9515 60.4472C89.3677 59.9269 89.6279 59.3545 89.784 58.6781L90.3043 56.1805C90.4604 55.5041 90.4084 54.9318 90.2523 54.4114C90.0441 53.8911 89.7319 53.5269 89.2116 53.2667C88.6913 53.0066 88.0669 52.8505 87.2864 52.8505ZM85.5693 61.0716C84.6848 61.0716 84.0084 60.8635 83.6441 60.4472C83.2799 60.031 83.1758 59.4066 83.3319 58.6261L83.8523 56.2326C84.0084 55.4521 84.3726 54.8277 84.9449 54.4635C85.4653 54.0472 86.1937 53.8391 87.0262 53.8391H87.0783C87.9628 53.8391 88.5872 54.0472 88.9515 54.4635C89.3157 54.9318 89.4197 55.5562 89.2636 56.2846L88.7433 58.6781C88.5872 59.4586 88.223 60.083 87.6506 60.4472C87.1303 60.8635 86.4019 61.0716 85.5693 61.0716ZM87.0262 54.0472C86.2458 54.0472 85.5693 54.2553 85.101 54.6196C84.5807 54.9838 84.2685 55.5562 84.1124 56.2846L83.5921 58.6781C83.436 59.4066 83.5401 59.9269 83.8523 60.2911C84.1645 60.6553 84.7368 60.8635 85.5693 60.8635C86.3498 60.8635 87.0262 60.6553 87.5466 60.2911C88.0669 59.9269 88.3791 59.3545 88.5352 58.6261L89.0555 56.2326C89.2116 55.5562 89.1076 54.9838 88.7954 54.6196C88.4832 54.2553 87.8588 54.0472 87.0262 54.0472Z" fill="white"></path>
  <path d="M94.7786 62.0601C93.79 62.0601 93.0616 61.956 92.5412 61.7999C92.0209 61.6438 91.7087 61.3316 91.5526 60.9674C91.3965 60.6032 91.3965 60.0308 91.5526 59.3544L92.3851 55.556C92.5412 54.8796 92.7494 54.3593 93.0616 53.995C93.3738 53.6308 93.79 53.3186 94.3624 53.1625C94.9347 53.0064 95.6112 52.9023 96.4957 52.9023H98.8372C99.4095 52.9023 99.8258 53.0584 100.034 53.3186C100.242 53.5788 100.294 54.0471 100.19 54.6194C100.086 55.1397 99.8258 55.3999 99.4095 55.3999C99.2014 55.3999 99.0973 55.3479 98.9933 55.1918C98.8892 55.0357 98.8892 54.8796 98.9412 54.6194C98.9933 54.3593 98.9933 54.2032 98.9412 54.1511C98.8892 54.0471 98.7331 54.0471 98.525 54.0471H96.2876C95.6112 54.0471 95.0908 54.0991 94.7786 54.1511C94.4664 54.2032 94.2063 54.3593 94.0502 54.5674C93.8941 54.7755 93.738 55.0877 93.6339 55.556L92.8014 59.3023C92.6973 59.7706 92.6973 60.0828 92.7494 60.291C92.8534 60.4991 93.0616 60.6552 93.3738 60.7072C93.738 60.7593 94.2583 60.8113 95.0388 60.8113H97.016C97.2242 60.8113 97.3803 60.7593 97.4843 60.7072C97.5884 60.6032 97.6404 60.4471 97.6925 60.2389C97.7445 59.9788 97.8485 59.8227 97.9526 59.6666C98.1087 59.5105 98.2648 59.4584 98.4729 59.4584C98.8892 59.4584 99.0453 59.7186 98.9412 60.291C98.8372 60.8633 98.577 61.3316 98.2128 61.5918C97.8485 61.8519 97.4323 62.008 96.8079 62.008L94.7786 62.0601Z" fill="white"></path>
  <path d="M96.9122 62.2162C96.9122 62.2162 96.8602 62.2162 96.9122 62.2162H94.7789C93.7902 62.2162 93.0618 62.1121 92.5415 61.956C92.0211 61.7999 91.6569 61.4877 91.4488 61.0715C91.2927 60.6552 91.2927 60.0829 91.3967 59.4064L92.2293 55.6081C92.3854 54.9316 92.5935 54.3593 92.9577 53.9951C93.2699 53.5788 93.7382 53.3186 94.3106 53.1105C94.8829 52.9544 95.6114 52.8503 96.4959 52.8503H98.8374C99.4618 52.8503 99.878 53.0064 100.138 53.3186C100.398 53.6308 100.45 54.0991 100.294 54.7235C100.138 55.452 99.7219 55.6081 99.4098 55.6081C99.1496 55.6081 98.9935 55.504 98.8894 55.3479C98.7854 55.1918 98.7854 54.9837 98.8374 54.7235C98.8894 54.4633 98.8374 54.3593 98.8374 54.3593C98.8374 54.3593 98.7333 54.3073 98.4732 54.2552H96.2358C95.5594 54.2552 95.039 54.3072 94.7268 54.3593C94.4146 54.4113 94.2065 54.5674 94.0504 54.7235C93.8943 54.9316 93.7902 55.2438 93.6862 55.6601L92.8537 59.4064C92.7496 59.8227 92.7496 60.1349 92.8016 60.343C92.8537 60.4991 93.0618 60.6552 93.374 60.7073C93.6862 60.7593 94.2585 60.8113 94.987 60.8113H96.9642C97.1724 60.8113 97.3285 60.7593 97.3805 60.7073C97.4325 60.6552 97.4845 60.5512 97.5886 60.291C97.6406 60.0308 97.7447 59.8227 97.9008 59.6666C98.0569 59.5105 98.265 59.4585 98.4732 59.4585C98.6813 59.4585 98.8374 59.5105 98.9415 59.6666C99.0455 59.8227 99.0976 60.0829 99.0455 60.3951C98.8894 61.0194 98.6813 61.4357 98.3171 61.7479C97.9528 62.0601 97.4845 62.2162 96.9122 62.2162ZM94.7789 61.956H96.8602C97.4325 61.956 97.8488 61.7999 98.161 61.5398C98.4732 61.2796 98.6813 60.8633 98.8374 60.291C98.8894 60.0308 98.8894 59.8227 98.7854 59.7186C98.7333 59.6666 98.6293 59.6146 98.4732 59.6146C98.3171 59.6146 98.161 59.6666 98.0569 59.7707C97.9528 59.8747 97.8488 60.0308 97.7967 60.291C97.7447 60.5512 97.6407 60.7072 97.5366 60.8113C97.4325 60.9154 97.2244 60.9674 96.9642 60.9674H94.987C94.2065 60.9674 93.6341 60.9154 93.3219 60.8633C92.9577 60.7593 92.6976 60.6032 92.5935 60.343C92.4894 60.1349 92.4894 59.7707 92.5935 59.3024L93.426 55.556C93.5301 55.0877 93.6862 54.7755 93.8423 54.5154C93.9984 54.3073 94.3106 54.1512 94.6748 54.0471C95.039 53.9951 95.5073 53.943 96.2358 53.943H98.4732C98.7333 53.943 98.8894 53.9951 98.9935 54.0991C99.0976 54.2032 99.0976 54.4113 99.0455 54.6715C98.9935 54.8796 98.9935 55.0357 99.0976 55.1398C99.1496 55.2438 99.2537 55.2959 99.4098 55.2959C99.774 55.2959 99.9821 55.0877 100.086 54.5674C100.19 53.9951 100.19 53.5788 99.9821 53.3186C99.774 53.0585 99.4098 52.9544 98.8894 52.9544H96.548C95.6634 52.9544 94.987 53.0585 94.4146 53.2146C93.8943 53.3707 93.478 53.6308 93.1659 53.9951C92.8537 54.3593 92.6455 54.8796 92.4894 55.556L91.6569 59.3544C91.5008 60.0308 91.5008 60.5512 91.6569 60.9154C91.813 61.2796 92.1252 61.5398 92.5935 61.6959C93.1138 61.904 93.8423 61.956 94.7789 61.956Z" fill="white"></path>
  <path d="M107.995 52.9546C108.463 52.9546 108.672 53.1627 108.568 53.5269C108.463 53.9432 108.203 54.0993 107.735 54.0993H105.654L104.041 61.54C103.989 61.7481 103.885 61.9042 103.729 62.0082C103.572 62.1123 103.364 62.2164 103.156 62.2164C102.948 62.2164 102.792 62.1643 102.688 62.0603C102.584 61.9562 102.584 61.8001 102.636 61.592L104.249 54.1513H102.116C101.907 54.1513 101.699 54.0993 101.595 53.9952C101.491 53.8912 101.439 53.7351 101.491 53.579C101.543 53.4229 101.647 53.2668 101.751 53.1627C101.907 53.0587 102.116 53.0066 102.324 53.0066L107.995 52.9546Z" fill="white"></path>
  <path d="M103.156 62.3203C102.896 62.3203 102.74 62.2683 102.584 62.1122C102.48 61.9561 102.428 61.8 102.48 61.5398L104.041 54.2553H102.063C101.803 54.2553 101.595 54.2032 101.491 54.0471C101.387 53.9431 101.283 53.787 101.387 53.5268C101.439 53.3187 101.543 53.1626 101.699 53.0065C101.855 52.9024 102.063 52.8504 102.323 52.7983H107.943C108.255 52.7983 108.463 52.8504 108.567 53.0065C108.671 53.1105 108.671 53.3187 108.671 53.5268C108.619 53.839 108.411 54.2032 107.735 54.2032H105.706L104.145 61.5398C104.093 61.7479 103.988 61.9561 103.78 62.0601C103.624 62.2683 103.364 62.3203 103.156 62.3203ZM102.323 53.0585C102.115 53.0585 101.959 53.1105 101.855 53.2146C101.751 53.3187 101.647 53.4227 101.595 53.5788C101.543 53.7349 101.595 53.839 101.647 53.891C101.751 53.9951 101.855 54.0471 102.063 54.0471H104.353L102.74 61.5918C102.688 61.7479 102.74 61.904 102.792 61.9561C102.844 62.0601 103 62.1122 103.156 62.1122C103.364 62.1122 103.52 62.0601 103.624 61.9561C103.78 61.852 103.832 61.6959 103.884 61.5398L105.549 53.9951H107.735C108.151 53.9951 108.411 53.839 108.463 53.4748C108.515 53.3187 108.463 53.2146 108.411 53.1626C108.359 53.0585 108.203 53.0065 107.943 53.0065L102.323 53.0585Z" fill="white"></path>
  <path d="M110.389 57.5855L109.66 60.9676H115.332C115.592 60.9676 115.748 61.0196 115.852 61.1237C115.956 61.2278 116.008 61.3839 115.956 61.592C115.904 61.7481 115.8 61.9042 115.696 62.0083C115.54 62.1123 115.332 62.1643 115.124 62.1643H108.828C108.62 62.1643 108.516 62.1123 108.411 61.9562C108.359 61.8522 108.307 61.644 108.359 61.4359L110.024 53.683C110.077 53.4749 110.181 53.2668 110.285 53.1627C110.441 53.0587 110.597 52.9546 110.753 52.9546H117.049C117.309 52.9546 117.465 53.0066 117.569 53.1107C117.673 53.2148 117.725 53.3708 117.673 53.579C117.621 53.7351 117.517 53.8912 117.413 53.9952C117.257 54.0993 117.049 54.1513 116.841 54.1513H111.169L110.701 56.3887H114.551C114.811 56.3887 115.02 56.4408 115.124 56.5448C115.228 56.6489 115.28 56.805 115.228 57.0131C115.124 57.3774 114.811 57.5855 114.291 57.5855H110.389Z" fill="white"></path>
  <path d="M115.072 62.2682H108.776C108.568 62.2682 108.359 62.1642 108.307 62.0081C108.203 61.852 108.203 61.6438 108.255 61.3837L109.92 53.6308C109.972 53.3707 110.077 53.1625 110.233 53.0585C110.389 52.9024 110.545 52.8503 110.753 52.8503H117.049C117.309 52.8503 117.517 52.9024 117.621 53.0585C117.777 53.2146 117.777 53.3707 117.725 53.6308C117.673 53.839 117.569 53.9951 117.413 54.0991C117.257 54.2032 117.049 54.2552 116.789 54.2552H111.221L110.805 56.2845H114.499C114.811 56.2845 115.02 56.3365 115.176 56.4926C115.332 56.6487 115.384 56.8048 115.332 57.065C115.228 57.4812 114.863 57.6894 114.291 57.7414H110.545L109.868 60.8633H115.384C115.644 60.8633 115.852 60.9154 115.956 61.0715C116.112 61.2276 116.112 61.3837 116.06 61.6438C116.008 61.852 115.904 62.0081 115.748 62.1121C115.54 62.2162 115.332 62.2682 115.072 62.2682ZM110.753 53.0585C110.597 53.0585 110.493 53.1105 110.337 53.2146C110.233 53.3186 110.129 53.4747 110.077 53.6829L108.411 61.4357C108.359 61.6438 108.359 61.7999 108.464 61.852C108.516 61.956 108.62 62.0081 108.776 62.0081H115.072C115.28 62.0081 115.436 61.956 115.592 61.904C115.696 61.7999 115.8 61.6959 115.852 61.5398C115.904 61.3837 115.852 61.2276 115.8 61.1755C115.696 61.0715 115.592 61.0715 115.384 61.0715H109.608L110.389 57.4812H114.291C114.759 57.4812 115.02 57.3251 115.124 57.0129C115.176 56.8568 115.124 56.7528 115.02 56.6487C114.916 56.5446 114.759 56.5447 114.499 56.4926H110.545L111.065 54.0471H116.789C116.997 54.0471 117.153 53.9951 117.309 53.943C117.413 53.839 117.517 53.7349 117.569 53.5788C117.621 53.4227 117.569 53.2666 117.517 53.2146C117.413 53.1105 117.309 53.1105 117.101 53.1105L110.753 53.0585Z" fill="white"></path>
  <path d="M117.725 61.5918L119.442 53.5788C119.546 53.1105 119.806 52.9024 120.223 52.9024C120.639 52.9024 120.795 53.1626 120.691 53.6309L119.286 60.1349L125.946 53.2666C126.206 53.0065 126.415 52.9024 126.675 52.9024C127.091 52.9024 127.195 53.1105 127.091 53.5788L125.374 61.5918C125.27 62.0601 125.01 62.2683 124.593 62.2683C124.177 62.2683 124.021 62.0601 124.125 61.6439L125.53 55.0357L118.922 61.852C118.766 62.0081 118.662 62.1122 118.558 62.1642C118.454 62.2162 118.349 62.2162 118.193 62.2162C117.777 62.2683 117.621 62.0081 117.725 61.5918ZM122.408 53.2146C121.836 53.2146 121.471 53.0585 121.263 52.7983C121.107 52.5382 121.055 52.0179 121.211 51.3414L121.367 50.717H122.616L122.46 51.5496C122.408 51.7577 122.408 51.8618 122.46 51.9138C122.512 51.9658 122.616 51.9658 122.824 52.0179H124.333C124.541 52.0179 124.645 52.0179 124.697 51.9658C124.749 51.9138 124.801 51.8097 124.854 51.6016L125.01 50.7691H126.258L126.102 51.3935C125.946 52.0699 125.738 52.5902 125.426 52.8504C125.114 53.1105 124.697 53.2666 124.125 53.2666L122.408 53.2146Z" fill="white"></path>
  <path d="M124.593 62.3724C124.333 62.3724 124.177 62.3203 124.073 62.1642C123.969 62.0081 123.917 61.852 123.969 61.5919L125.322 55.4L119.026 61.9561C118.87 62.1122 118.714 62.2163 118.61 62.3203C118.506 62.3724 118.349 62.4244 118.193 62.4244C117.985 62.4244 117.829 62.3724 117.725 62.2163C117.621 62.0602 117.569 61.852 117.621 61.5919L119.338 53.5789C119.494 52.9545 119.91 52.7984 120.223 52.7984C120.431 52.7984 120.587 52.8504 120.691 53.0065C120.795 53.1626 120.847 53.3707 120.795 53.6829L119.494 59.8228L125.894 53.2146C126.154 52.9545 126.414 52.8504 126.675 52.8504C126.883 52.8504 127.039 52.9024 127.143 53.0585C127.247 53.2146 127.299 53.4228 127.247 53.6829L125.53 61.6959C125.374 62.1122 125.062 62.3724 124.593 62.3724ZM125.738 54.6715L124.229 61.6439C124.177 61.852 124.177 61.9561 124.281 62.0602C124.333 62.1122 124.437 62.1642 124.645 62.1642C125.01 62.1642 125.218 61.9561 125.322 61.5919L127.039 53.5789C127.091 53.3707 127.091 53.2146 126.987 53.1106C126.935 53.0585 126.831 53.0065 126.675 53.0065C126.467 53.0065 126.258 53.1106 126.05 53.3187L119.078 60.4992L120.587 53.6309C120.639 53.4228 120.639 53.2146 120.535 53.1626C120.483 53.1106 120.379 53.0585 120.223 53.0585C119.858 53.0585 119.65 53.2667 119.546 53.6829L117.829 61.6959C117.777 61.9041 117.777 62.0602 117.881 62.1122C117.933 62.1642 118.037 62.2163 118.193 62.2163C118.349 62.2163 118.454 62.2163 118.506 62.1642C118.558 62.1122 118.662 62.0602 118.87 61.852L125.738 54.6715ZM124.177 53.3707H122.408C121.784 53.3707 121.367 53.2146 121.159 52.9024C120.951 52.5902 120.951 52.0699 121.107 51.3415L121.263 50.665H122.72L122.512 51.6537C122.46 51.9138 122.46 51.9659 122.46 51.9659C122.46 51.9659 122.512 52.0179 122.72 52.0179H124.229C124.437 52.0179 124.541 51.9659 124.541 51.9659C124.541 51.9659 124.593 51.9138 124.645 51.6537L124.854 50.7171H126.31L126.154 51.4455C125.998 52.174 125.738 52.6943 125.426 52.9545C125.218 53.2146 124.801 53.3187 124.177 53.3707ZM121.471 50.8211L121.367 51.3415C121.211 52.0179 121.211 52.4862 121.367 52.6943C121.523 52.9545 121.888 53.0585 122.408 53.0585H124.125C124.645 53.0585 125.114 52.9545 125.374 52.6943C125.634 52.4341 125.894 51.9659 125.998 51.2894L126.102 50.8211H125.062L124.906 51.5496C124.854 51.8098 124.801 51.9138 124.697 52.0179C124.593 52.0699 124.489 52.122 124.229 52.122H122.72C122.46 52.122 122.304 52.0699 122.252 52.0179C122.2 51.9138 122.2 51.8098 122.252 51.5496L122.408 50.8732L121.471 50.8211Z" fill="white"></path>
</svg>
